<svg width="99" height="47" viewBox="0 0 99 47" fill="none" xmlns="http://www.w3.org/2000/svg">
<g clip-path="url(#clip0_143_77)">
<path d="M0 0H47.2492V46.8657H0V0Z" fill="#E8F1FB"/>
<path d="M31.1468 34.0723C30.6899 34.1881 30.5782 34.3702 30.6577 34.4818C30.739 34.5884 31.1468 34.507 31.36 34.4088C31.5766 34.3081 31.6291 34.1881 31.5555 34.0773C31.4963 33.9892 31.217 34.0555 31.1468 34.0723ZM27.5227 12.9306C27.752 12.9491 27.7343 12.9432 27.8265 12.9592C27.8798 12.8836 28.2834 12.3003 28.319 12.1786C28.3604 12.0611 28.264 11.9705 28.1717 11.9655C28.0812 11.9604 27.9001 11.9705 27.7774 12.0821C27.6463 12.1996 27.565 12.7275 27.5227 12.9306ZM34.4527 20.0629C33.9603 19.8841 33.4543 19.9832 32.9669 20.1754L32.9203 20.2778C32.8273 20.4775 32.6978 20.6303 32.5565 20.7511C32.8103 20.9324 33.3942 21.1103 34.0246 21.0902C34.6583 21.0759 35.2075 20.6286 35.2075 20.6286C35.0806 20.449 34.9503 20.2425 34.4527 20.0629ZM33.5668 22.8074C33.3747 22.4716 32.8188 22.4095 32.35 22.0394L32.3196 22.1368L32.2138 22.162C31.9029 22.2388 31.5779 22.2406 31.2661 22.167C31.2983 22.2425 31.3237 22.355 31.3355 22.4146C31.6596 22.809 32.1182 23.086 32.7266 23.1565C33.3324 23.2236 33.5668 22.8074 33.5668 22.8074ZM32.4101 19.7834C32.719 19.8841 32.9999 19.9345 33.764 19.7415C34.5763 19.5316 34.6922 18.924 34.6922 18.924C34.336 18.6965 33.8773 18.6991 33.6446 18.7872C33.4111 18.8711 32.8814 18.8711 32.6563 18.8208C32.5788 19.1631 32.3929 19.4719 32.1258 19.702C32.2324 19.723 32.3255 19.7524 32.4101 19.7834ZM33.0633 29.4436C33.5465 29.0114 33.852 28.5682 33.5676 28.2694C33.285 27.9698 32.8061 28.23 32.3204 28.6614C31.8364 29.0928 31.5318 29.5351 31.8136 29.833C32.0759 30.1117 32.5793 29.875 33.0633 29.4436ZM31.8407 28.2384C32.4499 27.191 31.7154 25.7877 31.1011 24.8107C31.023 24.7816 30.9467 24.748 30.8726 24.71C31.0876 25.462 31.4971 26.3559 31.3287 27.0449C30.7931 26.4264 30.6349 24.5724 30.6349 24.5724C30.5264 24.5031 30.4231 24.4259 30.326 24.3416C30.326 24.407 30.3227 24.4784 30.3176 24.548C30.392 25.6651 30.486 26.8133 30.843 27.3857C31.195 27.948 31.8407 28.2384 31.8407 28.2384ZM30.5316 24.2744C30.8803 24.5438 31.3499 24.8007 31.8677 24.7243C31.8677 24.7243 31.987 24.3466 30.9556 23.42C30.6641 23.3855 30.3858 23.2797 30.1458 23.112C30.1035 23.2304 30.0333 23.389 30.0849 23.6156C30.1356 23.8439 30.2964 24.0931 30.5316 24.2744ZM34.2691 18.156C34.7125 17.7649 35.0933 16.7998 35.0933 16.7998C34.6854 16.8501 33.8917 17.1959 33.4111 17.4569C32.9694 17.6986 32.3509 18.2039 32.0886 18.391C32.3983 18.4145 32.5793 18.5228 32.5954 18.532L32.7003 18.5983C33.489 18.7108 33.8105 18.5597 34.2691 18.1569V18.156ZM32.4499 24.2954L32.4262 24.2929C32.247 24.2976 32.0683 24.27 31.899 24.2115C31.9456 24.2904 31.9811 24.3626 32.0048 24.4247C33.6954 25.9555 33.5499 26.7109 33.5499 26.7109C32.9736 26.3852 32.3348 25.452 32.0124 24.8838L31.8956 24.9005C31.757 24.9223 31.616 24.9243 31.4768 24.9064C31.6968 25.1078 32.0183 25.6769 32.5438 26.5783C33.065 27.4822 34.3368 27.8674 34.3368 27.8674C34.4671 26.3366 33.0972 24.924 32.4499 24.2954ZM32.2383 23.2085C31.8237 22.94 31.6291 22.8879 31.3465 22.7889C31.305 23.1246 31.1392 23.3361 31.1256 23.3537C31.2475 23.4931 31.6841 24.2182 32.5988 24.0982C32.5988 24.0982 32.8425 23.603 32.2383 23.2085ZM29.925 18.1728C29.6009 18.3877 29.2438 18.8333 29.5154 19.4603C29.7862 20.0881 30.299 20.9777 29.9918 21.3252C29.6863 21.6726 28.5973 21.8531 27.7106 21.5081C27.7106 21.5081 27.5253 22.0503 27.2029 22.3978C27.2029 22.3978 27.3535 22.6974 27.8654 22.5472C27.8654 22.5472 27.6784 22.992 27.9331 23.4721C27.9331 23.4721 28.5288 23.3714 28.7826 22.8443C28.7826 22.8443 29.0213 23.2547 29.4993 23.4049C29.4993 23.4049 29.892 23.2085 29.8056 22.4456C29.8056 22.4456 30.0933 23.1255 30.9801 23.2388C30.9801 23.2388 31.4903 22.6135 30.8261 21.77C30.8261 21.77 31.3025 22.1838 32.1706 21.9849C32.1706 21.9849 32.306 21.5568 31.5216 20.9626C31.5216 20.9626 32.4101 20.929 32.7511 20.2031C32.7511 20.2031 32.3746 19.7557 31.4573 19.8564C31.4573 19.8564 32.3069 19.6743 32.4939 18.6848C32.4939 18.6848 31.8813 18.3046 30.9124 18.9148C30.9124 18.9148 31.0816 18.6025 31.4895 18.2895C31.8982 17.9739 32.3932 17.1002 32.2206 15.8136C31.8982 16.5052 31.3676 17.2152 29.925 18.1728ZM29.914 11.4292C30.1086 11.4795 30.1509 11.4661 30.244 11.4569C30.2544 11.3938 30.2501 11.3292 30.2313 11.268C30.2313 11.268 29.7701 10.8316 29.3817 10.7569C29.2995 10.7388 29.2141 10.7396 29.1322 10.7594C29.0504 10.7792 28.9742 10.8174 28.9096 10.871C28.9096 10.871 29.0475 10.8585 29.2548 11.0221C29.4621 11.1841 29.7185 11.3813 29.914 11.4292ZM29.0805 12.7217C29.072 12.8417 28.9849 12.9676 28.8833 13.07C28.8833 13.07 29.4494 12.9407 29.5171 12.6008C29.5797 12.2987 29.4477 12.0863 29.3547 11.9185C29.27 11.759 29.0086 11.3922 28.9434 11.2386C28.8842 11.0993 28.8512 10.9827 28.8723 10.9055C28.6997 11.0741 28.5533 11.2521 28.5567 11.409C28.5584 11.5676 28.7513 11.9705 28.8512 12.1233C28.9527 12.2768 29.0991 12.4774 29.0805 12.7217ZM30.1813 12.1627C30.029 12.4531 29.9571 12.9332 30.0849 13.2647C30.1864 13.5333 30.2676 13.9151 30.2744 14.0351C30.486 13.7288 30.5536 13.4015 30.5096 13.0943C30.4834 12.9139 30.4606 12.6168 30.5765 12.3893C30.6721 12.1996 30.8743 11.8606 30.8464 11.524C30.678 11.4216 30.3844 11.3259 30.3844 11.3259C30.4123 11.618 30.3294 11.8815 30.1813 12.1627ZM28.0795 14.2055C28.0795 14.2055 28.4518 13.9336 28.5415 13.7036C28.6329 13.4762 28.6566 13.3167 28.2834 13.4275C28.2648 13.6971 28.1951 13.9609 28.0795 14.2055ZM34.0085 16.3751C34.4485 15.6264 34.2158 14.6772 34.2158 14.6772C33.3417 14.9038 32.895 15.6315 32.7689 15.8396C32.6445 16.0469 32.4355 16.8501 32.3424 17.1741C32.229 17.5711 32.0776 17.9093 31.8821 18.1527C32.8518 17.7045 33.6277 17.0238 34.0085 16.3751ZM30.695 13.07C30.7017 13.1338 30.7068 13.1975 30.7093 13.2647C30.8803 12.9776 31.3778 13.2731 31.3778 13.2731C31.0647 12.7871 30.9124 12.7343 30.6856 12.6495C30.6679 12.767 30.6721 12.9046 30.6941 13.0691L30.695 13.07ZM35.3776 16.5782L35.1195 17.3058C35.8031 16.7775 36.4951 16.2599 37.1951 15.7532C37.5979 15.4586 38.2012 15.0381 38.8028 14.8417C38.8028 14.8417 38.2494 15.5391 37.8026 15.8816C37.289 16.2769 36.7653 16.6193 36.332 16.8476C35.9504 17.0515 35.755 17.1665 34.979 17.5308C34.9257 17.6248 34.765 17.8455 34.7023 17.932C36.8347 17.5878 39.1802 16.0226 39.9045 15.0532C40.6322 14.0838 40.4249 12.6369 40.4249 12.6369C39.72 12.7729 38.1927 14.0519 37.7976 14.4372C37.4016 14.8207 36.2068 15.9496 35.3776 16.5782ZM33.654 17.1363C33.8198 17.0557 34.0102 16.9693 34.2023 16.8912L34.38 16.8199C35.9555 16.0091 37.5166 14.3306 38.1487 13.164C38.7791 11.9965 38.5193 10.6411 38.3518 9.91593C37.636 10.5034 36.607 11.6616 36.1577 12.2911C35.606 13.0633 34.8995 14.1568 34.4612 15.0473V15.0733C34.4646 15.1657 34.4671 15.2664 34.4629 15.373L34.4443 15.6055C34.9613 14.9668 35.5806 14.1971 36.1696 13.4846C36.574 12.9978 36.9176 12.7032 37.2958 12.4657C36.976 13.3679 36.4048 14.0889 35.997 14.4481C35.5933 14.8056 35.007 15.4107 34.4341 15.7817L34.3774 15.9647C34.3315 16.1402 34.2618 16.3088 34.1701 16.4657C34.0356 16.694 33.8621 16.9189 33.654 17.1371V17.1363ZM41.8481 16.574C40.1778 16.5312 38.8273 16.9265 37.7857 17.237C36.5681 17.5979 34.7108 18.271 34.0618 18.5522C34.3055 18.5597 34.572 18.6294 34.798 18.7746C35.7042 18.4389 36.1264 18.2945 36.9506 18.0721C37.5996 17.895 38.0802 17.8598 38.4872 17.822C38.4872 17.822 37.9152 18.1888 36.9726 18.48C36.0376 18.7696 35.6356 18.8191 34.8766 18.9592C34.8724 18.9861 34.759 19.5106 34.132 19.8002C35.48 19.2295 38.1377 18.8996 39.5643 18.3231C41.4953 17.5442 41.849 16.5748 41.849 16.5748L41.8481 16.574ZM29.6093 25.5896C29.6093 25.5896 29.9495 25.2279 30.0476 24.9299C30.1647 24.5903 30.1694 24.2225 30.0612 23.88C30.0005 23.6989 29.9058 23.5308 29.782 23.3848C29.7289 23.4578 29.6619 23.5196 29.5848 23.5669L29.5154 23.6005L29.441 23.577C29.3799 23.5587 29.3205 23.5354 29.2633 23.5073C29.1871 23.7113 29.1583 23.8095 29.138 23.9824C29.1126 24.2123 29.067 24.5757 29.1541 24.8712C29.2641 25.2321 29.4841 25.4528 29.6093 25.5896ZM34.6456 22.2073C34.358 21.3806 33.7868 21.253 33.2267 21.1515C32.8198 21.0671 32.4003 21.0614 31.9913 21.1347C32.1706 21.3302 32.2324 21.5224 32.3196 21.6466C32.5946 22.0352 33.0777 22.2643 33.6303 22.3768C34.2835 22.5044 34.6456 22.2081 34.6456 22.2081V22.2073ZM24.403 15.5912C24.5976 15.4032 24.8362 15.1229 24.9267 14.8551C24.9267 14.8551 24.5392 14.861 24.3581 14.9777C24.1237 15.1271 23.8995 15.4535 23.8149 15.8446C23.8149 15.8446 24.2083 15.7792 24.403 15.5912ZM22.8909 14.9777C22.7098 14.861 22.3206 14.8551 22.3206 14.8551C22.412 15.1237 22.6514 15.4032 22.8469 15.5912C23.0398 15.7792 23.4316 15.8446 23.4316 15.8446C23.3461 15.4535 23.1244 15.1271 22.8909 14.9777ZM18.2167 14.5295C18.1968 14.5295 18.1771 14.5256 18.1587 14.518C18.1403 14.5103 18.1236 14.4992 18.1096 14.4851C18.0956 14.4711 18.0846 14.4544 18.0771 14.4361C18.0696 14.4178 18.0659 14.3982 18.0661 14.3784C18.0661 14.2945 18.1338 14.2273 18.2167 14.2273C18.3047 14.2273 18.375 14.2945 18.375 14.3784C18.375 14.4623 18.3047 14.5295 18.2167 14.5295ZM18.3115 13.7179C18.1025 13.6692 17.6616 13.6205 17.467 13.8992C17.2707 14.1761 17.346 14.7007 17.737 14.9147C17.737 14.9147 18.3326 14.417 19.0553 14.9122C19.0553 14.9122 19.222 14.8065 19.5993 14.7242C19.5993 14.7242 19.3776 14.4623 19.1289 14.3532C18.9046 14.2542 18.4435 14.1241 18.3115 13.7179ZM20.1688 20.7906C20.3973 20.7906 20.7425 20.6101 21.1673 20.0898C21.7951 19.3235 21.9381 18.2895 21.9381 18.2895C21.295 19.3336 20.6545 19.8766 20.1553 19.848C19.7127 19.8254 19.508 19.206 19.508 19.206C19.2846 19.3806 19.2456 19.8774 19.3641 20.1938C19.4783 20.5128 19.8244 20.7906 20.1688 20.7906ZM20.1375 15.305C19.9446 15.1539 19.6814 14.814 19.6814 14.814C19.337 14.8921 19.0942 14.9357 18.8285 15.2865C18.5831 15.6113 18.9199 16.1107 18.9199 16.1107C19.1653 15.2958 20.1375 15.305 20.1375 15.305ZM27.9373 26.2803C27.6784 27.5451 28.0812 28.0646 28.0812 28.0646C28.7496 27.2875 28.8055 26.4784 28.9578 25.2782C28.8842 25.4368 28.7886 25.603 28.66 25.7667C28.484 26.9778 28.2403 27.1465 28.2403 27.1465C28.1455 26.632 28.2995 26.1183 28.2995 26.1183C28.1877 26.1901 28.0656 26.2447 27.9373 26.2803ZM28.9646 23.3202C28.9003 23.2648 28.8444 23.2111 28.7953 23.1624C28.6989 23.2816 28.3706 23.6794 28.209 24.078C28.0854 24.4171 27.9551 24.8787 27.8908 25.1423C27.8231 25.405 27.6285 25.9564 27.5109 26.1444C27.5109 26.1444 28.0313 26.2081 28.4163 25.7717C28.7945 25.3437 28.9214 24.9148 28.9832 24.4733C29.0272 24.1292 29.0145 23.6492 28.9646 23.3202ZM28.8732 14.3784C28.8732 14.2945 28.9443 14.2273 29.0272 14.2273C29.1118 14.2273 29.1837 14.2945 29.1837 14.3784C29.1837 14.4623 29.1126 14.5295 29.0272 14.5295C28.9866 14.5295 28.9477 14.5136 28.9189 14.4853C28.8901 14.4571 28.8736 14.4186 28.8732 14.3784ZM29.5086 14.9156C29.9013 14.7007 29.9783 14.1761 29.7811 13.9C29.5865 13.6205 29.1456 13.6692 28.935 13.7179C28.8038 14.1241 28.341 14.255 28.1193 14.3532C27.8688 14.4623 27.6454 14.7242 27.6454 14.7242C28.0228 14.8065 28.192 14.9122 28.192 14.9122C28.3816 14.7699 28.613 14.6931 28.8508 14.6935C29.0885 14.694 29.3196 14.7725 29.5086 14.9156ZM28.3274 16.1107C28.3274 16.1107 28.665 15.6113 28.418 15.2857C28.154 14.9357 27.9111 14.8912 27.565 14.814C27.565 14.814 27.3044 15.1539 27.1115 15.305C27.1115 15.305 28.0829 15.2958 28.3274 16.1107ZM27.741 19.206C27.741 19.206 27.5346 19.8254 27.0929 19.848C26.5953 19.8766 25.9531 19.3336 25.31 18.2895C25.31 18.2895 25.4522 19.3235 26.08 20.0898C26.5031 20.6101 26.85 20.7906 27.0776 20.7906C27.4212 20.7906 27.7681 20.5128 27.8849 20.1938C27.9991 19.8766 27.9636 19.3806 27.741 19.206ZM27.5633 30.0764C27.8307 29.9119 28.1049 29.8313 28.1582 29.8154C27.9213 29.6643 27.7182 29.5661 27.5557 29.5023C27.3907 29.4377 27.1606 29.3806 27.1606 29.3806C27.054 29.4142 26.8644 29.431 26.8644 29.431C27.087 29.478 27.329 29.8246 27.3848 29.9262C27.444 30.0328 27.5625 30.0773 27.5625 30.0773L27.5633 30.0764ZM27.0836 30.8418C27.1783 30.7974 27.373 30.6278 27.3078 30.2711C27.2367 29.854 26.614 29.4369 26.614 29.4369C26.5174 29.4391 26.4216 29.4184 26.3347 29.3765C26.2165 29.4389 26.1065 29.5155 26.0073 29.6047C26.196 29.5737 26.504 29.6559 26.6757 29.781C26.8052 29.875 27.0167 30.2006 26.8864 30.4264C26.7553 30.6496 26.2763 30.4961 26.2763 30.4961C26.5573 31.0601 26.9896 30.888 27.0836 30.8418ZM27.9382 30.3383C28.0786 30.3106 28.2919 30.439 28.2919 30.439C28.2919 30.3324 28.2487 30.2275 28.3714 30.1494C28.4873 30.0773 28.9595 30.1637 29.1583 30.1301C29.2548 30.1133 29.292 30.0588 29.2658 30.0042C29.2049 29.8658 29.0898 29.7382 29.0898 29.7382C28.8613 29.8036 28.1548 29.9866 27.9001 30.1049C27.7444 30.1763 27.4863 30.3131 27.4398 30.439C27.3755 30.6102 27.461 30.6933 27.5286 30.7697C27.6353 30.4658 27.752 30.3769 27.9382 30.3383ZM29.8166 25.6433C30.0104 26.9283 29.6957 27.1599 29.6957 27.1599C29.3817 26.5598 29.485 25.7121 29.485 25.7121C29.408 25.6232 29.248 25.4637 29.155 25.3135C29.3081 27.9908 29.7422 28.2988 29.7422 28.2988C30.376 27.7247 30.1873 25.8901 30.1314 25.1926C30.0392 25.3512 29.9339 25.5019 29.8166 25.6433ZM26.8026 33.5553C26.058 33.1667 25.3278 32.5716 24.6686 31.6299C24.6517 31.5977 24.6322 31.5668 24.6103 31.5376C24.6103 31.5376 24.3632 31.5964 24.1686 31.5124L24.2955 31.7172C25.0037 32.7646 25.7864 33.421 26.5886 33.8465L26.8026 33.5553ZM18.2819 23.3202C18.2353 23.6492 18.2176 24.1292 18.2666 24.4733C18.3259 24.9148 18.4528 25.3437 18.831 25.7717C19.2152 26.2081 19.7347 26.1444 19.7347 26.1444C19.6163 25.9564 19.4233 25.405 19.3582 25.1423C19.268 24.7831 19.1621 24.4281 19.0409 24.078C18.8776 23.6802 18.5476 23.2816 18.4486 23.1632C18.4046 23.2102 18.347 23.2639 18.281 23.3202H18.2819ZM20.4167 21.77C20.4886 21.5711 20.4396 20.9794 20.4396 20.9794C20.0563 21.1531 19.5985 20.9173 19.5985 20.9173C19.6036 21.3705 19.9742 21.9941 20.0893 22.1645C20.2754 22.0277 20.3541 21.9328 20.4167 21.77ZM17.9806 30.0042C17.9544 30.0588 17.9891 30.1133 18.089 30.1301C18.2861 30.1637 18.7583 30.0773 18.875 30.1494C18.9969 30.2275 18.952 30.3332 18.952 30.439C18.952 30.439 19.1686 30.3106 19.3049 30.3383C19.4944 30.3777 19.6086 30.4658 19.7161 30.7697C19.7846 30.6941 19.8701 30.6102 19.8041 30.439C19.7593 30.3131 19.5012 30.1763 19.3472 30.1049C19.0933 29.9875 18.3876 29.8028 18.1558 29.7382C18.1558 29.7382 18.0399 29.8658 17.9806 30.0042ZM18.9943 32.6706L21.3077 35.8146L21.5802 35.4126C20.6426 34.1419 19.486 32.5674 19.3683 32.4079L19.7322 32.1562L18.5873 31.7298L18.6068 32.9417L18.9943 32.6706ZM17.9832 23.5082C17.9254 23.5368 17.8651 23.5602 17.803 23.5778L17.7319 23.6022L17.6608 23.5678C17.6515 23.5619 17.5593 23.5107 17.4628 23.3856C17.3397 23.5315 17.2463 23.6997 17.1878 23.8808C17.0626 24.2526 17.0981 24.6177 17.1996 24.9299C17.2961 25.2279 17.6363 25.5904 17.6363 25.5904C17.759 25.4536 17.9832 25.2337 18.0915 24.872C18.1795 24.5766 18.133 24.2132 18.1084 23.9832C18.0915 23.8095 18.0602 23.7121 17.9832 23.5082ZM18.0915 25.3126C18.0001 25.4637 17.8376 25.6232 17.759 25.7121C17.759 25.7121 17.8647 26.5598 17.5508 27.1599C17.5508 27.1599 17.2369 26.9283 17.4306 25.6433C17.3146 25.5011 17.2093 25.3504 17.1159 25.1926C17.0609 25.8892 16.8705 27.7247 17.5051 28.2988C17.5051 28.2988 17.9392 27.99 18.0915 25.3126ZM26.8069 20.9794C26.8069 20.9794 26.7578 21.5711 26.8323 21.77C26.8915 21.9328 26.971 22.0277 27.1555 22.1645C27.2723 21.9941 27.6454 21.3713 27.6496 20.9173C27.6496 20.9173 27.191 21.1531 26.8069 20.9794ZM17.8825 34.3014C17.5085 34.3568 17.1463 34.3752 16.7952 34.3593C16.8011 34.4155 16.8011 34.4894 16.7673 34.5439C16.7673 34.5439 16.8383 34.6237 16.8383 34.7118C17.192 34.7235 17.5618 34.7034 17.9383 34.6472C18.5645 34.5548 19.2228 34.4315 19.8845 34.1889L19.6653 33.891C19.0595 34.1025 18.4553 34.2166 17.8825 34.3014ZM15.9812 34.8503C15.8693 34.9733 15.762 35.1004 15.6596 35.2313C15.6368 35.2733 15.674 35.3396 15.7426 35.3303C15.8086 35.3236 16.1783 35.2875 16.3899 35.1482C16.6014 35.0072 16.7427 34.7361 16.5963 34.6388C16.4508 34.5406 16.224 34.5876 15.9812 34.8503ZM22.7487 36.9988C22.6582 36.8788 22.4153 36.549 22.0972 36.1176L21.8264 36.5163L22.7876 37.8222L23.5153 36.5666L23.2581 36.1176C23.0677 36.4483 22.8638 36.8025 22.7487 36.9988ZM28.6363 32.9401L28.66 31.7281L27.5109 32.1536L27.8756 32.4063L24.4977 36.9997L22.78 33.9808L22.5685 34.2955L21.0403 36.5347L20.657 36.288L20.6528 37.4781L21.8129 37.0324L21.4236 36.7831C21.6343 36.4726 22.4644 35.2598 22.7403 34.852L24.4588 37.8222L28.2513 32.669L28.6363 32.9401ZM14.4793 24.1712C14.4657 24.1435 14.4573 24.1141 14.4505 24.0957C14.4239 24.0087 14.4116 23.918 14.4141 23.8271C12.974 25.3177 12.1388 25.5728 12.1388 25.5728C12.6736 24.5262 13.9927 23.8775 14.4488 23.6265C14.4792 23.5168 14.5316 23.4144 14.6028 23.3252C14.5842 23.3311 14.5639 23.3319 14.5436 23.3336C14.2897 23.3638 14.0875 23.3193 13.9343 23.253C13.3336 23.6752 12.517 24.3156 11.8782 25.0155C11.2393 25.7163 11.01 26.3651 10.8933 27.1868C10.8933 27.1868 12.0863 27.1456 12.8411 26.1326C13.5942 25.1179 13.9707 24.6555 14.4793 24.1712ZM13.6847 23.0919C13.6433 23.0553 13.6059 23.0145 13.573 22.9702C13.573 22.9702 12.2547 24.0999 10.8628 24.59C10.8628 24.59 11.159 24.0655 11.7115 23.6853C12.3816 23.2236 12.8834 23.0692 13.4698 22.8057L13.518 22.7192C13.5366 22.6899 13.5519 22.6638 13.573 22.6395C13.0814 22.8233 11.3341 23.4628 10.7689 23.7474C10.202 24.0319 9.38457 24.6765 8.93949 25.9883C8.93949 25.9883 10.119 26.0898 11.0921 25.3093C12.0652 24.5262 13.1999 23.4377 13.6847 23.0919ZM15.9152 34.5288C15.8634 34.4983 15.8055 34.4795 15.7455 34.4737C15.6855 34.4679 15.625 34.4753 15.5683 34.4953C15.421 34.5473 14.8854 34.8528 14.8507 34.998C14.8135 35.1415 14.888 35.212 14.9717 35.2447C15.0538 35.2758 15.1536 35.306 15.2281 35.3152C15.2913 35.3169 15.3541 35.3046 15.4119 35.2792C15.4697 35.2538 15.5211 35.2159 15.5623 35.1684C15.63 35.0844 15.8813 34.7932 15.9152 34.7244C15.9516 34.6614 15.9702 34.5649 15.9152 34.5288ZM26.2061 36.5347L25.9345 36.1335L25.6451 36.5213C25.723 36.6321 25.7813 36.7236 25.822 36.784L25.4327 37.0333L26.5953 37.4789L26.5886 36.288L26.2061 36.5356V36.5347ZM15.5293 33.9237C15.526 33.7886 15.4024 33.7533 15.2899 33.7533C15.1782 33.7533 14.7103 33.7642 14.4606 33.583C14.4441 33.5713 14.4286 33.5584 14.4141 33.5443C14.1569 33.3261 14.0105 32.9904 14.0105 32.6211C14.0105 31.917 14.602 31.3404 15.3322 31.3404C16.0616 31.3404 16.6505 31.917 16.6505 32.622C16.6505 32.7168 16.6319 32.8754 16.6319 32.8754C16.692 32.7646 16.9094 32.2753 16.9534 32.1855C16.8503 31.839 16.6364 31.5351 16.344 31.3197C16.0515 31.1043 15.6964 30.989 15.3322 30.9912C14.6663 30.9912 14.0917 31.3656 13.8176 31.9094C13.9208 31.2632 14.2533 30.6807 14.4877 30.4667C14.7695 30.2099 15.2467 30.1268 15.2467 30.1268C14.9336 30.1771 14.519 29.9891 14.057 29.5762C13.617 29.1876 13.3936 28.8452 13.3801 28.5607C13.4063 28.9627 13.3936 29.1876 13.2752 29.5158C13.117 29.9606 12.6812 30.7856 12.8377 31.7147C12.9223 32.225 13.3031 32.9845 13.9428 33.6056C14.0782 33.7449 14.1281 33.9514 14.145 34.0563C14.145 34.0563 15.0851 34.0563 15.3076 34.0781C15.3076 34.0781 15.5319 34.0563 15.5293 33.9237ZM15.3618 34.1822C15.2518 34.1654 14.899 34.1747 14.6874 34.204C14.4564 34.2418 14.1933 34.2854 14.1645 34.4096C14.1391 34.5288 14.2229 34.6514 14.3405 34.831C14.4116 34.9418 14.5842 34.8771 14.679 34.8427C14.7746 34.8091 15.3186 34.5263 15.405 34.4331C15.4921 34.3408 15.5293 34.2091 15.3626 34.1814L15.3618 34.1822ZM36.4801 23.7482C35.9157 23.4637 34.1667 22.8241 33.6768 22.6403C33.6954 22.6655 33.7123 22.6907 33.7293 22.7201L33.78 22.8065C34.3664 23.0701 34.8665 23.2245 35.54 23.6861C36.0875 24.0663 36.3845 24.5908 36.3845 24.5908C34.9934 24.1007 33.6768 22.971 33.6768 22.971C33.6424 23.0146 33.6045 23.0553 33.5634 23.0927C34.0457 23.4385 35.1821 24.5271 36.1543 25.3101C37.1283 26.0906 38.3053 25.9891 38.3053 25.9891C37.8619 24.6773 37.0445 24.0327 36.4801 23.7482ZM37.3838 22.3751C36.739 22.1846 35.2963 22.0168 34.7193 21.9035C34.7404 21.9437 34.759 21.9857 34.7777 22.0319C35.2549 22.1519 35.8802 22.3625 36.4513 22.5925C36.976 22.8082 37.4769 23.1498 37.4769 23.1498C36.464 23.1229 35.4419 22.7343 34.6786 22.4037C34.4943 22.5099 34.2873 22.5714 34.0745 22.5833C34.44 22.6773 35.0374 22.8586 36.9514 23.7331C38.868 24.606 39.8816 24.3038 39.8816 24.3038C39.1903 23.0231 38.0243 22.5665 37.3838 22.3751ZM27.2206 11.7019H27.472V11.3075H27.7876V11.0951H27.472V10.7577H27.2206V11.0951H26.9076V11.3066H27.2206V11.7019ZM35.3243 20.7696C35.3158 20.778 35.2143 20.8569 35.0543 20.9509C35.7456 21.0105 37.2154 21.0768 37.9736 21.4519C37.9736 21.4519 36.574 21.6315 34.7303 21.1128C34.5424 21.1968 34.3994 21.2396 34.1549 21.2648C34.2877 21.3487 34.4155 21.4544 34.5289 21.598C35.2033 21.7876 36.3515 21.9924 38.2494 22.125C40.1465 22.256 41.1576 21.9202 41.1576 21.9202C40.4976 21.5283 39.4442 21.1305 38.7317 20.997C38.0167 20.8627 36.1459 20.8778 35.3243 20.7696ZM13.1728 22.5833C12.9602 22.5718 12.7534 22.5102 12.5695 22.4037C11.8063 22.7343 10.7841 23.1229 9.77126 23.1506C9.77126 23.1506 10.2705 22.8082 10.796 22.5925C11.3404 22.3698 11.8989 22.1826 12.468 22.0319C12.4866 21.9886 12.5064 21.9458 12.5272 21.9035C11.9501 22.0159 10.51 22.1846 9.86519 22.376C9.22211 22.5673 8.05696 23.0231 7.36649 24.303C7.36649 24.303 8.38019 24.606 10.2942 23.7331C12.2073 22.8586 12.8081 22.6773 13.1728 22.5833ZM33.313 23.2539C33.1209 23.3346 32.9104 23.3624 32.7037 23.3344C32.6837 23.3337 32.6639 23.3309 32.6445 23.326C32.724 23.4293 32.7714 23.5317 32.7993 23.6282C33.2537 23.8791 34.5763 24.5262 35.1093 25.5745C35.1093 25.5745 34.2733 25.3185 32.8315 23.8288C32.8372 23.9467 32.8157 24.0644 32.7689 24.1729C33.2757 24.6555 33.6531 25.1196 34.4062 26.1335C35.1593 27.1465 36.3532 27.1876 36.3532 27.1876C36.239 26.3659 36.0088 25.7172 35.3691 25.0172C34.7303 24.3164 33.9146 23.676 33.313 23.2539ZM31.6799 34.4944C31.6225 34.4746 31.5614 34.4675 31.5009 34.4734C31.4404 34.4794 31.382 34.4983 31.3296 34.5288C31.278 34.5641 31.2957 34.6614 31.3296 34.7244C31.3693 34.7932 31.6173 35.0853 31.6867 35.1684C31.7276 35.2156 31.7785 35.2533 31.8359 35.2787C31.8932 35.3041 31.9555 35.3166 32.0183 35.3152C32.1064 35.3011 32.1927 35.2774 32.2756 35.2447C32.3585 35.2112 32.4321 35.1415 32.3974 34.998C32.3602 34.8528 31.8254 34.5473 31.6799 34.4944ZM30.6527 34.6396C30.5063 34.737 30.6467 35.0081 30.8583 35.1491C31.0698 35.2884 31.437 35.3245 31.5056 35.3312C31.5724 35.3396 31.613 35.2733 31.5868 35.2321C31.4846 35.1015 31.378 34.9744 31.267 34.8511C31.0216 34.5884 30.7948 34.5423 30.6527 34.6396ZM33.8672 28.5598C33.8562 28.8443 33.6286 29.1859 33.1903 29.5754C32.7266 29.9883 32.3128 30.1755 32.0006 30.1259C32.0006 30.1259 32.4786 30.2082 32.7596 30.4658C32.9965 30.6799 33.3248 31.2623 33.428 31.9086C33.287 31.6312 33.0708 31.3983 32.8037 31.2361C32.5366 31.0739 32.2292 30.9888 31.916 30.9904C31.5514 30.9873 31.1958 31.1022 30.903 31.3178C30.6103 31.5333 30.3964 31.8377 30.2939 32.1847C30.3362 32.2745 30.5562 32.7638 30.6154 32.8746C30.6154 32.8746 30.5968 32.716 30.5968 32.6211C30.5968 31.9161 31.1874 31.3387 31.916 31.3387C32.6453 31.3387 33.2385 31.9161 33.2385 32.6211C33.2385 32.9904 33.0887 33.3261 32.8323 33.5435C32.8163 33.5569 32.8044 33.5687 32.7875 33.5821C32.5379 33.7634 32.0683 33.7525 31.9583 33.7525C31.8457 33.7525 31.723 33.7877 31.7188 33.9229C31.7154 34.0555 31.9371 34.0773 31.9371 34.0773C32.1622 34.0555 33.1031 34.0555 33.1031 34.0555C33.1183 33.9506 33.17 33.7441 33.307 33.6048C33.9442 32.9837 34.3258 32.2241 34.4113 31.7139C34.5661 30.7848 34.1295 29.9598 33.9687 29.5149C33.852 29.1876 33.841 28.9618 33.8672 28.5598ZM30.4521 34.3593C30.1043 34.3761 29.7388 34.3576 29.364 34.3022C28.792 34.2175 28.1878 34.1033 27.582 33.891L27.3636 34.1881C28.0245 34.4323 28.6862 34.5565 29.3098 34.648C29.688 34.7051 30.0544 34.7244 30.4123 34.7135C30.4123 34.6245 30.48 34.5439 30.48 34.5439C30.4522 34.4866 30.4425 34.4222 30.4521 34.3593ZM32.559 34.2032C32.35 34.1738 31.9972 34.1637 31.8846 34.1814C31.7196 34.2082 31.7569 34.3408 31.8407 34.4331C31.9295 34.5255 32.4736 34.8083 32.5692 34.8419C32.6623 34.8763 32.834 34.9409 32.9093 34.8301C33.0253 34.6505 33.1082 34.528 33.0836 34.4088C33.0549 34.2846 32.7909 34.2409 32.559 34.2032ZM38.7833 19.0356C36.8 19.1615 35.48 19.6122 34.5213 19.8942C34.6626 19.9446 34.7768 20 34.8724 20.0537C37.0174 19.4628 38.5447 19.77 38.5447 19.77C37.9186 19.9739 36.1679 20.2375 35.1153 20.2316C35.221 20.3281 35.2896 20.4246 35.348 20.5111C36.2466 20.5027 37.4777 20.7058 38.9932 20.3852C40.5086 20.0663 41.8329 19.1615 41.8329 19.1615C41.2913 19.0247 40.2387 18.9433 38.7833 19.0356ZM23.0229 11.7263C22.9628 11.2982 22.8037 10.2676 22.632 10.14C22.5431 10.0754 22.4272 10.0821 22.2969 10.1216C22.164 10.1618 22.0236 10.2475 22.0176 10.3599C22.0092 10.5488 22.2317 11.1128 22.56 11.8748C22.7547 11.7791 22.8562 11.7573 23.0229 11.7263ZM8.99873 22.125C10.8958 21.9916 12.0466 21.7868 12.7218 21.5963C12.8256 21.465 12.9516 21.3525 13.0941 21.2639C12.8487 21.2387 12.7049 21.1968 12.5187 21.1128C10.6741 21.6307 9.27542 21.4511 9.27542 21.4511C10.0327 21.0768 11.5033 21.0096 12.1938 20.95C12.0989 20.8967 12.0083 20.8361 11.923 20.7687C11.1023 20.8778 9.23142 20.8619 8.51811 20.9953C7.8048 21.1296 6.75134 21.5275 6.09049 21.9202C6.09049 21.9202 7.10334 22.2568 8.99873 22.125ZM23.1642 11.7103C23.2471 11.7011 23.3334 11.6969 23.4206 11.6935C23.3681 11.2823 23.2209 10.6016 23.1371 10.3339C23.05 10.0636 22.94 9.86977 22.7589 9.82193C22.7589 9.82193 22.9002 10.1979 22.9789 10.584C23.055 10.9709 23.1134 11.341 23.165 11.7103H23.1642ZM22.8562 12.6159C22.8562 12.6159 22.4822 12.9936 22.1183 13.0775C22.1183 13.0775 22.2673 12.6982 22.8562 12.6159ZM22.6641 13.044C22.9053 12.9046 23.1126 12.5891 23.1583 12.4422C22.9543 12.4145 22.4356 12.4699 22.1175 12.6906C21.8906 12.8395 21.7076 13.0454 21.587 13.2873C21.587 13.2873 22.1556 13.3293 22.6641 13.044ZM19.7762 11.7011H20.03V11.3066H20.3431V11.0943H20.03V10.7569H19.7762V11.0943H19.4597V11.3058H19.7762V11.7003V11.7011ZM24.3945 12.6159C24.9817 12.6982 25.1323 13.0775 25.1323 13.0775C24.766 12.9936 24.3945 12.6159 24.3945 12.6159ZM24.0899 12.4422C24.1381 12.5891 24.3454 12.9046 24.5849 13.044C25.0926 13.3293 25.662 13.2873 25.662 13.2873C25.5428 13.045 25.3598 12.8392 25.1323 12.6915C24.8133 12.4699 24.2955 12.4145 24.0907 12.4422H24.0899ZM26.8585 12.9592C26.9516 12.9424 26.9338 12.9491 27.1656 12.9306C27.1208 12.7267 27.0387 12.1996 26.9093 12.0821C26.7857 11.9705 26.6038 11.9604 26.5133 11.9646C26.4236 11.9705 26.3271 12.0611 26.366 12.1786C26.4024 12.3003 26.8035 12.8836 26.8585 12.9592ZM23.4959 9.70947H23.7514V9.31249H24.0653V9.10183H23.7523V8.76611H23.4959V9.10183H23.1828V9.31165H23.4959V9.70947ZM24.689 11.8748C25.0198 11.1128 25.239 10.5488 25.2305 10.3608C25.2254 10.2475 25.0858 10.1618 24.9555 10.1216C24.8218 10.0821 24.7033 10.0754 24.617 10.14C24.4461 10.2676 24.2853 11.2982 24.2261 11.7263C24.3953 11.7573 24.4969 11.7791 24.689 11.8748ZM24.0848 11.7103C24.1356 11.341 24.1948 10.9718 24.271 10.584C24.3496 10.1979 24.491 9.8211 24.491 9.8211C24.3073 9.86977 24.1982 10.0645 24.1136 10.3331C24.0273 10.6016 23.8826 11.2831 23.8293 11.6927C23.9156 11.6969 24.001 11.7011 24.0848 11.7103ZM20.0833 12.9306C20.3152 12.9491 20.2974 12.9432 20.3896 12.9592C20.4438 12.8836 20.8449 12.3003 20.8846 12.1786C20.921 12.0611 20.8254 11.9705 20.734 11.9655C20.6443 11.9604 20.4607 11.9705 20.3397 12.0821C20.2111 12.1996 20.129 12.7267 20.0842 12.9298L20.0833 12.9306ZM12.869 16.8199L13.0459 16.8912C13.2388 16.9693 13.4292 17.0557 13.5959 17.1363C13.3983 16.9333 13.2251 16.7083 13.0797 16.4657C12.9879 16.3087 12.9176 16.1402 12.8707 15.9647L12.8166 15.7817C12.2446 15.4107 11.6548 14.8056 11.2512 14.4472C10.8459 14.0889 10.2705 13.3679 9.95403 12.4665C10.3323 12.7032 10.675 12.9978 11.0794 13.4846C11.6692 14.1971 12.286 14.9668 12.8039 15.6055L12.7861 15.373C12.7827 15.2664 12.7861 15.1657 12.7886 15.0733L12.787 15.0473C12.3503 14.1577 11.6421 13.0633 11.0896 12.2911C10.6411 11.6616 9.61303 10.5034 8.89803 9.91593C8.73134 10.6411 8.46649 11.9965 9.10111 13.164C9.73403 14.3306 11.2935 16.0091 12.869 16.8199ZM12.5458 17.932C12.4487 17.8016 12.3564 17.6678 12.2691 17.5308C11.4949 17.1665 11.2977 17.0524 10.9153 16.8476C10.4003 16.5647 9.90883 16.2417 9.44549 15.8816C8.99873 15.5391 8.44449 14.8409 8.44449 14.8409C9.04611 15.0381 9.65111 15.4586 10.0547 15.7532C10.5776 16.1359 11.4187 16.7519 12.1278 17.3058L11.8706 16.5773C11.0422 15.9487 9.84826 14.8207 9.45057 14.4372C9.05542 14.0511 7.52726 12.7729 6.82326 12.6369C6.82326 12.6369 6.61934 14.083 7.34365 15.0532C8.0688 16.0226 10.4135 17.5878 12.5458 17.932ZM11.9019 20.5111C11.9594 20.4255 12.028 20.3281 12.1329 20.2316C11.0811 20.2375 9.33211 19.9739 8.70596 19.77C8.70596 19.77 10.2316 19.4628 12.3757 20.0545C12.4722 20 12.5873 19.9454 12.7294 19.8942C11.7673 19.6122 10.4499 19.1615 8.4648 19.0356C7.00942 18.9433 5.96019 19.0247 5.41611 19.1615C5.41611 19.1615 6.74203 20.0663 8.2558 20.3852C9.77211 20.705 11.0024 20.5027 11.9019 20.5111ZM15.366 18.1527C15.1706 17.9093 15.0174 17.5711 14.9057 17.1741C14.8135 16.8501 14.6036 16.0469 14.4801 15.8396C14.3566 15.6315 13.9081 14.9038 13.0332 14.6772C13.0332 14.6772 12.8005 15.6264 13.2405 16.3751C13.6187 17.0238 14.398 17.7045 15.366 18.1527ZM7.68296 18.3231C9.11211 18.8988 11.7673 19.2295 13.1161 19.8002C12.4891 19.5106 12.3757 18.9861 12.3706 18.9592C11.6133 18.8182 11.2089 18.7696 10.2756 18.48C9.3338 18.1888 8.7618 17.822 8.7618 17.822C9.16796 17.8598 9.64773 17.895 10.3001 18.0721C11.1226 18.2945 11.5448 18.438 12.4519 18.7746C12.6761 18.6294 12.9452 18.5597 13.1863 18.5522C12.5365 18.271 10.6817 17.5979 9.46326 17.2362C8.42249 16.9256 7.07119 16.5312 5.40088 16.5748C5.40088 16.5748 5.75373 17.5442 7.68296 18.3231ZM19.42 12.9592C19.5139 12.9424 19.4961 12.9491 19.7271 12.9306C19.6831 12.7267 19.6002 12.1996 19.4716 12.0821C19.3497 11.9705 19.167 11.9604 19.0781 11.9646C18.985 11.9705 18.8911 12.0611 18.9292 12.1786C18.9647 12.3003 19.3675 12.8836 19.42 12.9592ZM15.7578 18.2886C16.164 18.6025 16.3366 18.9148 16.3366 18.9148C15.366 18.3046 14.7534 18.6848 14.7534 18.6848C14.9413 19.6743 15.7908 19.8564 15.7908 19.8564C14.8727 19.7557 14.4987 20.2031 14.4987 20.2031C14.8372 20.9282 15.7231 20.9626 15.7231 20.9626C14.9413 21.5577 15.0792 21.9849 15.0792 21.9849C15.9448 22.1838 16.4212 21.7708 16.4212 21.7708C15.7578 22.6135 16.2689 23.2388 16.2689 23.2388C17.1523 23.1246 17.4433 22.4456 17.4433 22.4456C17.3562 23.2094 17.748 23.4049 17.748 23.4049C18.2243 23.2539 18.4638 22.8443 18.4638 22.8443C18.7185 23.3722 19.3133 23.4721 19.3133 23.4721C19.5697 22.9912 19.3836 22.5472 19.3836 22.5472C19.8946 22.6983 20.0478 22.3978 20.0478 22.3978C19.722 22.0503 19.5367 21.5081 19.5367 21.5081C18.6508 21.8531 17.5601 21.6726 17.253 21.3252C16.9509 20.9786 17.4594 20.0881 17.7327 19.4603C18.0035 18.8333 17.6464 18.3877 17.3257 18.1728C15.878 17.2152 15.35 16.5052 15.0267 15.8136C14.855 17.1002 15.35 17.9731 15.7578 18.2886ZM17.3333 11.4292C17.5263 11.3813 17.7843 11.1841 17.9933 11.023C18.2006 10.8585 18.3369 10.8719 18.3369 10.8719C18.2727 10.8183 18.197 10.78 18.1156 10.7601C18.0342 10.7401 17.9492 10.739 17.8673 10.7569C17.478 10.8324 17.016 11.2689 17.016 11.2689C16.9962 11.3296 16.9924 11.3943 17.005 11.4569C17.099 11.4653 17.1404 11.4795 17.3333 11.4292ZM17.8943 11.9176C17.8038 12.0863 17.6693 12.2987 17.7293 12.6008C17.7996 12.9407 18.3656 13.07 18.3656 13.07C18.2624 12.9676 18.1744 12.8417 18.166 12.7217C18.149 12.4774 18.2971 12.2768 18.3978 12.1233C18.4976 11.9705 18.6897 11.5676 18.6923 11.4082C18.6965 11.2521 18.5484 11.0741 18.3758 10.9055C18.3978 10.9827 18.3656 11.0985 18.3056 11.2386C18.2387 11.3922 17.9781 11.759 17.8943 11.9185V11.9176ZM16.5405 13.2647C16.5405 13.1975 16.543 13.1338 16.5532 13.07C16.5769 12.9046 16.5786 12.767 16.5608 12.6503C16.3349 12.7343 16.1817 12.7871 15.8712 13.2731C15.8712 13.2731 16.3679 12.9776 16.5405 13.2647ZM16.7393 13.0943C16.6953 13.4006 16.7605 13.7288 16.9737 14.0343C17.0086 13.7715 17.073 13.5133 17.1658 13.2647C17.2927 12.9332 17.2191 12.4531 17.0651 12.1627C16.9187 11.8815 16.8383 11.618 16.8629 11.3259C16.8629 11.3259 16.571 11.4216 16.4009 11.524C16.3738 11.8597 16.5777 12.1996 16.6742 12.3901C16.7884 12.6168 16.7647 12.9139 16.7393 13.0943ZM18.7066 13.7036C18.798 13.9336 19.1695 14.2055 19.1695 14.2055C19.053 13.9611 18.9836 13.6972 18.9647 13.4275C18.5924 13.3167 18.6136 13.4753 18.7066 13.7036ZM18.5882 25.7658C18.469 25.6158 18.3695 25.4514 18.292 25.2765C18.4443 26.4767 18.4968 27.2866 19.1661 28.063C19.1661 28.063 19.5689 27.5443 19.31 26.2795C19.1983 26.2493 19.0705 26.1956 18.9503 26.1175C18.9503 26.1175 19.1026 26.6311 19.0053 27.1456C19.0053 27.1456 18.7667 26.9778 18.5882 25.7658ZM20.4353 15.8396C20.5775 15.9521 20.6985 16.1258 20.7543 16.4196C20.8356 16.83 21.0826 17.2706 21.1571 17.404L21.1876 17.3973C21.1427 17.1162 21.323 16.5303 21.372 16.4456C21.372 16.4456 21.108 16.2861 20.987 16.1216C20.8982 15.9991 20.7433 15.7943 20.3101 15.5341C20.1847 15.5513 20.0608 15.578 19.9395 15.6138C19.9395 15.6138 20.2695 15.707 20.4353 15.8405V15.8396ZM25.1408 30.2653C25.3693 30.5372 25.8617 31.3236 26.6216 31.3312C26.6216 31.3312 26.509 30.9619 26.1723 30.7487C25.8338 30.5372 25.404 30.2653 25.2093 29.9379C25.0173 29.6115 24.8125 29.4595 24.6729 29.3991C24.6433 29.6383 24.524 29.859 24.3937 30.0898C24.3937 30.0898 24.8311 32.0445 26.4109 32.1965C26.4109 32.1965 26.377 31.7911 25.9108 31.4814C25.4412 31.1742 24.7431 30.6941 24.793 29.9681C24.793 29.9681 24.9174 29.9933 25.1408 30.2653ZM18.9292 29.7642C18.9292 29.7642 19.299 29.52 19.7043 29.3697C19.9683 29.2699 20.0977 29.003 20.3778 28.7352C20.063 28.846 19.3514 28.956 19.0561 29.0407C18.7591 29.1272 18.5433 29.2741 18.2599 29.5754C18.2599 29.5754 18.6965 29.6945 18.9292 29.7642ZM21.2476 16.0906C21.2815 15.6743 21.0725 15.43 20.767 15.2202C20.5267 15.0498 20.025 14.8979 19.9234 14.8702C20.1282 15.1615 20.5174 15.4913 20.7315 15.6105C21.004 15.759 21.2476 16.0906 21.2476 16.0906ZM23.6245 12.7166C23.6753 12.7169 23.7241 12.6971 23.7603 12.6617C23.7964 12.6263 23.817 12.5782 23.8174 12.5278C23.8172 12.5029 23.812 12.4783 23.8022 12.4553C23.7924 12.4324 23.7781 12.4116 23.7602 12.3942C23.7423 12.3767 23.7211 12.3629 23.6978 12.3536C23.6745 12.3443 23.6496 12.3396 23.6245 12.3398C23.5162 12.3398 23.4273 12.4237 23.4273 12.5278C23.4282 12.5788 23.4495 12.6275 23.4864 12.663C23.5234 12.6986 23.573 12.7173 23.6245 12.7166ZM26.4777 13.8127C26.9803 13.8748 27.5693 13.8497 27.5693 13.8497C27.5371 14.0301 27.4618 14.1661 27.329 14.25C27.2976 13.8572 26.4777 13.853 26.4777 13.853V13.8127ZM24.8802 14.7217C25.409 14.6109 25.5766 14.3247 25.6671 14.2139C25.6671 14.2139 25.5977 14.4884 25.629 14.5983C25.629 14.5983 25.8617 14.5849 26.0436 14.365C26.0436 14.365 25.9108 14.5849 25.8837 14.7712C25.8837 14.7712 26.0293 14.788 26.2865 14.6369C26.2865 14.6369 26.2349 14.7746 26.2256 14.9332C26.2256 14.9332 26.8331 14.7435 27.1301 14.4749C27.1301 14.4749 27.1343 14.6596 27.12 14.7653C27.12 14.7653 28.0643 14.673 28.1353 13.3343C28.1353 13.3343 27.5066 13.5618 26.8746 13.5324C26.2433 13.5014 25.0807 13.4896 24.7025 13.3108C24.7025 13.3108 24.7651 13.5416 25.0663 13.6734C25.0663 13.6734 24.9098 13.6734 24.7533 13.8052C24.7533 13.8052 24.8446 13.9949 25.1112 14.0947C25.1112 14.0947 24.6314 14.579 24.1161 14.5454C24.1161 14.5454 24.3505 14.8316 24.8802 14.7217ZM27.3459 13.2957C27.6996 13.2957 27.9864 13.2471 27.9864 13.1858C27.9864 13.1212 27.6996 13.0733 27.3459 13.0733C26.9939 13.0733 26.7062 13.1212 26.7062 13.1858C26.7062 13.2471 26.9939 13.2957 27.3459 13.2957ZM27.0768 22.543C27.07 22.5346 27.0641 22.5304 27.0607 22.5228L27.0294 22.564C26.9159 22.6719 26.7845 22.7596 26.641 22.8233C26.641 22.8233 26.3601 23.3395 26.7003 23.9631C27.037 24.5883 27.3222 25.2245 27.461 25.5778C27.461 25.5778 27.642 25.5518 27.8434 24.5757C27.9813 23.9144 28.154 23.7482 28.3325 23.5208C28.1353 23.6164 27.9796 23.645 27.9644 23.6483L27.8307 23.6701L27.7673 23.5526C27.6639 23.3625 27.6109 23.1493 27.6133 22.9333C27.6133 22.8745 27.6158 22.8174 27.6217 22.7679C27.307 22.7746 27.1394 22.621 27.0768 22.543ZM27.6412 11.9898C27.6412 11.8463 27.461 11.8035 27.3679 11.8035H27.3171C27.224 11.8035 27.0446 11.8455 27.0446 11.9898C27.0446 12.135 27.2782 12.485 27.3391 12.6394H27.345C27.4076 12.485 27.6412 12.135 27.6412 11.9898ZM22.0346 15.8841C21.7892 15.6105 21.4761 14.9332 21.4761 14.9332C21.3763 14.9231 21.2586 14.8937 21.1639 14.8702C21.1698 14.9567 21.1664 15.1321 21.1664 15.1321C21.0623 15.1069 20.7476 15.0146 20.7476 15.0146C21.1207 15.2681 21.2366 15.3612 21.416 15.54C21.7342 15.8623 21.9127 16.2635 21.9127 16.2635C22.049 16.0343 22.0346 15.8841 22.0346 15.8841ZM21.4761 28.7445C21.1207 28.8469 21.0403 29.2396 21.0403 29.2396C21.1969 29.311 21.2646 29.4956 21.5819 29.4956C21.9237 29.4956 22.3155 29.1624 22.582 28.7117C22.7707 28.3886 22.8587 27.7424 22.8587 27.6274C22.5863 28.1083 21.9144 28.6177 21.4761 28.7445ZM23.2344 20.6009C23.3833 20.8208 23.4933 20.8661 23.6236 20.9257C23.7523 20.8661 23.8606 20.8208 24.0112 20.6009C24.1254 20.428 24.2354 20.1099 24.1736 19.8816C24.0958 19.6013 23.941 19.4897 23.8453 19.3143C23.7692 19.3839 23.7218 19.4385 23.627 19.4905H23.6228C23.5272 19.4385 23.479 19.3839 23.4003 19.3143C23.3038 19.4905 23.1506 19.6013 23.0703 19.8816C23.0102 20.1099 23.1185 20.428 23.2344 20.6009ZM23.6203 19.2387H23.627C23.803 19.091 23.9604 18.8711 24.0112 18.7419C24.0586 18.6126 24.0713 18.4229 23.9545 18.2769C23.814 18.1032 23.638 17.9093 23.627 17.7507H23.6186C23.605 17.9093 23.4307 18.1032 23.2903 18.2769C23.1735 18.4229 23.1853 18.6126 23.237 18.7419C23.2852 18.8711 23.4434 19.091 23.6203 19.2387ZM21.3356 31.4814C20.8677 31.7911 20.8381 32.1965 20.8381 32.1965C22.4153 32.0445 22.852 30.0898 22.852 30.0898C22.7216 29.859 22.6032 29.6383 22.5702 29.4C22.4348 29.4604 22.23 29.6115 22.0354 29.9371C21.8408 30.2653 21.4118 30.5372 21.0742 30.7487C20.7374 30.961 20.6232 31.3303 20.6232 31.3303C21.3873 31.3236 21.8789 30.5372 22.1023 30.2653C22.3273 29.9933 22.4517 29.9681 22.4517 29.9681C22.5025 30.6941 21.8036 31.1742 21.3356 31.4814ZM26.4769 15.2202C26.1748 15.43 25.9658 15.6734 25.998 16.0906C25.998 16.0906 26.2442 15.759 26.5141 15.6105C26.7307 15.4921 27.12 15.1615 27.3222 14.8702C27.224 14.8979 26.7214 15.0498 26.4769 15.2202ZM25.7703 14.9332C25.7703 14.9332 25.4556 15.6105 25.2119 15.8849C25.2119 15.8849 25.1975 16.0343 25.3337 16.2626C25.3337 16.2626 25.5114 15.8623 25.8287 15.5408C26.0098 15.3612 26.1249 15.2681 26.498 15.0154C26.498 15.0154 26.1833 15.1061 26.08 15.1321C26.08 15.1321 26.0733 14.9558 26.0843 14.8702C25.9895 14.8937 25.8727 14.9231 25.7712 14.9332H25.7703ZM24.0019 10.1526C24.0019 9.94867 23.8326 9.78333 23.6236 9.78333C23.4121 9.78333 23.2429 9.94867 23.2429 10.1526C23.2429 10.412 23.5754 11.0045 23.6169 11.2806H23.6296C23.6719 11.0036 24.0019 10.412 24.0019 10.1526ZM26.9363 15.535C26.5048 15.7943 26.3466 15.9991 26.2594 16.1208C26.1401 16.2861 25.877 16.4456 25.877 16.4456C25.9243 16.5303 26.1063 17.117 26.0606 17.3973L26.0885 17.404C26.163 17.2698 26.4126 16.83 26.4921 16.4196C26.5471 16.1258 26.6715 15.9521 26.812 15.8405C26.9761 15.707 27.307 15.6138 27.307 15.6138C27.1857 15.5781 27.0617 15.5517 26.9363 15.535ZM25.8228 17.8564C25.7703 18.0419 25.7551 18.3247 25.8228 18.5925C25.8753 18.7964 26.0039 19.0616 26.2493 19.2102C26.4608 19.3386 26.96 19.368 27.1513 18.9097C27.1513 18.9097 26.2383 18.9777 25.8228 17.8564ZM20.998 19.2102C21.2434 19.0616 21.3703 18.7964 21.4228 18.5925C21.4836 18.3508 21.4836 18.0981 21.4228 17.8564C21.0082 18.9777 20.0943 18.9097 20.0943 18.9097C20.2839 19.368 20.7856 19.3386 20.998 19.2102ZM17.1006 23.1129C16.861 23.2804 16.5829 23.386 16.2917 23.42C15.2611 24.3458 15.3804 24.7243 15.3804 24.7243C15.8991 24.8007 16.3662 24.5438 16.719 24.2744C16.9492 24.0931 17.1108 23.8439 17.1641 23.6164C17.2132 23.3898 17.1455 23.2304 17.1006 23.1129ZM12.6016 22.2081C12.6016 22.2081 12.9604 22.5044 13.6145 22.376C14.1696 22.2643 14.651 22.0352 14.9286 21.6458C15.0132 21.5224 15.0724 21.3302 15.2543 21.1355C14.8456 21.0619 14.4264 21.0673 14.0198 21.1515C13.4596 21.253 12.8885 21.3806 12.6016 22.2081ZM14.651 18.532C14.6663 18.5236 14.8465 18.4145 15.1553 18.391C14.8964 18.203 14.2736 17.6986 13.837 17.4569C13.3547 17.1959 12.5593 16.8501 12.1549 16.7998C12.1549 16.7998 12.5356 17.7649 12.9756 18.1569C13.4368 18.5597 13.7575 18.7108 14.5444 18.5983L14.651 18.532ZM15.691 34.0773C15.614 34.1881 15.6681 34.3081 15.8847 34.4088C16.0996 34.507 16.5066 34.5884 16.5896 34.4818C16.6674 34.3702 16.5566 34.1881 16.0996 34.0723C16.0294 34.0555 15.7493 33.9883 15.691 34.0773ZM12.0423 20.6294C12.0423 20.6294 12.5923 21.0768 13.221 21.091C13.8531 21.1112 14.437 20.9332 14.6908 20.752C14.5368 20.6218 14.4127 20.4604 14.327 20.2786L14.2821 20.1762C13.7956 19.9832 13.2904 19.885 12.7929 20.0637C12.2979 20.2442 12.1659 20.4498 12.0423 20.6294ZM12.5551 18.9257C12.5551 18.9257 12.6736 19.5333 13.4825 19.7423C14.2457 19.9353 14.5266 19.885 14.8363 19.7843C14.921 19.7532 15.014 19.7238 15.1198 19.7028C14.8544 19.4719 14.6698 19.1633 14.5926 18.8216C14.3667 18.872 13.8379 18.872 13.6052 18.788C13.37 18.6999 12.913 18.6974 12.556 18.9248L12.5551 18.9257ZM24.5062 34.8536C24.6365 35.0475 24.8937 35.4252 25.1501 35.7995L25.4378 35.4092L24.6788 34.2972L24.4639 33.9825L23.726 35.2724L23.9968 35.7424C24.2151 35.3664 24.4097 35.0282 24.5062 34.8536ZM32.8518 33.3513C32.6758 33.1583 32.4558 33.0299 32.2553 32.9904C31.6824 32.878 31.4827 33.2456 31.1519 33.3597C30.8236 33.473 30.6103 33.2456 30.2973 32.512C29.9833 31.7768 29.4325 30.7898 29.1025 30.4222C28.9942 30.3013 28.6473 30.3022 28.5914 30.3013C28.5373 30.3013 28.4848 30.3198 28.4806 30.3802C28.478 30.439 28.478 30.7688 28.478 30.7688C28.3646 30.6933 28.1083 30.533 27.9805 30.5187C27.8485 30.5003 27.56 30.8251 27.6945 30.8494C29.1313 31.1222 29.8183 32.6539 30.0984 33.2313C30.244 33.5276 30.326 33.8482 30.4013 34.1553C30.816 34.1117 31.1146 34.0471 31.4032 33.8532C31.6883 33.6576 32.2003 33.5494 32.4727 33.5494C32.7393 33.5494 32.801 33.4411 32.8518 33.3513ZM22.6311 12.0754C22.6311 12.187 23.0762 12.281 23.6236 12.281C24.1728 12.281 24.617 12.187 24.617 12.0754C24.617 11.9621 24.1728 11.8698 23.6236 11.8698C23.0762 11.8698 22.6311 11.9621 22.6311 12.0754ZM24.5764 32.6043C24.3141 32.3719 23.7193 31.5527 23.6253 31.2942H23.6203C23.5289 31.5527 22.9315 32.3719 22.6675 32.6035C22.4069 32.8385 21.7697 33.4571 21.4304 33.7634C21.4304 33.7634 22.3993 33.5309 22.9433 33.0517C22.9433 33.0517 23.3326 33.2699 23.616 33.2699H23.6296C23.9122 33.2699 24.3006 33.0517 24.3006 33.0517C24.8463 33.5309 25.8169 33.7634 25.8169 33.7634C25.4759 33.4571 24.8396 32.8385 24.5764 32.6043ZM23.6287 33.4621H23.6169C23.4011 33.4621 23.1989 33.3807 23.0855 33.3312C23.1989 33.5662 23.4138 33.9304 23.6203 34.079H23.6236C23.8301 33.9304 24.0459 33.567 24.161 33.3312C24.0459 33.3807 23.8428 33.4621 23.6287 33.4621ZM17.148 33.2296C17.429 32.653 18.1169 31.1205 19.5511 30.8477C19.6865 30.8225 19.3954 30.4986 19.2685 30.517C19.139 30.5313 18.8826 30.6916 18.771 30.7671C18.771 30.7671 18.771 30.4373 18.7667 30.3786C18.7633 30.3181 18.7092 30.2997 18.6533 30.2997C18.5983 30.3005 18.2514 30.2997 18.1406 30.4205C17.8148 30.7881 17.2623 31.7751 16.95 32.5103C16.637 33.2439 16.4246 33.4713 16.0937 33.358C15.7637 33.2439 15.5657 32.8763 14.992 32.9887C14.7923 33.0282 14.5706 33.1566 14.3972 33.3496C14.4454 33.4378 14.5072 33.5477 14.7771 33.5477C15.0445 33.5477 15.5573 33.656 15.8433 33.8515C16.131 34.0454 16.433 34.11 16.8443 34.1537C16.9204 33.8465 17.0042 33.5259 17.148 33.2296ZM19.9006 13.2949C20.2551 13.2949 20.5394 13.2462 20.5394 13.185C20.5394 13.1203 20.2551 13.0725 19.9006 13.0725C19.5477 13.0725 19.2626 13.1203 19.2626 13.185C19.2626 13.2462 19.5477 13.2949 19.9006 13.2949ZM20.767 13.8119V13.8522C20.767 13.8522 19.9505 13.8564 19.9183 14.2492C19.7863 14.1652 19.7093 14.0293 19.6789 13.8488C19.6789 13.8488 20.2686 13.874 20.767 13.8119ZM20.1282 14.7645C20.1138 14.6587 20.1172 14.4741 20.1172 14.4741C20.4133 14.7427 21.0226 14.9323 21.0226 14.9323C21.015 14.8314 20.9934 14.732 20.9583 14.6369C21.218 14.7863 21.3644 14.7704 21.3644 14.7704C21.3365 14.584 21.2053 14.3641 21.2053 14.3641C21.3856 14.584 21.6174 14.5975 21.6174 14.5975C21.6504 14.4875 21.5819 14.2131 21.5819 14.2131C21.6707 14.3239 21.84 14.6101 22.3671 14.7208C22.8951 14.8308 23.1329 14.5446 23.1329 14.5446C22.6167 14.5782 22.1344 14.0939 22.1344 14.0939C22.4035 13.994 22.494 13.8043 22.494 13.8043C22.34 13.6726 22.181 13.6726 22.181 13.6726C22.4822 13.5408 22.5431 13.31 22.5431 13.31C22.1683 13.4888 21.0031 13.5005 20.3736 13.5316C19.7415 13.561 19.1103 13.3335 19.1103 13.3335C19.1822 14.6722 20.1282 14.7645 20.1282 14.7645ZM14.5224 23.1557C14.7918 23.1291 15.0532 23.0498 15.2915 22.9225C15.5299 22.7952 15.7404 22.6222 15.911 22.4137C15.9236 22.3541 15.9516 22.2417 15.9786 22.1661C15.7375 22.2266 15.4202 22.2501 15.0343 22.1611L14.9294 22.1359L14.8973 22.0386C14.4285 22.4087 13.8734 22.47 13.6813 22.8065C13.6813 22.8065 13.9149 23.2228 14.5224 23.1557ZM20.201 11.9881C20.201 11.8455 20.0224 11.8026 19.9302 11.8026H19.8786C19.7872 11.8026 19.6053 11.8446 19.6053 11.989C19.6053 12.1342 19.8396 12.4841 19.9014 12.6386H19.9065C19.9708 12.4841 20.201 12.1333 20.201 11.9881ZM19.4174 23.6693L19.282 23.6475C19.2685 23.6433 19.1103 23.6156 18.9131 23.5199C19.0942 23.7474 19.2668 23.9135 19.4039 24.5749C19.6053 25.551 19.7863 25.577 19.7863 25.577C19.9226 25.2245 20.2069 24.5866 20.5462 23.9622C20.8846 23.3386 20.6054 22.8225 20.6054 22.8225C20.4108 22.7268 20.327 22.6689 20.2196 22.5623L20.1857 22.522C20.1823 22.5304 20.1756 22.5346 20.1722 22.5421C20.1062 22.6202 19.9395 22.7738 19.6256 22.7671C19.6612 23.0377 19.61 23.3126 19.4792 23.5526L19.4174 23.6693ZM14.7043 26.5774C15.229 25.6752 15.5513 25.107 15.7705 24.9056C15.63 24.9224 15.4879 24.9224 15.3508 24.9005L15.2374 24.8838C14.9133 25.452 14.2745 26.3844 13.6991 26.71C13.6991 26.71 13.5519 25.9547 15.2442 24.4238C15.267 24.3617 15.3009 24.2895 15.3491 24.2106C15.1943 24.266 15.0174 24.2954 14.8203 24.2921L14.7983 24.2946C14.1493 24.9232 12.781 26.3357 12.9088 27.8666C12.9088 27.8666 14.1814 27.4813 14.7035 26.5766L14.7043 26.5774ZM16.1183 23.3529C16.1081 23.3361 15.9431 23.1238 15.8991 22.7889C15.6182 22.8871 15.421 22.94 15.0106 23.2085C14.4031 23.6013 14.6519 24.0982 14.6519 24.0982C15.5615 24.2174 15.9981 23.4922 16.1183 23.3529ZM23.1202 24.2174C23.1879 24.005 23.4798 23.6122 23.4866 22.971C23.4874 22.7285 23.0423 22.3348 22.918 22.0226C22.5033 22.381 22.4466 23.102 22.4949 23.3428C22.5888 23.8103 23.121 24.2174 23.121 24.2174H23.1202ZM14.1831 29.4428C14.6713 29.8733 15.1697 30.1108 15.4329 29.8322C15.713 29.5342 15.41 29.0919 14.9235 28.6605C14.4403 28.2291 13.9614 27.969 13.6796 28.2686C13.3936 28.5674 13.6991 29.0097 14.1831 29.4428ZM16.4034 27.3848C16.763 26.8124 16.8536 25.6643 16.9306 24.5472C16.9239 24.4786 16.9205 24.4097 16.9204 24.3407C16.8933 24.3676 16.862 24.3911 16.8358 24.4146C16.763 24.4696 16.6882 24.5219 16.6116 24.5715C16.6116 24.5715 16.4508 26.4264 15.9194 27.0449C15.7502 26.355 16.1606 25.4612 16.3755 24.7092C16.3007 24.7463 16.2242 24.7799 16.1462 24.8099C15.5302 25.7877 14.7983 27.1901 15.4041 28.2375C15.4041 28.2375 16.0531 27.9463 16.4034 27.3848ZM20.1764 29.2145C20.1764 29.2145 20.5927 29.3185 20.8576 29.2019C20.8576 29.2019 20.9532 28.8158 21.2502 28.6429C21.3162 28.606 21.5235 28.5456 21.7156 28.4516C21.6428 28.3953 21.5777 28.3592 21.4905 28.2594C21.4905 28.2594 21.1537 28.3802 20.8753 28.5623C20.5961 28.7436 20.3236 29.055 20.1764 29.2145ZM22.2647 17.4082C22.3849 17.0121 22.1276 16.6294 22.032 16.4145C21.8154 16.5841 21.6386 16.7653 21.609 17.2353C21.5819 17.7053 21.7105 18.3163 21.7105 18.3163C21.8755 17.9773 22.1454 17.8061 22.2647 17.4082ZM23.6262 15.8665H23.6203C23.5187 15.911 23.1024 16.125 23.072 16.4288C23.0423 16.7335 23.6 17.2949 23.6169 17.5283H23.6287C23.6465 17.2949 24.2033 16.7335 24.1745 16.4288C24.1466 16.125 23.7294 15.911 23.6262 15.8665ZM21.6834 14.725C21.7951 15.1136 21.988 15.4804 22.1776 15.7658C22.3485 16.0293 22.4568 16.4523 22.4416 16.5966C22.4416 16.5966 22.6963 16.0494 22.5676 15.6625C22.4644 15.3637 22.1894 14.9139 21.6834 14.725ZM26.1765 23.6433C26.0606 23.8917 25.7813 24.136 25.7187 24.3525C25.6426 24.6076 25.6197 24.7688 25.7458 25.0659C25.8609 25.3252 25.9946 25.478 26.042 25.6366C26.042 25.6366 26.4058 25.1775 26.465 24.9861C26.5293 24.7973 26.5454 24.4834 26.4735 24.2853C26.3973 24.0848 26.2645 23.8263 26.1765 23.6433ZM24.0137 17.441C23.946 17.7221 24.0095 17.9101 24.1406 18.0822C24.271 18.2517 24.4926 18.4372 24.7008 18.7956C24.7008 18.7956 24.9377 18.4901 24.9673 18.3306C24.9961 18.1703 24.9496 17.7893 24.8971 17.6315C24.8463 17.4687 24.6407 16.9542 24.4706 16.4296C24.4706 16.4296 24.0831 17.1556 24.0137 17.441ZM27.0514 22.2895C26.9347 22.1923 26.8245 22.0877 26.7214 21.9765C26.7214 21.9765 26.4151 22.5161 26.3652 22.6739C26.3652 22.6739 26.5158 22.7134 26.6833 22.5942C26.85 22.4767 26.8864 22.4448 27.0523 22.2895H27.0514ZM26.0885 20.3953C25.9616 20.637 25.7365 20.9928 25.7365 20.9928C25.7526 21.138 25.7416 21.3873 25.789 21.6903C25.838 21.9924 26.2459 22.5077 26.2459 22.5077C26.3466 22.2366 26.586 21.8657 26.636 21.5014C26.6647 21.2564 26.6106 20.8888 26.6106 20.8888C26.4456 20.8132 26.2366 20.5732 26.0885 20.3953ZM25.1552 18.4573C25.0429 18.6181 24.9717 18.8037 24.9479 18.9978C24.9335 19.2144 24.969 19.3898 25.0917 19.707C25.2474 20.1091 25.4852 20.5572 25.5952 20.7595C25.5952 20.7595 25.8067 20.4658 25.9252 20.2022C25.9252 20.2022 25.5952 19.7616 25.4522 19.4502C25.288 19.0843 25.2212 18.7469 25.1552 18.4573ZM24.683 15.6625C24.5519 16.0486 24.81 16.5966 24.81 16.5966C24.7896 16.4523 24.898 16.0293 25.0697 15.7658C25.2593 15.4804 25.4505 15.1136 25.5656 14.725C25.0579 14.9139 24.7829 15.3629 24.683 15.6625ZM25.6392 17.2353C25.6087 16.7653 25.4336 16.5841 25.2153 16.4145C25.1222 16.6294 24.8633 17.0121 24.9817 17.4082C25.1036 17.8069 25.3727 17.9773 25.536 18.3163C25.536 18.3163 25.6671 17.7053 25.6383 17.2353H25.6392ZM22.3502 17.6315C22.2977 17.7893 22.2537 18.1703 22.2808 18.3306C22.3087 18.4901 22.5482 18.7956 22.5482 18.7956C22.7538 18.4372 22.9772 18.2517 23.105 18.0822C23.2378 17.9101 23.3004 17.7221 23.2327 17.4401C23.1633 17.1548 22.7766 16.4296 22.7766 16.4296C22.6049 16.9542 22.4001 17.4687 22.3502 17.6315ZM23.6236 30.8905C23.666 30.9694 23.7226 31.0433 23.7963 31.1104C24.199 31.4839 24.4563 31.4486 24.6796 31.3698C24.6796 31.3698 24.0154 31.1532 24.051 30.58C24.0899 30.0101 24.425 29.6668 24.4825 29.3706C24.5485 29.0433 24.5265 28.731 24.265 28.3542C24.051 29.0567 23.8208 29.5712 23.6372 29.922C23.6313 29.9312 23.6287 29.9421 23.6236 29.953C23.6194 29.9421 23.616 29.9312 23.6093 29.922C23.3519 29.4198 23.1423 28.895 22.9831 28.3542C22.7225 28.731 22.6988 29.0433 22.764 29.3697C22.8232 29.6668 23.1574 30.0101 23.1955 30.58C23.2319 31.1532 22.5685 31.3698 22.5685 31.3698C22.791 31.4486 23.0466 31.4839 23.4519 31.1104C23.5214 31.0474 23.5795 30.973 23.6236 30.8905ZM22.9493 31.7155L23.0762 31.5108C22.8824 31.5947 22.6362 31.5359 22.6362 31.5359C22.6137 31.5649 22.5939 31.5958 22.577 31.6283C21.917 32.5716 21.1867 33.165 20.443 33.5536L20.6545 33.8473C21.46 33.4226 22.2427 32.763 22.9493 31.7155ZM27.07 29.2145C26.9203 29.0542 26.6495 28.7436 26.3728 28.5623C26.0944 28.3802 25.7551 28.2602 25.7551 28.2602C25.6671 28.3592 25.6053 28.3953 25.5317 28.4507C25.7238 28.5456 25.9311 28.606 25.9946 28.6438C26.2924 28.8158 26.388 29.2019 26.388 29.2019C26.6529 29.3194 27.0709 29.2136 27.0709 29.2136L27.07 29.2145ZM25.767 28.7445C25.3312 28.6161 24.6585 28.1066 24.386 27.6265C24.386 27.7415 24.4732 28.3878 24.6644 28.7109C24.931 29.1616 25.321 29.4948 25.6637 29.4948C25.9819 29.4948 26.0504 29.3102 26.2053 29.238C26.2053 29.238 26.1249 28.846 25.7678 28.7436L25.767 28.7445ZM20.1612 30.8402C20.2543 30.8863 20.6892 31.0584 20.971 30.4944C20.971 30.4944 20.4895 30.648 20.3592 30.4247C20.2297 30.199 20.4421 29.8733 20.5724 29.7785C20.7425 29.6543 21.0522 29.572 21.2366 29.6022C21.2366 29.6022 21.0877 29.4646 20.9092 29.3748C20.8224 29.4169 20.7266 29.4376 20.63 29.4352C20.63 29.4352 20.0089 29.8523 19.9361 30.2703C19.876 30.6262 20.0681 30.7965 20.1612 30.841V30.8402ZM21.3221 20.2022C21.4389 20.4658 21.6513 20.7595 21.6513 20.7595C21.7613 20.5572 22.0024 20.1091 22.1556 19.707C22.2783 19.3898 22.3155 19.2144 22.2986 18.9978C22.2753 18.8035 22.2041 18.6179 22.0913 18.4573C22.0261 18.7469 21.9584 19.0843 21.7951 19.4502C21.653 19.7608 21.3221 20.2022 21.3221 20.2022ZM20.1959 22.2895C20.36 22.4448 20.399 22.4767 20.5648 22.5942C20.7315 22.7134 20.8846 22.6739 20.8846 22.6739C20.8322 22.5161 20.5293 21.9765 20.5293 21.9765C20.4531 22.0629 20.2695 22.2266 20.1959 22.2895ZM20.6376 20.8888C20.6376 20.8888 20.5817 21.2564 20.6122 21.5014C20.6613 21.8657 20.8999 22.2366 21.004 22.5069C21.004 22.5069 21.4101 21.9924 21.4575 21.6903C21.5032 21.3881 21.4973 21.138 21.5125 20.9937C21.5125 20.9937 21.2857 20.637 21.1613 20.3953C21.0124 20.5732 20.8017 20.8132 20.6376 20.8888ZM19.8168 28.6849C19.8168 28.6849 20.2602 28.59 20.6012 28.4793C20.9735 28.3592 21.2316 28.1989 21.3712 28.1209C21.3043 28.0227 21.1723 27.8439 21.2011 27.5619C21.2011 27.5619 20.6139 27.9228 20.443 28.0579C20.2653 28.1989 19.898 28.5649 19.8168 28.6849ZM21.2062 25.6358C21.251 25.478 21.3873 25.3252 21.5006 25.0659C21.6276 24.7688 21.603 24.6076 21.5294 24.3525C21.466 24.136 21.1876 23.8917 21.0725 23.6433C20.982 23.8263 20.8483 24.0848 20.7755 24.2853C20.6993 24.4834 20.7205 24.7973 20.7806 24.9861C20.8415 25.1775 21.2062 25.6358 21.2062 25.6358ZM19.8608 29.9245C19.9183 29.823 20.1586 29.4763 20.382 29.4293C20.382 29.4293 20.1925 29.4125 20.0833 29.379C20.0833 29.379 19.8549 29.436 19.6924 29.5007C19.53 29.5645 19.3277 29.6626 19.0883 29.8137C19.139 29.8297 19.4149 29.9102 19.684 30.0747C19.684 30.0747 19.8024 30.0311 19.8616 29.9237L19.8608 29.9245ZM24.2735 18.7469C24.1635 18.9785 24.1398 19.2278 24.1753 19.3755C24.2117 19.5216 24.4055 19.7364 24.4258 19.9798C24.4563 20.3583 24.1516 20.8199 24.1516 20.8199C24.4334 20.6831 24.7541 20.3634 24.8946 20.1611C25.0342 19.9597 24.931 19.6668 24.8692 19.5148C24.81 19.3621 24.3581 18.8367 24.2735 18.7469ZM21.6834 21.3201C21.5819 21.7851 22.087 22.0621 22.3231 22.4784C22.3849 22.3105 22.5812 21.8565 22.8063 21.6995C22.8063 21.6995 23.0948 20.8745 22.1657 20.3659C22.1657 20.3659 21.7841 20.8569 21.6834 21.3201ZM22.379 19.5157C22.318 19.6668 22.214 19.9588 22.3536 20.1611C22.494 20.3625 22.8164 20.6831 23.0948 20.8199C23.0948 20.8199 22.7902 20.3583 22.824 19.979C22.841 19.7373 23.0356 19.5216 23.072 19.3747C23.1092 19.2278 23.0855 18.9785 22.9746 18.7469C22.89 18.8367 22.439 19.3629 22.379 19.5157ZM20.9904 22.8518C20.9904 22.8518 21.0268 23.091 21.2104 23.4368C21.3923 23.7809 21.6453 24.0218 21.7807 24.1443C21.7807 24.1443 22.0853 23.6324 22.175 23.4066C22.2757 23.1481 22.2647 22.8946 22.2224 22.799C22.1175 22.5749 21.7621 22.2526 21.603 21.9714C21.5675 22.1082 21.075 22.7696 20.9904 22.8518ZM24.7516 23.3428C24.8023 23.102 24.7448 22.381 24.331 22.0226C24.2058 22.3348 23.7582 22.7285 23.7616 22.971C23.77 23.6122 24.0577 24.005 24.1271 24.2174C24.1271 24.2174 24.6585 23.8103 24.7516 23.3428ZM25.0807 20.3659C24.1508 20.8745 24.4402 21.6995 24.4402 21.6995C24.667 21.8565 24.8616 22.3105 24.9225 22.4775C25.1594 22.0621 25.6671 21.7851 25.5656 21.3201C25.4623 20.8569 25.0807 20.3659 25.0807 20.3659ZM26.0352 23.4377C26.137 23.254 26.2114 23.0567 26.256 22.8518C26.1714 22.7704 25.6806 22.1082 25.6434 21.9714C25.4852 22.2526 25.1281 22.5757 25.0274 22.799C24.9817 22.8938 24.969 23.1481 25.0723 23.4066C25.1628 23.6332 25.4657 24.1443 25.4657 24.1443C25.602 24.0218 25.855 23.7801 26.0352 23.4368V23.4377ZM21.2138 26.3634C21.2705 26.5892 21.5184 27.0827 21.5184 27.0827C21.6233 26.9106 21.933 26.5086 22.0109 26.2216C22.0887 25.9371 21.8103 25.4561 21.7105 25.3151C21.2104 25.7684 21.1596 26.1385 21.2138 26.3634ZM27.4305 28.6849C27.3484 28.5649 26.982 28.1981 26.8052 28.0579C26.63 27.9236 26.0436 27.5628 26.0436 27.5628C26.0741 27.8439 25.9421 28.0227 25.8761 28.1209C26.0157 28.1989 26.273 28.3592 26.6461 28.4793C26.9854 28.59 27.4305 28.6849 27.4305 28.6849ZM21.8975 24.3172C21.7859 24.5439 21.7642 24.8039 21.8366 25.0457C21.9347 25.3395 22.384 25.7499 22.384 25.7499C22.5152 25.5283 22.7106 25.2354 22.7724 25.0885C22.8342 24.9375 22.8697 24.7595 22.8291 24.543C22.7783 24.266 22.45 23.9169 22.3417 23.7054C22.2393 23.9085 22.0041 24.12 21.8975 24.3172ZM24.9944 26.512C25.0096 26.1225 24.3826 25.3882 24.3826 25.3882C24.051 25.6979 23.9689 25.8934 23.9342 26.204C23.8936 26.512 24.0019 26.7453 24.1432 27.0155C24.2676 27.2589 24.5976 27.6181 24.5976 27.6181C24.6416 27.321 24.9767 26.9971 24.9953 26.512H24.9944ZM24.8633 25.7499C24.8633 25.7499 25.3117 25.3395 25.4099 25.0449C25.486 24.825 25.4564 24.5111 25.3481 24.3172C25.2415 24.1208 25.008 23.9085 24.9047 23.7046C24.7981 23.9169 24.4706 24.2669 24.4182 24.5438C24.3835 24.7272 24.4025 24.9165 24.4732 25.0894C24.535 25.2354 24.7338 25.5283 24.8633 25.7499ZM25.4234 28.3022C25.4234 28.3022 25.6984 28.1142 25.8076 27.8699C25.9108 27.6391 25.8524 27.4746 25.745 27.358C25.6392 27.238 25.3896 26.961 25.2821 26.7814C25.2127 26.9946 25.0071 27.3907 24.9792 27.5107C24.931 27.7373 24.9961 28.0109 25.4234 28.3022ZM24.1466 27.7499C24.1584 27.3815 23.8216 26.8082 23.6279 26.5883H23.6177C23.4273 26.8082 23.0889 27.3815 23.1007 27.7499C23.1236 28.4843 23.6 29.1767 23.6245 29.4008C23.6473 29.1775 24.1237 28.4843 24.1466 27.7499ZM21.823 28.3022C22.2486 28.0109 22.3163 27.7373 22.2664 27.5107C22.2393 27.3907 22.0329 26.9946 21.9643 26.7805C21.8586 26.961 21.6081 27.238 21.5015 27.3571C21.3949 27.4746 21.3365 27.6391 21.438 27.8699C21.548 28.1142 21.823 28.3022 21.823 28.3022ZM25.5368 25.316C25.4353 25.457 25.1586 25.9371 25.2364 26.2216C25.3185 26.5086 25.6256 26.9106 25.7289 27.0827C25.7289 27.0827 25.976 26.5892 26.0326 26.3634C26.0885 26.1385 26.036 25.7675 25.5368 25.316ZM27.5405 29.3697C27.9483 29.5191 28.319 29.7634 28.319 29.7634C28.5491 29.6929 28.9874 29.5745 28.9874 29.5745C28.704 29.2732 28.4873 29.1263 28.1903 29.0399C27.8908 28.9551 27.1843 28.8452 26.8686 28.7344C27.1479 29.0021 27.2782 29.2699 27.5405 29.3697ZM23.3182 26.204C23.2784 25.8934 23.1955 25.6979 22.8672 25.3882C22.8672 25.3882 22.2393 26.1225 22.2537 26.512C22.2723 26.9962 22.6049 27.321 22.6514 27.6181C22.6514 27.6181 22.9789 27.2589 23.105 27.0155C23.2454 26.7453 23.352 26.512 23.3182 26.204ZM23.6236 22.6689C23.6854 22.3944 24.2777 21.8657 24.2219 21.5761C24.1406 21.1447 23.8546 21.2362 23.6279 21.0541H23.6236C23.3952 21.2362 23.105 21.1447 23.0229 21.5761C22.9704 21.8657 23.5593 22.3944 23.6203 22.6689H23.6236ZM23.6186 25.8901H23.627C23.6744 25.7105 23.9587 25.4931 24.0755 25.1775C24.1457 24.9929 24.1432 24.7746 24.067 24.6261C23.9782 24.4524 23.6592 24.026 23.6236 23.9043C23.5839 24.026 23.2691 24.4524 23.1777 24.6261C23.1016 24.7746 23.0999 24.992 23.1693 25.1775C23.2877 25.4931 23.5712 25.7105 23.6186 25.8901Z" fill="#11121E"/>
<path d="M51.1873 0H98.4365V46.8657H51.1873V0Z" fill="#E8F1FB"/>
<mask id="mask0_143_77" style="mask-type:luminance" maskUnits="userSpaceOnUse" x="58" y="12" width="33" height="23">
<path d="M90.876 12.6924H58.0774V34.4836H90.876V12.6924Z" fill="#ffffff"/>
</mask>
<g mask="url(#mask0_143_77)">
<path d="M85.4413 27.6602C85.58 27.0845 85.7628 25.4008 85.7628 25.4008H84.1331C84.123 25.5729 84.0874 26.1478 84.0367 26.7345C83.9605 27.6031 83.7075 28.403 82.8267 28.403H82.148C82.1464 28.33 82.148 25.4008 82.148 25.4008H80.4896V34.4844H82.148V29.8726H83.1474L84.7754 34.4811H86.5548L84.5621 29.1592C84.9759 28.8486 85.2974 28.2536 85.4413 27.6602ZM66.6516 17.4822C66.6651 15.0256 67.2676 14.2174 67.903 14.2031C68.5377 14.2174 69.1401 15.0256 69.1537 17.483V17.4839C69.1401 19.8842 68.5377 20.7042 67.903 20.7168C67.2684 20.7042 66.6651 19.8842 66.6507 17.4839L66.6516 17.4822ZM67.8658 22.2057L67.8887 22.2065L67.903 22.2057L67.9174 22.2065L67.9403 22.2057C69.0369 22.1847 70.087 21.5275 70.5422 19.6668C70.7173 19.0349 70.8062 18.2501 70.807 17.4402L70.8037 17.1465C70.7749 15.8489 70.554 14.9182 70.2113 14.256C69.6707 13.1271 68.811 12.7041 67.9225 12.6941L67.9174 12.6924H67.8887L67.8827 12.6941C66.9943 12.7041 66.1346 13.1271 65.5947 14.256C65.252 14.919 65.0312 15.8489 65.0024 17.1473L64.9982 17.4411C64.999 18.2501 65.0887 19.0349 65.263 19.6668C65.7183 21.5275 66.7692 22.1847 67.8658 22.2057ZM60.2987 33.0786C60.1379 33.0786 59.7326 33.0417 59.7326 33.0417V29.844C59.7326 29.844 59.8629 29.8138 60.005 29.8138C60.8453 29.8138 61.8378 29.7635 61.8378 31.4454C61.8378 32.9855 60.7471 33.0786 60.2987 33.0786ZM60.4992 28.3728C60.214 28.3728 59.9602 28.3795 59.7326 28.3912V26.9116H62.7043V25.4008H58.0767V34.4819H60.5897C63.096 34.4819 63.4836 32.2343 63.4836 31.4026C63.4836 30.4198 63.0986 28.3728 60.4992 28.3728ZM76.6531 28.3031H74.3795V25.4008H72.727V34.4844H74.3795V29.813H76.6531V34.4844H78.3065V25.4008H76.6531V28.3031ZM82.1362 22.0076V14.4373H83.512V12.9274H79.0841V14.4381H80.46V22.0076H82.1362ZM75.592 17.6232V22.0076H77.2497V12.9274H75.5912V16.0898H74.6909C74.3186 16.0898 74.0419 16.0059 73.8659 15.8363C73.7407 15.7188 73.6797 15.5585 73.6797 15.3512V12.9274H72.0213V15.5208C72.0213 16.1175 72.2548 16.6228 72.7177 17.0248C73.1746 17.4226 73.733 17.6232 74.3812 17.6232H75.592ZM59.7326 14.4381H61.7845V22.0076H63.443V12.9274H58.0767V22.0076H59.7326V14.4381ZM66.9376 28.5633C66.941 28.3786 66.9757 27.0861 66.9782 26.9116L67.271 26.8923C68.4784 26.8923 68.6993 27.1264 68.811 28.5624L66.9376 28.5633ZM67.6644 25.4008H65.4162L65.1107 34.4836H66.7489C66.7489 34.4836 66.8995 30.2721 66.9088 30.0715L68.9794 30.0732C68.998 30.2561 69.3068 34.4836 69.3068 34.4836H70.9991C70.9991 34.4836 70.417 28.2452 70.3696 27.8448C70.1809 26.2385 69.432 25.4008 67.6644 25.4008ZM86.8154 16.0898C86.8197 15.9052 86.8535 14.6127 86.856 14.4381H87.1683C88.374 14.4381 88.5763 14.6521 88.6888 16.0898H86.8154ZM90.2474 15.3722C90.0579 13.765 89.3099 12.9274 87.5423 12.9274H85.294L84.9877 22.0093H86.6267C86.6267 22.0093 86.7774 17.7978 86.7867 17.5988H88.8564C88.8758 17.7827 89.1847 22.0093 89.1847 22.0093H90.8761C90.8761 22.0093 90.294 15.7717 90.2474 15.3722Z" fill="#0F101C"/>
</g>
</g>
<defs>
<clipPath id="clip0_143_77">
<rect width="99" height="47" fill="white"/>
</clipPath>
</defs>
</svg>
