<svg width="62" height="44" viewBox="0 0 62 44" fill="none" xmlns="http://www.w3.org/2000/svg">
<path d="M7.56396 43.9144H18.2044V22.334H7.56396V43.9144Z" fill="#E8F1FB"/>
<path d="M30.1594 43.9142H41.9732L30.1594 23.2383V43.9142Z" fill="#E8F1FB"/>
<path d="M30.0223 21.6698H43.3884L31.244 0.419434L24.563 12.112L30.0223 21.6698Z" fill="#E8F1FB"/>
<path d="M19.1038 21.6701H29.2644L24.1841 12.7764L19.1038 21.6701Z" fill="#E8F1FB"/>
<path d="M0.741943 0.0854492L7.23346 11.448L13.725 0.0854492H0.741943Z" fill="#E8F1FB"/>
<path d="M7.56396 21.6699H18.2044V12.0225L25.0306 0.0854492H14.4869L7.56396 12.2017V21.6699Z" fill="#E8F1FB"/>
<path d="M30.3972 22.3341L36.2436 32.5681C38.9813 31.737 40.5337 28.8241 39.7111 26.0578C39.0499 23.8374 37.0258 22.3218 34.7356 22.3341H30.3972Z" fill="#E8F1FB"/>
<path d="M18.8618 22.334V43.9144C24.7324 43.894 29.5023 39.0621 29.5023 33.1221C29.5023 27.1821 24.7324 22.3544 18.8618 22.334Z" fill="#E8F1FB"/>
<path d="M50.3114 22.334C44.4206 22.334 39.6306 27.174 39.6306 33.1262C39.6306 39.0784 44.4206 43.9184 50.3114 43.9184C56.2021 43.9184 60.9921 39.0784 60.9921 33.1262C60.9921 27.174 56.2021 22.334 50.3114 22.334Z" fill="#E8F1FB"/>
</svg>
