<svg width="60" height="38" viewBox="0 0 60 38" fill="none" xmlns="http://www.w3.org/2000/svg">
<g clip-path="url(#clip0_146_77)">
<path d="M11.3514 3.54368L7.8288 0.0244141H3.47669L1.07136 2.50214L0 3.49893V9.38202L3.47669 13.1657H7.92052L11.3514 9.47559V3.54368ZM2.52623 10.7694V2.41671H8.82513V10.7653L2.52623 10.7694Z" fill="#E8F1FB"/>
<path d="M24.1159 3.63726L20.9269 0.0244141H16.7582L14.5279 2.5591L13.615 3.58437V13.1454H16.1162V9.32099H21.6772V13.1454H24.1368V10.6107L22.2233 8.78394L24.1368 7.15653L24.1159 3.63726ZM16.1162 2.61606H21.6772V7.15247H16.1162V2.61606Z" fill="#E8F1FB"/>
<path d="M56.3898 0.0366211H51.6959V2.49401H49.1738V13.1535H51.6959V2.49808H57.4654V13.1535H59.9832L59.9874 3.7227L56.3898 0.0366211Z" fill="#E8F1FB"/>
<path d="M47.2395 3.52334L43.7212 0H39.3649L36.9596 2.46552L35.884 3.46231V9.38201L39.3607 13.1617H43.8087L47.2354 9.47559L47.2395 3.52334ZM38.4144 10.749V2.39636H44.7092V10.745L38.4144 10.749Z" fill="#E8F1FB"/>
<path d="M32.1449 10.688V2.48994L29.6854 0.0488281H27.2759V2.40043H29.6854V10.688H27.2759V13.1291H34.5544V10.688H32.1449Z" fill="#E8F1FB"/>
<path d="M59.9999 36.1895H0.0249023V38.004H59.9999V36.1895Z" fill="#E8F1FB"/>
<path d="M31.1651 20.3671L27.6467 16.8438H23.2946L20.8892 19.3256L19.8179 20.3223V26.2095L23.2946 29.9891H27.7384L31.1651 26.3031V20.3671ZM22.3399 27.5928V19.2401H28.6388V27.5887L22.3399 27.5928Z" fill="#E8F1FB"/>
<path d="M53.2176 16.8071H43.5796V19.2686H47.1605V29.9485H49.6617V21.2377L47.8733 19.2686H53.2176V16.8071Z" fill="#E8F1FB"/>
<path d="M41.1782 19.1996V16.8521H36.4635L33.3328 20.2615V29.9486H35.7381V24.2527H41.1782V21.8645H35.7381V19.2118L41.1782 19.1996Z" fill="#E8F1FB"/>
<path d="M14.2026 22.1167H9.20022V19.2443H16.8623V16.8521H10.1924L6.74902 19.818V21.5878L9.15019 23.6668L10.1007 24.509H15.199V27.5604H7.54107V29.9486H14.211L17.6585 26.942V25.1722" fill="#E8F1FB"/>
<path d="M53.2176 16.8521H43.5796V19.2932H47.1605V29.973H49.6617V21.2623L47.8733 19.2932H53.2176V16.8521Z" fill="#E8F1FB"/>
</g>
<defs>
<clipPath id="clip0_146_77">
<rect width="60" height="38" fill="white"/>
</clipPath>
</defs>
</svg>
