<svg width="232" height="15" viewBox="0 0 232 15" fill="none" xmlns="http://www.w3.org/2000/svg">
<g clip-path="url(#clip0_147_258)">
<path d="M4.74233 0.851074V5.66216H5.3059L12.1091 0.851074H17.8213L9.32744 6.8745V7.50935L17.9662 14.1676H12.0647L5.4146 9.03907H4.74636V14.1676H0.370605V0.851074H4.74233Z" fill="#E8F1FB"/>
<path d="M24.145 0.851074V9.39857H24.773L33.0777 0.851074H38.2022V14.1676H33.8103V5.62009H33.1823L24.8777 14.1676H19.7532V0.851074H24.145Z" fill="#E8F1FB"/>
<path d="M56.672 0.851074V4.22801H45.4166V5.73865H51.9018C56.2534 5.73865 57.8434 7.14985 57.8434 9.81164V10.2132C57.8434 12.8979 56.189 14.1676 51.9018 14.1676H41.0208V0.851074H56.672ZM45.4166 11.0278H51.9018C52.8236 11.0278 53.3228 10.7486 53.3228 10.0526V9.85371C53.3228 9.21885 52.8397 8.8785 51.9018 8.8785H45.4166V11.0278Z" fill="#E8F1FB"/>
<path d="M75.9625 0.851074V4.10945H64.4777V5.8572H74.7506V8.89757H64.4777V10.8863H76.067V14.1676H60.106V0.851074H75.9625Z" fill="#E8F1FB"/>
<path d="M90.0559 0.851074C94.1578 0.851074 95.704 2.66001 95.704 5.18411V5.74247C95.704 8.34685 94.1541 10.1138 90.0559 10.1138H82.9632V14.1676H78.5708V0.851074H90.0559ZM82.9632 6.73299H89.5126C90.5792 6.73299 91.207 6.43469 91.207 5.62009V5.30267C91.207 4.52632 90.5792 4.22801 89.5126 4.22801H82.9632V6.73299Z" fill="#E8F1FB"/>
<path d="M114.93 0.851074V14.1676H110.538V4.22801H102.129V14.1676H97.7366V0.851074H114.93Z" fill="#E8F1FB"/>
<path d="M129.228 0.851074C133.33 0.851074 134.876 2.66001 134.876 5.18411V5.74247C134.876 8.34685 133.326 10.1138 129.228 10.1138H122.135V14.1676H117.743V0.851074H129.228ZM122.139 6.73299H128.688C129.756 6.73299 130.383 6.43469 130.383 5.62009V5.30267C130.383 4.52632 129.756 4.22801 128.688 4.22801H122.139V6.73299Z" fill="#E8F1FB"/>
<path d="M146.699 0.651367C151.783 0.651367 155.861 2.99572 155.861 7.21022V7.80679C155.861 12.0213 151.783 14.3656 146.699 14.3656H145.652C140.443 14.3656 136.28 12.0213 136.28 7.80679V7.21022C136.28 2.99572 140.443 0.651367 145.652 0.651367H146.699ZM140.777 7.21022V7.80679C140.777 9.73429 142.617 10.7899 145.652 10.7899H146.489C149.524 10.7899 151.364 9.73815 151.364 7.80679V7.21022C151.364 5.26359 149.524 4.22717 146.489 4.22717H145.652C142.621 4.22717 140.777 5.26359 140.777 7.21022Z" fill="#E8F1FB"/>
<path d="M174.627 0.851074V4.22801H167.828V14.1676H163.436V4.22801H156.637V0.851074H174.627Z" fill="#E8F1FB"/>
<path d="M192.166 0.851074V4.10945H180.682V5.8572H190.955V8.89757H180.682V10.8863H192.272V14.1676H176.31V0.851074H192.166Z" fill="#E8F1FB"/>
<path d="M199.143 0.851074V5.66216H199.706L206.505 0.851074H212.218L203.724 6.8745V7.50935L212.362 14.1676H206.461L199.807 9.03907H199.139V14.1676H194.767V0.851074H199.143Z" fill="#E8F1FB"/>
<path d="M231.629 0.851074V4.22801H224.83V14.1676H220.439V4.22801H213.639V0.851074H231.629Z" fill="#E8F1FB"/>
</g>
<defs>
<clipPath id="clip0_147_258">
<rect width="232" height="15" fill="white"/>
</clipPath>
</defs>
</svg>
