<svg width="87" height="42" viewBox="0 0 87 42" fill="none" xmlns="http://www.w3.org/2000/svg">
<path fill-rule="evenodd" clip-rule="evenodd" d="M71.0709 25.1048C71.4165 25.1048 71.6881 24.8579 71.6881 24.537V14.7864C71.6387 14.5149 71.3918 14.2927 71.0709 14.2927C70.75 14.2927 70.5031 14.5149 70.4538 14.7864V24.537C70.4538 24.8579 70.7253 25.1048 71.0709 25.1048ZM72.2065 12.4907C74.1567 12.4907 74.2801 14.0458 74.2801 15.0579V24.3149C74.2801 25.3269 74.1567 26.8821 72.2065 26.8821H69.9107C67.9605 26.8821 67.8371 25.3269 67.8371 24.3149V15.0579C67.8371 14.0458 67.9605 12.4907 69.9107 12.4907H72.2065ZM28.9073 12.4907H34.2148V14.268H31.6968V26.8821H28.9073V12.4907ZM36.0662 12.4907H40.4356L41.8921 26.8821H39.1766L38.9298 23.0559H37.6214L37.3746 26.8821H34.6591L36.0662 12.4907ZM38.7817 21.4761L38.3126 14.268H38.1645L37.6955 21.4761H38.7817ZM45.8418 21.8463V24.5617C45.8418 24.932 46.1134 25.0307 46.2615 25.0307C46.5084 25.0307 46.6812 24.8086 46.6812 24.5617V21.2045C46.6812 20.7602 46.6071 20.2665 45.5703 20.2665H44.4594V18.6866H45.6197C46.4096 18.6866 46.7059 18.4892 46.7059 17.6252V14.7617C46.7059 14.5149 46.5331 14.2927 46.2862 14.2927C46.1134 14.2927 45.8665 14.3914 45.8665 14.7617V17.1068H43.077V15.0579C43.077 14.0458 43.2005 12.4907 45.1506 12.4907H47.4464C49.3966 12.4907 49.5201 14.0458 49.5201 15.0579V17.3783C49.5201 18.9335 48.4586 19.3531 47.6192 19.3285V19.4766C49.4707 19.4272 49.5201 20.9083 49.5201 21.4267V24.3149C49.5201 25.3269 49.3966 26.8821 47.4464 26.8821H45.1506C43.2251 26.8821 43.077 25.3269 43.077 24.3149V21.8463H45.8418ZM51.3221 12.4907H57.7405V26.8821H55.1485V14.268H53.8895V26.8821H51.2975V12.4907H51.3221ZM59.7647 12.4907H64.1342C66.0844 12.4907 66.3806 14.0458 66.3806 15.0579V19.4025C66.3806 20.4146 66.0844 21.9698 64.1342 21.9698H62.5543V26.8574H59.7647V12.4907ZM63.2702 20.3899C63.5664 20.3899 63.7886 20.1184 63.7886 19.6741V14.9839C63.7886 14.5395 63.5664 14.268 63.2702 14.268H62.5296V20.3899H63.2702ZM83.1177 12.4907H86.7218V26.8821H83.957V17.8473H83.8582L82.4265 26.8821H80.2047L78.7729 17.8473H78.6742V26.8821H75.8847V12.4907H79.5135L81.3156 22.6116L83.1177 12.4907ZM22.9826 13.9471C23.0073 12.4907 22.8592 10.0222 22.168 7.4302C21.4521 4.83829 20.0697 2.36977 19.8475 2.07355C19.65 2.39446 18.5392 4.39395 17.5764 7.5043C17.3295 8.4423 16.8605 10.4665 16.7865 12.466C16.6877 14.8605 17.0086 17.2549 17.1568 17.9214C17.1568 17.1315 17.1814 14.4655 17.6752 12.2685C18.1689 10.0715 19.107 7.5536 19.8722 6.27C20.6869 7.6277 21.7483 10.5405 22.1186 12.2932C22.4889 14.0458 22.6864 16.2675 22.5877 17.8473C22.7852 16.934 22.958 15.3788 22.9826 13.9471ZM19.8475 25.1048C20.2919 24.2902 21.0571 22.4635 21.0078 20.1678C20.909 17.8227 20.1191 16.0947 19.8722 15.6997C19.6007 16.1194 18.6626 18.0942 18.6873 20.3899C18.7613 22.7597 19.4279 24.2902 19.8475 25.1048ZM23.2542 7.4549C24.1182 11.2811 24.1182 13.6262 23.7232 16.3169C23.032 21.1552 20.835 24.8332 19.8722 26.0675C19.2304 25.2282 18.2182 23.5002 17.5517 21.9204C17.5517 21.9204 16.2927 18.8841 15.9471 15.8972C15.6015 12.935 15.7497 9.9234 16.7371 6.5169C17.6258 3.45592 19.3785 0.71587 19.8722 0C20.1684 0.4937 22.3655 3.60403 23.2542 7.4549ZM25.0563 26.8574V36.7068C22.4149 39.4962 18.6626 41.2489 14.4907 41.2489C6.49241 41.2489 0 34.806 0 26.8821C0 18.9582 6.49241 12.5154 14.4907 12.5154V23.3028C12.417 23.3028 10.3187 24.0927 8.73883 25.6725C8.36854 26.0428 8.02294 26.4378 7.75139 26.8821C5.6284 30.0171 5.94932 34.3123 8.73883 37.0771C10.3187 38.6322 12.417 39.4468 14.4907 39.4468C16.5643 39.4468 18.6379 38.6569 20.2178 37.1018C20.2178 37.1018 20.2425 37.1018 20.2425 37.0771L20.2672 37.0524C21.8471 35.4725 21.8471 32.93 20.2672 31.3501C18.6873 29.7703 16.0953 29.7703 14.5154 31.3501C14.5154 31.3501 14.4907 31.3501 14.4907 31.3748V26.8574H25.0563ZM84.1792 37.2005C84.1792 35.9416 83.6361 35.6206 82.2043 35.6206H81.9574V33.2015H80.501V39.4468H81.9574C83.5373 39.4468 84.1792 39.2 84.1792 37.8423V37.2005ZM71.9349 33.2015H68.232V34.3864H69.417V39.4715H70.7994V34.3864H71.9102L71.9349 33.2015ZM60.6534 35.2751C60.6534 33.9914 60.0363 33.6705 58.5551 33.6705V33.2015H57.1233V33.6705C55.6422 33.6705 55.025 33.9914 55.025 35.2751V37.2252C55.025 38.4841 55.6669 38.8297 57.1233 38.8297V39.4468H58.5551V38.8297C60.0116 38.8297 60.6534 38.4841 60.6534 37.2252V35.2751ZM47.3724 33.2015H43.8423V39.4715H47.3724V38.2866H45.3728V36.8055H47.1749V35.6206H45.3728V34.3864H47.3724V33.2015ZM35.2022 33.2015H33.7457V35.6206H32.9805V33.2015H31.524V39.4468H32.9805V36.7068H33.7457V39.4468H35.2022V33.2015ZM86.7712 41.2489H28.9073V31.6463H86.7465L86.7712 41.2489ZM56.4568 35.2257C56.4568 34.8554 56.5803 34.7567 56.9012 34.7567H57.1233V37.6695H56.9012C56.5803 37.6695 56.4568 37.5955 56.4568 37.2252V35.2257ZM82.2784 36.7315C82.5993 36.7315 82.698 36.8055 82.698 37.1758V37.9411C82.698 38.2866 82.5993 38.3854 82.2784 38.3854H81.9574V36.7562H82.2784V36.7315ZM58.7773 34.7814C59.0982 34.7814 59.2216 34.8554 59.2216 35.2257V37.2499C59.2216 37.6202 59.0982 37.7189 58.7773 37.7189H58.5551V34.806H58.7773V34.7814Z" fill="#E8F1FB"/>
</svg>
