<svg width="110" height="36" viewBox="0 0 110 36" fill="none" xmlns="http://www.w3.org/2000/svg">
<g clip-path="url(#clip0_143_130)">
<path d="M45.96 17.4421C45.96 15.284 44.2605 13.5282 42.1994 13.5282C40.1744 13.5282 38.4748 15.284 38.4748 17.4421C38.4748 19.6003 40.1744 21.3195 42.1994 21.3195C44.2605 21.3195 45.96 19.6003 45.96 17.4421ZM34.7141 17.4421C34.7141 13.3819 38.0409 10.0532 42.1994 10.0532C46.3578 10.0532 49.6845 13.3819 49.6845 17.4421C49.6845 21.5024 46.3216 24.7945 42.1994 24.7945C38.0409 24.7945 34.7141 21.5024 34.7141 17.4421Z" fill="#E8F1FB"/>
<path d="M51.2393 10.3457H63.353V13.711H59.1222V24.5383H55.5062V13.711H51.2393V10.3457Z" fill="#E8F1FB"/>
<path d="M74.2372 15.7962C73.6225 14.4428 72.3568 13.5649 70.8744 13.5649C69.7175 13.5649 68.5605 14.0404 67.9096 14.9549L65.342 12.5041C66.7164 11.0043 68.6323 10.1265 70.8744 10.1265C74.9968 10.1265 78.3596 13.4552 78.3596 17.5154C78.3596 21.5756 74.9968 24.8677 70.8744 24.8677C68.7048 24.8677 66.7882 24.0264 65.4507 22.5999L67.9458 20.1125C68.5967 20.9538 69.8262 21.4294 70.8382 21.4294C72.3212 21.4294 73.5869 20.5514 74.1653 19.2346H70.0067V15.8693H74.2372V15.7962Z" fill="#E8F1FB"/>
<path d="M90.1484 24.5383L86.134 19.6367L84.9408 20.9536V24.5383H81.2888V10.3457H84.9408V15.796L89.7142 10.3457H94.4151L88.5935 16.8567L94.8492 24.5383H90.1484Z" fill="#E8F1FB"/>
<path d="M106.275 17.4421C106.275 15.284 104.576 13.5282 102.515 13.5282C100.49 13.5282 98.7902 15.284 98.7902 17.4421C98.7902 19.6003 100.49 21.3195 102.515 21.3195C104.576 21.3195 106.275 19.6003 106.275 17.4421ZM95.0295 17.4421C95.0295 13.3819 98.3561 10.0532 102.515 10.0532C106.673 10.0532 110 13.3819 110 17.4421C110 21.5024 106.637 24.7945 102.515 24.7945C98.3561 24.7945 95.0295 21.5024 95.0295 17.4421Z" fill="#E8F1FB"/>
<path d="M3.50756 23.2641V12.2174C3.50756 7.42549 7.37673 3.51157 12.1137 3.51157C16.8508 3.51157 20.7199 7.42549 20.7199 12.2174V24.6541C20.7199 27.0317 19.7797 29.1533 18.261 30.7262C21.5516 30.6896 24.2275 27.9828 24.2275 24.6541V12.0344C24.119 5.37709 18.7311 0 12.1137 0C5.42406 0 0 5.48682 0 12.2539V23.447C0.108481 29.1899 4.12229 33.9817 9.47404 35.1888C5.85799 32.4454 3.50756 28.1291 3.50756 23.2641Z" fill="#E8F1FB"/>
<path d="M31.2065 12.0343C31.0981 6.29141 27.0842 1.49958 21.7325 0.29248C25.3486 2.99931 27.6628 7.31561 27.6989 12.1806V23.2274C27.6989 28.0192 23.8298 31.9331 19.0928 31.9331C14.3557 31.9331 10.4866 28.0192 10.4866 23.2274V10.7906C10.4866 8.41295 11.4268 6.29141 12.9455 4.71852C9.65492 4.7551 6.979 7.4619 6.979 10.7906V23.4469C7.08752 30.1042 12.4754 35.4813 19.0928 35.4813C25.7825 35.4813 31.2065 29.9945 31.2065 23.2274V12.0343Z" fill="#E8F1FB"/>
</g>
<defs>
<clipPath id="clip0_143_130">
<rect width="110" height="36" fill="white"/>
</clipPath>
</defs>
</svg>
