<svg width="87" height="54" viewBox="0 0 87 54" fill="none" xmlns="http://www.w3.org/2000/svg">
<path fill-rule="evenodd" clip-rule="evenodd" d="M20.6222 3.85111L23.8444 0H29.6444L34.8 4.81388V8.98591L31.8508 12.4127L34.8 14.7626V19.2555H30.9333V14.1207H23.2V19.2555H19.3333V5.13481L20.6222 3.85111ZM23.2 10.2696H30.9333V3.85111H23.2V10.2696Z" fill="#E8F1FB"/>
<path fill-rule="evenodd" clip-rule="evenodd" d="M5.15556 0H10.9556L16.1111 5.13481V13.4789L10.9556 18.6137H5.15556L0 13.4789V5.13481L5.15556 0ZM3.86667 14.7626H12.2444V3.85111H3.86667V14.7626Z" fill="#E8F1FB"/>
<path fill-rule="evenodd" clip-rule="evenodd" d="M35.4444 23.1066H41.2444L46.4 28.2414V36.5855L41.2444 41.7203H35.4444L30.2889 36.5855V28.2414L35.4444 23.1066ZM34.1556 37.8692H42.5333V26.9577H34.1556V37.8692Z" fill="#E8F1FB"/>
<path fill-rule="evenodd" clip-rule="evenodd" d="M57.3556 0H63.1556L68.3111 5.13481V13.4789L63.1556 18.6137H57.3556L52.2 13.4789V5.13481L57.3556 0ZM56.0667 14.7626H64.4444V3.85111H56.0667V14.7626Z" fill="#E8F1FB"/>
<path d="M75.4 3.85111H71.5333V19.2555H75.4V3.85111Z" fill="#E8F1FB"/>
<path d="M81.8444 0H75.4V3.85111H83.1333V19.2555H87V5.13481L81.8444 0Z" fill="#E8F1FB"/>
<path d="M61.8667 23.1066H55.4222L50.2667 28.2414V41.0785H54.1333V34.0181H60.5778V30.167H54.1333V26.9577H61.8667V23.1066Z" fill="#E8F1FB"/>
<path d="M12.2444 29.5251V26.9577L16.7556 23.1066H26.4222V26.9577H16.1111V30.167H23.2L27.7111 34.66V37.2274L23.2 41.7203H13.5333V37.8692H23.8444V34.0181H16.7556L12.2444 29.5251Z" fill="#E8F1FB"/>
<path d="M87 51.3481H0V53.9155H87V51.3481Z" fill="#E8F1FB"/>
<path d="M42.5333 0H39.3111V3.85111H42.5333V15.4044H39.3111V19.2555H49.6222V15.4044H46.4V5.13481L42.5333 0Z" fill="#E8F1FB"/>
<path d="M64.4444 23.1066V26.9577H69.6V41.7203H73.4667V30.0386L70.8889 26.9577H77.9778V23.1066H64.4444Z" fill="#E8F1FB"/>
</svg>
