<svg width="63" height="52" viewBox="0 0 63 52" fill="none" xmlns="http://www.w3.org/2000/svg">
<g clip-path="url(#clip0_147_489)">
<g clip-path="url(#clip1_147_489)">
<mask id="mask0_147_489" style="mask-type:luminance" maskUnits="userSpaceOnUse" x="0" y="0" width="63" height="52">
<path d="M0 0H63V52H0V0Z" fill="white"/>
</mask>
<g mask="url(#mask0_147_489)">
<path d="M42.1265 16.8457C41.1247 17.8707 39.8794 18.6207 38.5089 19.0244V2.63441C39.8794 3.03811 41.1247 3.78807 42.1265 4.81306C43.7055 6.41107 44.592 8.57415 44.5919 10.829C44.5919 13.1055 43.7266 15.2192 42.1265 16.8457ZM25.5446 11.5448V2.79653L36.2045 10.0811V18.8294L25.5446 11.5448ZM23.2713 19.0244C21.9007 18.6204 20.6555 17.8702 19.6537 16.8449C18.0745 15.247 17.188 13.0839 17.188 10.829C17.188 8.57409 18.0745 6.411 19.6537 4.81306C20.6555 3.78779 21.9007 3.03757 23.2713 2.63365V19.0244ZM36.2045 0V7.28459L25.5446 0C19.6545 0 14.8839 4.84518 14.8839 10.829C14.8839 16.8128 19.6537 21.6588 25.5446 21.6588V14.3742L36.2045 21.6588C42.0946 21.6588 46.8644 16.8128 46.8644 10.829C46.8644 4.84518 42.0946 0 36.2045 0ZM30.8601 33.2356V29.5612H28.6832V36.7801H30.7L33.0363 33.1385V36.7808H35.2132V29.5612H33.1964L30.8601 33.2356ZM18.4074 32.4878C18.4074 32.7478 18.2783 33.2678 17.6066 33.2678H16.8385V31.3499H17.703C17.9269 31.3499 18.4066 31.5449 18.4066 32.0978L18.4074 32.4878ZM17.9269 29.5612H14.5659V36.7801H16.8385V35.0243H17.9269C19.3994 35.0243 20.6162 34.2114 20.6162 32.7156V31.8699C20.6162 30.407 19.3994 29.5605 17.9269 29.5605V29.5612ZM50.2915 33.3985C50.2915 34.5043 50.003 34.6672 49.5871 34.8622C49.395 34.9272 48.9146 34.9272 48.9146 34.9272V36.8129H49.811C51.7313 36.8129 52.4357 35.6751 52.4676 33.1385V31.4791H53.7489V36.8129H56.0533V29.5941H50.2915V33.3985ZM11.4918 34.3743C11.4918 34.8622 11.1077 35.2522 10.6273 35.2522H10.4352C9.95476 35.2522 9.57069 34.8622 9.57069 34.3743V32.0328C9.57069 31.5449 9.95476 31.1549 10.4352 31.1549H10.6273C11.1077 31.1549 11.4918 31.5449 11.4918 32.0328V34.3743ZM11.1077 29.4634H9.9874C8.51487 29.4634 7.29813 30.537 7.29813 32.1949V34.2114C7.29813 35.8701 8.51487 36.9429 9.9874 36.9429H11.1077C12.5803 36.9429 13.7962 35.8701 13.7962 34.2114V32.1956C13.7644 30.4391 12.5476 29.4634 11.1077 29.4634ZM42.7352 29.5612H40.2707L39.0539 32.2928H38.4778V29.5612H36.206V36.7801H38.4786V34.2114H39.0554L40.3033 36.7808H42.928L41.0077 33.1385L42.736 29.5612H42.7352ZM45.5847 34.0493H48.1457V32.3256H45.5847V31.447H48.4015V29.5612H43.3114V36.7801H48.5943V34.8943H45.5528L45.5847 34.0493ZM60.0868 35.0235H59.2223V33.4635H59.9912C60.6311 33.4635 60.7912 33.9506 60.7912 34.2756C60.7853 34.4657 60.7103 34.6469 60.5804 34.7848C60.4506 34.9227 60.2749 35.0077 60.0868 35.0235ZM60.3107 31.6741H59.2223V29.5605H56.9505V36.7793H60.3434C61.8159 36.7793 63.0326 35.9672 63.0326 34.4706V33.9506C63.0008 32.487 61.7833 31.6741 60.3107 31.6741ZM25.4497 32.227H23.4967V29.5605H21.2242V36.7793H23.4967V34.2106H25.4497V36.7801H27.7223V29.5605H25.4505L25.4497 32.227ZM4.25743 32.227H2.27255V29.5605H0V36.7793H2.27255V34.2106H4.22555V36.7801H6.49811V29.5605H4.22555V32.227H4.25743ZM0 42.5368H62.4876V42.8946H0V42.5368ZM47.25 51.935H46.5775L44.9448 49.9835L44.5289 50.4714V51.935H44.0165V47.6098H44.5289V49.8535L46.4173 47.6098H47.0898L45.3289 49.6592L47.25 51.935ZM39.6946 51.935H39.1822V47.6098H39.6946V50.9921L42.1599 47.6098H42.7041V51.935H42.1918V48.4877L39.6946 51.935ZM37.8698 51.935H37.3575V49.9506H34.8929V51.9342H34.3805V47.6091H34.8929V49.4627H37.3575V47.6091H37.8698V51.935ZM31.9478 51.935H31.4355V48.0977H30.0912V47.6098H33.2921V48.0977H31.9478V51.935ZM26.4737 52C26.3143 52 26.1533 51.9671 25.9932 51.9021C25.8657 51.8371 25.7374 51.7721 25.6736 51.675L25.8976 51.2521C26.0896 51.4471 26.2816 51.545 26.4737 51.545C26.6331 51.545 26.7621 51.5121 26.8577 51.415C26.9541 51.3171 27.0816 51.1871 27.178 50.9271L27.2418 50.7971L25.6099 47.6419H26.2171L27.5621 50.3414L28.9064 47.6419H29.4506L27.594 51.1871C27.4657 51.48 27.2737 51.7071 27.1135 51.805C26.9541 51.935 26.7621 52 26.4737 52ZM24.7127 51.935H24.2011V48.0977H21.7039V51.935H21.1915V47.6098H24.7453V51.935H24.7127ZM18.5341 52C17.9522 52.0036 17.3911 51.7825 16.966 51.3821C16.55 50.9592 16.358 50.4064 16.358 49.7564C16.358 49.1064 16.5819 48.5856 16.966 48.1627C17.3819 47.7398 17.9262 47.5448 18.5349 47.5448C19.2385 47.5448 19.7509 47.8377 20.1668 48.3898L19.719 48.6177C19.5907 48.4227 19.4306 48.2927 19.2066 48.1627C18.9827 48.0327 18.7907 47.9998 18.5349 47.9998C18.0544 47.9998 17.6696 48.1627 17.3819 48.5198C17.0624 48.8456 16.9022 49.2685 16.9022 49.7892C16.9022 50.3092 17.0616 50.6992 17.3819 51.0571C17.7022 51.415 18.0863 51.545 18.5349 51.545C18.7588 51.545 18.9827 51.5121 19.2066 51.3821C19.4313 51.2521 19.5907 51.1221 19.719 50.9271L20.1668 51.1542C19.7516 51.74 19.2074 52 18.5357 52H18.5341Z" fill="#E8F1FB"/>
</g>
</g>
</g>
<defs>
<clipPath id="clip0_147_489">
<rect width="63" height="52" fill="white"/>
</clipPath>
<clipPath id="clip1_147_489">
<rect width="63" height="52" fill="white"/>
</clipPath>
</defs>
</svg>
