<svg width="301" height="67" viewBox="0 0 301 67" fill="none" xmlns="http://www.w3.org/2000/svg">
<path fill-rule="evenodd" clip-rule="evenodd" d="M243.269 18.363L227.656 0H207.371L196.447 12.9344L191.991 18.1428V66.9221H204.029V47.4261H231.23V66.9221H243.269V54.0034L233.985 44.7039L243.269 36.317V18.363ZM204.029 13.1547H231.23V36.2855H204.029V13.1547Z" fill="#E8F1FB"/>
<path d="M300.954 0.0307402H253.884V12.6189H271.369V66.9842H283.747V22.5793L275.005 12.556H301L300.954 0.0307402Z" fill="#E8F1FB"/>
<path d="M165.655 12.4931V54.3803L177.523 54.4118V67H141.857V54.4118H153.679V12.0682H141.857V0.0307402H153.679L165.655 12.4931Z" fill="#E8F1FB"/>
<path d="M88.4903 66.9213L74.1312 47.4568V0.0307402H86.5097V54.758H112.071V0.0307402H124.45V47.4568L110.106 66.9213H88.4903Z" fill="#E8F1FB"/>
<path d="M56.1984 54.3331V66.9213L0 66.9685V46.2924L17.9334 28.0552H49.0189V12.6189H3.58978V0.0307402H60.9796V20.7069L41.8548 40.1714H11.9453V54.3331H56.1984Z" fill="#E8F1FB"/>
</svg>
