<svg xmlns="http://www.w3.org/2000/svg" width="133" height="26" viewBox="0 0 133 26" fill="none">
    <radialGradient id="paint0_radial_1_716" cx="0" cy="0" r="1" gradientUnits="userSpaceOnUse"
                    gradientTransform="translate(22.1114 9.66667) rotate(45.0717) scale(13.1828 13.1828)">
        <stop stop-color="#00AAFF"></stop>
        <stop offset="1" stop-color="#00406C"></stop>
    </radialGradient>
    <radialGradient id="paint1_radial_1_716" cx="0" cy="0" r="1" gradientUnits="userSpaceOnUse"
                    gradientTransform="translate(21.7789 9.66667) rotate(45.0717) scale(8.94551 8.94212)">
        <stop stop-color="white" stop-opacity="0.7"></stop>
        <stop offset="1" stop-color="white" stop-opacity="0"></stop>
    </radialGradient>
    <clipPath id="clip0_1_716">
        <rect width="133" height="26" fill="white"></rect>
    </clipPath>
    <path d="M13.7548 0H15.0197C16.5428 0.123717 18.1763 0.214875 19.4802 1.10041C20.2223 1.5855 20.6006 2.57684 20.2839 3.41841C19.8666 4.57908 18.6456 5.55251 17.3709 5.31971C16.6516 5.11788 16.0508 4.64905 15.4809 4.18511C14.5537 3.42495 13.659 2.59312 12.5581 2.08524C11.6943 1.65549 10.6794 1.67991 9.75715 1.88013C8.1123 2.27406 6.81329 3.52585 5.98031 4.95508C4.95245 6.76525 4.41826 8.85861 4.46697 10.9406C4.46371 13.4556 5.16841 15.9966 6.5957 18.077C8.03759 20.1801 10.267 21.764 12.7725 22.2833C14.5472 22.6886 16.4681 22.5926 18.1357 21.8324C18.8745 21.5068 19.5646 21.0787 20.2206 20.6099C20.5697 20.815 20.9253 21.0071 21.2972 21.1666C19.6296 23.0614 17.4684 24.5476 15.0441 25.2801C12.4996 26.0436 9.68406 25.9996 7.21272 24.9871C4.51568 23.8997 2.3431 21.6777 1.16423 19.0325C0.446534 17.4926 0.107167 15.8029 0 14.1116V12.9754C0.110417 11.4013 0.431917 9.83205 1.07655 8.38658C2.20343 5.78855 4.19741 3.60565 6.61515 2.15202C8.76177 0.83511 11.2477 0.130226 13.7548 0Z"
          fill="#E8F1FB"></path>
    <path d="M40.1569 0H40.1715C40.3776 0.0716263 40.5791 0.148132 40.7836 0.221384C40.6277 1.57899 40.5027 2.94147 40.3404 4.29907C42.6722 2.59964 45.1224 0.872513 47.9882 0.245804C48.5355 0.117207 49.0941 0.0618583 49.6511 4.16723e-06H50.6659C51.7325 0.0911623 52.8238 0.250688 53.78 0.761823C54.9119 1.31528 55.797 2.305 56.2987 3.4526C57.0309 5.07557 57.1543 6.88893 57.1672 8.64537C57.1672 12.1549 57.1689 15.6629 57.1672 19.1725C57.1609 19.905 57.1772 20.6408 57.247 21.37C57.3428 21.9658 57.4173 22.6072 57.8086 23.0923C58.1707 23.5643 58.7343 23.8248 59.2929 23.9778C60.0204 24.1748 60.7606 24.3262 61.5093 24.4027C61.524 24.6843 61.527 24.9659 61.527 25.2475H48.5209C48.5289 24.9708 48.4833 24.6827 48.5565 24.4108C49.672 24.2171 50.8833 24.0983 51.8283 23.4146C52.723 22.7081 52.7686 21.4742 52.8514 20.4292C52.9049 17.9614 52.871 15.4903 52.8806 13.021C52.866 11.3508 52.9471 9.66763 52.6499 8.0154C52.4228 6.75873 51.9809 5.476 51.0539 4.55953C49.8296 3.27519 47.9606 2.87637 46.2476 2.92358C45.3611 2.88939 44.471 3.02776 43.6335 3.31914C42.5096 3.72937 41.5174 4.4342 40.6456 5.24323C40.5223 5.33277 40.5758 5.49717 40.5612 5.62413C40.5708 10.5206 40.5562 15.4171 40.5678 20.3152C40.6214 21.1405 40.639 22 40.9948 22.7619C41.2983 23.3934 41.951 23.7613 42.5974 23.9518C43.3542 24.165 44.1286 24.3213 44.9113 24.4059C44.9146 24.6859 44.9146 24.9676 44.9146 25.2475C40.5821 25.2475 36.247 25.2475 31.9131 25.2492C31.9228 24.9676 31.9245 24.6859 31.9309 24.4043C32.7104 24.3197 33.4833 24.1569 34.235 23.9257C34.9413 23.7011 35.6169 23.2437 35.8896 22.5258C36.3198 21.3147 36.229 20.0092 36.2809 18.746V7.60357C36.2663 6.86617 36.2746 6.09943 35.9464 5.42063C35.4284 4.3886 34.4542 3.6968 33.5531 3.02286C33.5514 2.83566 33.5498 2.65009 33.5464 2.46452C35.7469 1.63433 37.9584 0.83507 40.1569 0Z"
          fill="#E8F1FB"></path>
    <path d="M71.7552 7.62939e-06H72.8937C73.5949 0.0748885 74.2998 0.146511 74.9801 0.336967C76.8132 0.79764 78.4777 1.94037 79.5037 3.53727C80.4065 4.9144 80.8254 6.56014 80.9036 8.19447C75.5241 8.18634 70.1445 8.19937 64.7667 8.18797C64.648 9.0979 64.5994 10.0176 64.5393 10.9341C64.2942 13.5516 65.0071 16.2669 66.5771 18.383C67.9703 20.2957 70.1056 21.6419 72.4291 22.0668C73.957 22.3354 75.5709 22.3256 77.0423 21.7868C78.6269 21.2268 79.9164 20.0499 80.9036 18.7135C81.1859 18.9186 81.4685 19.1253 81.7478 19.3385C80.2702 21.8356 78.0604 23.9485 75.3535 25.0424C71.7326 26.5238 67.3582 25.7912 64.3331 23.3332C62.6962 22.0326 61.459 20.2599 60.7025 18.3146C59.8563 16.1871 59.6292 13.8397 59.9052 11.5754C60.3192 7.82004 62.3002 4.18674 65.4536 2.0592C67.3013 0.778103 69.5241 0.125354 71.7552 7.62939e-06ZM69.6817 1.3218C68.115 1.62457 66.8711 2.81288 66.0834 4.15257C65.5527 5.08857 65.0962 6.09947 64.9419 7.17057C66.1695 7.0387 67.4054 7.09407 68.6343 6.99314C70.9678 6.9085 73.2996 6.8108 75.6311 6.69524C75.2544 5.0544 74.605 3.37774 73.3076 2.2464C72.3334 1.38365 70.9499 1.03205 69.6817 1.3218Z"
          fill="#E8F1FB"></path>
    <path d="M124.75 2.28882e-05H125.698C127.699 0.130249 129.733 0.675569 131.376 1.85412C131.44 3.50147 131.475 5.1537 131.563 6.80107C131.152 6.88734 130.737 6.9541 130.326 7.04037C129.819 5.3751 129.204 3.63984 127.918 2.4092C126.552 1.10369 124.186 0.939275 122.732 2.1813C121.816 2.97405 121.408 4.23237 121.481 5.4223C121.471 6.69364 122.259 7.80867 123.193 8.60144C124.747 9.90044 126.624 10.7095 128.356 11.7334C129.761 12.5636 131.175 13.5077 132.088 14.8978C132.872 16.0796 133.133 17.5593 132.938 18.956C132.761 20.592 131.938 22.127 130.732 23.2339C128.944 24.9008 126.491 25.7196 124.078 25.8026C121.577 25.8629 119.02 25.2215 116.966 23.7564C116.834 22.2816 116.771 20.802 116.631 19.3271C116.56 18.7395 116.605 18.1405 116.488 17.5561C116.928 17.4649 117.37 17.3624 117.821 17.3412C118.209 19.2832 119.02 21.1975 120.387 22.6544C121.423 23.7304 122.897 24.388 124.397 24.3571C125.516 24.3864 126.651 23.9632 127.448 23.1704C129.003 21.6224 129.163 18.8599 127.741 17.1752C126.932 16.1838 125.81 15.5164 124.698 14.919C122.938 13.9651 121.048 13.1903 119.508 11.8799C118.482 11.0301 117.685 9.876 117.375 8.56887C117.037 7.0973 117.121 5.49067 117.792 4.12164C118.42 2.81125 119.521 1.77433 120.791 1.0939C122.006 0.429749 123.375 0.102574 124.75 2.28882e-05Z"
          fill="#E8F1FB"></path>
    <path d="M78.2774 0.546968C82.1986 0.553481 86.1218 0.553481 90.0446 0.546968C90.0396 0.825325 90.0396 1.10368 90.043 1.38204C89.3125 1.42925 88.5557 1.45855 87.8704 1.74993C87.4272 1.90783 87.0375 2.25455 86.9158 2.72174C86.823 3.25403 86.8978 3.80423 87.0684 4.31377C87.4435 5.48253 87.9256 6.61223 88.3642 7.7566C89.9 11.709 91.4637 15.6483 92.9853 19.6055C94.7325 15.5441 96.4293 11.4566 98.1586 7.3871C98.2753 7.13317 98.1018 6.88083 98.0236 6.6448C97.4767 5.34417 97.1029 3.93773 96.2587 2.78686C95.5442 1.81342 94.2777 1.57901 93.1638 1.38205C93.1671 1.10369 93.1671 0.826965 93.1688 0.548605C97.1372 0.548605 101.109 0.561628 105.079 0.542091C105.079 0.820451 105.079 1.10043 105.081 1.38042C104.223 1.44553 103.34 1.50414 102.549 1.87691C102.041 2.12108 101.638 2.64036 101.666 3.22475C101.688 3.99633 102.004 4.72073 102.267 5.4337C104.027 10.1593 105.832 14.8669 107.573 19.5974C108.297 18.1112 108.935 16.5843 109.613 15.0753C110.736 12.4919 111.844 9.89717 112.785 7.24057C113.162 6.0946 113.555 4.9421 113.712 3.74236C113.815 3.09776 113.627 2.35548 113.065 1.97456C112.337 1.509 111.449 1.509 110.626 1.38529C110.629 1.1053 110.627 0.826951 110.626 0.546965C113.763 0.558358 116.9 0.543708 120.037 0.553478C120.034 0.826951 120.034 1.10042 120.035 1.3739C119.09 1.47157 118.126 1.72388 117.377 2.3392C116.215 3.26543 115.627 4.67513 115.011 5.98553C112.041 12.5945 109.106 19.2197 106.13 25.8238C105.893 25.8173 105.657 25.8206 105.421 25.8368H105.376C103.168 20.1687 100.945 14.5056 98.7448 8.83423C96.3917 14.4909 94.0925 20.172 91.7577 25.8368H91.7154C91.4558 25.8173 91.1957 25.814 90.9361 25.8173C88.153 18.8958 85.3763 11.9727 82.5787 5.05606C82.1677 4.0989 81.7454 3.09615 80.9597 2.37991C80.2322 1.70762 79.2354 1.45043 78.2725 1.37554C78.2771 1.09882 78.2774 0.823698 78.2774 0.546968Z"
          fill="#E8F1FB"></path>
    <path d="M24.9121 19.8844C28.7593 19.8844 31.878 16.7571 31.878 12.8994C31.878 9.04162 28.7593 5.9143 24.9121 5.9143C21.065 5.9143 17.9463 9.04162 17.9463 12.8994C17.9463 16.7571 21.065 19.8844 24.9121 19.8844Z"
          fill="white"></path>
    <path d="M20.3522 7.60034C21.4483 6.6985 22.7911 6.08157 24.2119 5.9546C26.2724 5.7267 28.4142 6.50154 29.8674 7.98124C31.1518 9.27537 31.9036 11.0887 31.8777 12.9184C31.8939 14.4942 31.3353 16.065 30.3465 17.2875C29.2959 18.6028 27.7533 19.5209 26.0938 19.7895C24.449 20.063 22.7018 19.7586 21.2826 18.8698C19.4884 17.784 18.2332 15.8453 18.0059 13.7568C17.7429 11.8148 18.3778 9.79957 19.6459 8.31824C19.2643 8.92867 19.05 9.64327 19.1474 10.3677C19.2822 11.6292 20.3473 12.7215 21.6009 12.8875C23.0834 13.1464 24.6081 12.0557 24.876 10.5809C24.9945 9.91677 24.9117 9.20214 24.5724 8.61124C24.0625 7.66547 22.9989 7.03877 21.9208 7.1055C21.3557 7.09737 20.8377 7.33987 20.3522 7.60034Z"
          fill="url(#paint0_radial_1_716)"></path>
    <path d="M20.3522 7.60034C21.4483 6.6985 22.7911 6.08157 24.2119 5.9546C26.2724 5.7267 28.4142 6.50154 29.8674 7.98124C31.1518 9.27537 31.9036 11.0887 31.8777 12.9184C31.8939 14.4942 31.3353 16.065 30.3465 17.2875C29.2959 18.6028 27.7533 19.5209 26.0938 19.7895C24.449 20.063 22.7018 19.7586 21.2826 18.8698C19.4884 17.784 18.2332 15.8453 18.0059 13.7568C17.7429 11.8148 18.3778 9.79957 19.6459 8.31824C19.2643 8.92867 19.05 9.64327 19.1474 10.3677C19.2822 11.6292 20.3473 12.7215 21.6009 12.8875C23.0834 13.1464 24.6081 12.0557 24.876 10.5809C24.9945 9.91677 24.9117 9.20214 24.5724 8.61124C24.0625 7.66547 22.9989 7.03877 21.9208 7.1055C21.3557 7.09737 20.8377 7.33987 20.3522 7.60034Z"
          fill="url(#paint1_radial_1_716)"></path>
</svg>