<svg xmlns="http://www.w3.org/2000/svg" width="60" height="40" viewBox="0 0 60 40" fill="none">
    <path d="M11.8505 4.00018L8.43253 0.337026H4.16012L1.80012 2.90545L0.742188 3.95808V10.0633L4.11943 13.9791H8.47322L11.8098 10.1476V4.00018H11.8505ZM3.26495 11.4528V2.82124H9.40909V11.4528H3.26495Z"
          fill="#E8F1FB"></path>
    <path d="M24.3422 4.0844L21.2091 0.337026H17.1808L14.9836 2.94755L14.0884 4.00018V13.8949H16.4891V9.93703H21.9008V13.8949H24.3015V11.2844L22.4705 9.43176L24.3422 7.74755V4.0844ZM16.4891 3.03176H21.9008V7.70545H16.4891V3.03176Z"
          fill="#E8F1FB"></path>
    <path d="M55.836 0.379132H51.238V2.90545H48.7967V13.937H51.238V2.90545H56.8939V13.937H59.3353V4.16861L55.836 0.379132Z"
          fill="#E8F1FB"></path>
    <path d="M46.8843 3.95808L43.4663 0.294922H39.2346L36.8746 2.86334L35.8167 3.91597V10.0212L39.1939 13.937H43.5477L46.8843 10.1054V3.95808ZM38.2988 11.4528V2.82124H44.4429V11.4528H38.2988Z"
          fill="#E8F1FB"></path>
    <path d="M32.1546 11.3686V2.90545L29.7539 0.379132H27.3939V2.82124H29.7539V11.3686H27.3939V13.8949H34.5146V11.3686H32.1546Z"
          fill="#E8F1FB"></path>
    <path d="M0.823568 37.7686V39.6633H59.376V37.7686H0.823568Z" fill="#E8F1FB"></path>
    <path d="M31.2187 21.3897L27.7601 17.7686H23.5284L21.1684 20.337L20.1105 21.3897V27.4949L23.4877 31.4107H27.8415L31.1781 27.5791V21.3897H31.2187ZM22.5925 28.8844V20.2528H28.7367V28.8844H22.5925Z"
          fill="#E8F1FB"></path>
    <path d="M43.3443 17.7265V20.2528H46.8436V31.3265H49.3256V22.316L47.576 20.2949H52.7843V17.7265H43.3443Z"
          fill="#E8F1FB"></path>
    <path d="M40.9843 20.1686V17.7265H36.3863L33.3346 21.2633V31.2844H35.6946V25.3897H40.9843V22.9055H35.6946V20.1686H40.9843Z"
          fill="#E8F1FB"></path>
    <path d="M14.658 23.2002H9.77529V20.2107H17.2622V17.7265H10.7518L7.3746 20.8002V22.6107L9.7346 24.7581L10.6705 25.6844H15.6346V28.8423H8.1477V31.3265H14.658L17.9946 28.2107V26.4002"
          fill="#E8F1FB"></path>
    <path d="M43.3443 17.7686V20.2949H46.8436V31.3686H49.3256V22.3581L47.576 20.337H52.7843V17.7686H43.3443Z"
          fill="#E8F1FB"></path>
</svg>