<svg width="249" height="21" viewBox="0 0 249 21" fill="none" xmlns="http://www.w3.org/2000/svg">
<g clip-path="url(#clip0_304_703)">
<path fill-rule="evenodd" clip-rule="evenodd" d="M11.591 8.27701C11.591 6.59401 11.591 5.65901 10.977 5.04701C10.362 4.43701 9.421 4.43701 7.727 4.43701H3.865C2.172 4.43701 1.23 4.43701 0.615 5.04701C0 5.66001 0 6.59501 0 8.27801V12.118C0 13.802 0 14.738 0.615 15.348C1.229 15.96 2.171 15.96 3.864 15.96H7.728C9.421 15.96 10.362 15.96 10.977 15.349C11.591 14.737 11.591 13.802 11.591 12.119V8.27901V8.27701Z" fill="#E8F1FB"/>
<path fill-rule="evenodd" clip-rule="evenodd" d="M57.81 12.634C57.81 14.532 56.149 16.184 52.762 16.184C48.444 16.184 47.519 13.199 47.519 12.36H50.586C50.586 12.973 51.236 13.733 52.762 13.733C54.288 13.733 54.825 13.193 54.825 12.634C54.825 12.076 54.57 11.635 53.297 11.432L51.463 11.153C49.076 10.769 47.665 9.746 47.665 7.826C47.665 5.906 49.32 4.21 52.503 4.21C56.041 4.21 57.583 6.547 57.583 8.034H54.516C54.516 7.273 53.81 6.662 52.503 6.662C51.195 6.662 50.651 7.124 50.651 7.825C50.651 8.367 51.077 8.651 52.145 8.809L54.077 9.103C56.464 9.464 57.811 10.578 57.811 12.633L57.81 12.634ZM68.584 4.437H73.322V7.274H68.584V10.796C68.584 12.473 69.308 13.122 70.922 13.122H73.322V15.959H70.342C67.073 15.959 65.513 14.269 65.513 11.157V0H68.584V4.437ZM26.808 13.347C25.135 13.347 23.935 12.023 23.935 10.197C23.935 8.373 25.135 7.047 26.808 7.047C28.494 7.047 29.716 8.373 29.716 10.197C29.716 12.023 28.493 13.347 26.808 13.347ZM27.477 4.211C26.166 4.211 24.969 4.689 24.201 5.545H23.935V4.438H20.865V20.396H23.935V14.852H24.201C24.911 15.622 26.066 16.186 27.477 16.186C30.634 16.186 32.787 13.662 32.787 10.199C32.787 6.736 30.634 4.211 27.477 4.211ZM97.803 6.779C99.132 6.779 100.178 7.626 100.595 8.914H95.03C95.444 7.626 96.483 6.779 97.803 6.779ZM97.803 4.211C94.485 4.211 91.797 6.735 91.797 10.198C91.797 13.64 94.396 16.185 97.9 16.185C100.5 16.185 102.835 14.712 103.618 12.422H100.337C99.843 13.184 98.89 13.617 97.9 13.617C96.345 13.617 95.24 12.597 94.926 11.094H103.768L103.762 11.085C103.801 10.796 103.829 10.502 103.829 10.198C103.829 6.735 101.141 4.211 97.803 4.211ZM75.288 15.959H78.358V4.437H75.288V15.959ZM75.288 2.837H78.358V0H75.288V2.837ZM59.733 15.96H62.804V4.437H59.734V15.959L59.733 15.96ZM59.733 2.838H62.804V0H59.734V2.837L59.733 2.838ZM40.183 13.348C38.482 13.348 37.248 12.024 37.248 10.198C37.248 8.374 38.482 7.048 40.182 7.048C41.895 7.048 43.137 8.374 43.137 10.198C43.137 12.053 41.923 13.348 40.183 13.348ZM40.183 4.212C36.864 4.212 34.176 6.736 34.176 10.199C34.176 13.641 36.822 16.186 40.182 16.186C43.562 16.186 46.208 13.662 46.208 10.199C46.208 6.736 43.521 4.21 40.182 4.21L40.183 4.212ZM88.288 4.438H91.491L87.995 15.96H83.34L79.844 4.437H83.048L85.424 13.122H85.911L88.288 4.437V4.438ZM249 12.634C249 14.532 247.338 16.184 243.951 16.184C239.633 16.184 238.708 13.199 238.708 12.36H241.775C241.775 12.973 242.425 13.733 243.951 13.733C245.477 13.733 246.014 13.193 246.014 12.634C246.014 12.076 245.759 11.635 244.486 11.432L242.652 11.153C240.265 10.769 238.854 9.746 238.854 7.826C238.854 5.906 240.51 4.211 243.691 4.211C247.23 4.211 248.772 6.548 248.772 8.035H245.705C245.705 7.274 244.999 6.663 243.691 6.663C242.384 6.663 241.84 7.125 241.84 7.826C241.84 8.368 242.266 8.652 243.334 8.81L245.266 9.104C247.653 9.465 249 10.579 249 12.634ZM208.767 10.084C208.767 8.294 209.99 6.994 211.675 6.994C213.348 6.994 214.548 8.294 214.548 10.084V10.086C214.548 11.876 213.348 13.176 211.675 13.176C209.99 13.176 208.767 11.876 208.767 10.085V10.084ZM214.548 5.546H214.306C214.298 5.53723 214.291 5.52856 214.283 5.52C213.514 4.68 212.318 4.21 211.007 4.21C207.85 4.21 205.696 6.687 205.696 10.085C205.696 13.482 207.85 15.959 211.007 15.959C212.418 15.959 213.571 15.406 214.283 14.649H214.548V15.837C214.548 17.514 213.824 18.163 212.211 18.163H207.468V21H212.791C216.059 21 217.619 19.311 217.619 16.198V4.437H214.548V5.546ZM171.93 8.992V15.959H168.859V9.454C168.859 8.024 167.838 7.048 166.389 7.048C164.94 7.048 163.919 8.023 163.919 9.454V15.959H160.848V4.437H163.919V5.546H164.15C164.93 4.674 166.091 4.211 167.418 4.211C170.074 4.211 171.93 6.17 171.93 8.992ZM187.361 15.959H190.431V0H187.361V15.959ZM231.284 6.779C232.612 6.779 233.659 7.626 234.076 8.914H228.51C228.925 7.626 229.964 6.779 231.284 6.779ZM231.284 4.211C227.966 4.211 225.278 6.735 225.278 10.198C225.278 13.64 227.876 16.185 231.381 16.185C233.981 16.185 236.316 14.712 237.099 12.422H233.817C233.324 13.184 232.37 13.617 231.381 13.617C229.826 13.617 228.72 12.597 228.407 11.094H237.249L237.243 11.085C237.282 10.796 237.31 10.502 237.31 10.198C237.31 6.735 234.622 4.211 231.284 4.211ZM220.328 15.959H223.399V4.437H220.328V15.959ZM220.328 2.837H223.399V0H220.328V2.837ZM198.185 13.347C196.484 13.347 195.25 12.023 195.25 10.197C195.25 8.373 196.484 7.047 198.185 7.047C199.897 7.047 201.14 8.373 201.14 10.197C201.14 12.052 199.925 13.347 198.185 13.347ZM198.185 4.211C194.867 4.211 192.179 6.735 192.179 10.198C192.179 13.64 194.825 16.185 198.185 16.185C201.565 16.185 204.211 13.661 204.211 10.198C204.211 6.735 201.523 4.211 198.185 4.211ZM179.587 13.347C177.886 13.347 176.652 12.023 176.652 10.197C176.652 8.373 177.886 7.047 179.587 7.047C181.299 7.047 182.542 8.373 182.542 10.197C182.542 12.052 181.327 13.347 179.587 13.347ZM179.587 4.211C176.269 4.211 173.581 6.735 173.581 10.198C173.581 13.64 176.227 16.185 179.587 16.185C182.968 16.185 185.613 13.661 185.613 10.198C185.613 6.735 182.925 4.211 179.587 4.211ZM114.348 4.437H119.086V7.274H114.348V10.796C114.348 12.473 115.072 13.122 116.686 13.122H119.086V15.959H116.105C112.837 15.959 111.277 14.269 111.277 11.157V0H114.348V4.437ZM142.361 11.458H145.529C145.123 14.22 142.721 16.185 139.783 16.185C136.423 16.185 133.826 13.64 133.826 10.198C133.826 6.735 136.465 4.211 139.783 4.211C142.684 4.211 145.114 6.027 145.527 8.841H142.351C142.002 7.664 141.049 7.048 139.783 7.048C138.083 7.048 136.897 8.373 136.897 10.198C136.897 12.023 138.083 13.348 139.783 13.348C141.075 13.348 142.068 12.621 142.361 11.458ZM158.358 8.992V15.959H155.287V9.454C155.287 8.024 154.266 7.048 152.817 7.048C151.368 7.048 150.347 8.023 150.347 9.454V15.959H147.276V0H150.347V5.546H150.578C151.358 4.674 152.519 4.211 153.846 4.211C156.502 4.211 158.358 6.17 158.358 8.992ZM126.315 6.779C127.643 6.779 128.69 7.626 129.107 8.914H123.541C123.955 7.626 124.995 6.779 126.315 6.779ZM126.315 4.211C122.997 4.211 120.309 6.735 120.309 10.198C120.309 13.64 122.907 16.185 126.412 16.185C129.012 16.185 131.347 14.712 132.13 12.422H128.848C128.355 13.184 127.402 13.617 126.412 13.617C124.857 13.617 123.751 12.597 123.438 11.094H132.28L132.273 11.085C132.313 10.796 132.341 10.502 132.341 10.198C132.341 6.735 129.653 4.211 126.315 4.211Z" fill="#E8F1FB"/>
</g>
<defs>
<clipPath id="clip0_304_703">
<rect width="249" height="21" fill="white"/>
</clipPath>
</defs>
</svg>
