<svg width="27" height="28" viewBox="0 0 27 28" fill="none" xmlns="http://www.w3.org/2000/svg">
<path d="M18.2376 10.948C18.8509 10.3347 19.4598 8.90354 16.9042 10.6413C13.2731 13.1469 9.69422 15.4991 9.69422 15.4991C9.32582 15.6657 8.92754 15.7561 8.52333 15.7649C8.11911 15.7737 7.71728 15.7006 7.342 15.5502C5.80866 15.0902 4.01866 14.4769 4.01866 14.4769C4.01866 14.4769 2.79644 13.7091 4.88866 12.8913C4.88866 12.8913 13.7342 9.26132 16.802 7.98243C17.9775 7.47132 21.9653 5.83577 21.9653 5.83577C21.9653 5.83577 23.8064 5.1191 23.6531 6.85799C23.602 7.57354 23.1931 10.0802 22.7842 12.7891C22.1698 16.6235 21.5053 20.8169 21.5053 20.8169C21.5053 20.8169 21.4031 21.9924 20.5342 22.1969C19.6041 22.1811 18.7054 21.8576 17.9787 21.2769C17.7742 21.1235 14.1442 18.8224 12.8142 17.698C12.6789 17.6063 12.569 17.482 12.4947 17.3364C12.4204 17.1909 12.3841 17.0289 12.3892 16.8656C12.3943 16.7023 12.4406 16.5429 12.5239 16.4022C12.6071 16.2616 12.7246 16.1444 12.8653 16.0613C14.7098 14.3747 16.9087 12.278 18.2376 10.948Z" fill="#E8F1FB"/>
</svg>
