<svg width="28" height="28" viewBox="0 0 28 28" fill="none" xmlns="http://www.w3.org/2000/svg">
<path d="M15.7079 13.8294H7.48669V10.4414H15.7079C16.1881 10.4414 16.522 10.5286 16.6896 10.6808C16.8571 10.833 16.961 11.1154 16.961 11.5278V12.7443C16.961 13.1788 16.8571 13.4612 16.6896 13.6134C16.522 13.7656 16.1881 13.8307 15.7079 13.8307V13.8294ZM16.2719 7.24735H4.00012V21.7358H7.48669V17.0221H13.9121L16.961 21.7358H20.8652L17.5037 17C18.743 16.8088 19.2995 16.4132 19.7585 15.7614C20.2174 15.1096 20.4475 14.0675 20.4475 12.6766V11.5902C20.4475 10.7654 20.3637 10.1136 20.2174 9.61396C20.0711 9.11435 19.821 8.6798 19.4658 8.28949C19.0907 7.91998 18.673 7.65978 18.1715 7.48543C17.67 7.33321 17.0435 7.24604 16.2719 7.24604V7.24735Z" fill="#E8F1FB"/>
<path d="M23.5438 7.24604C25.0231 7.24604 26.2223 6.01253 26.2223 4.49094C26.2223 2.96934 25.0231 1.73584 23.5438 1.73584C22.0644 1.73584 20.8652 2.96934 20.8652 4.49094C20.8652 6.01253 22.0644 7.24604 23.5438 7.24604Z" fill="#E8F1FB"/>
</svg>
