<svg width="27" height="28" viewBox="0 0 27 28" fill="none" xmlns="http://www.w3.org/2000/svg">
<path d="M24.4393 11.662C24.4892 10.2226 24.1732 8.79397 23.5207 7.50879C23.0779 6.98144 22.4635 6.62557 21.7844 6.50318C18.9756 6.24928 16.1551 6.14522 13.3352 6.19144C10.5255 6.14313 7.71519 6.24383 4.91624 6.49312C4.36287 6.5934 3.85077 6.85196 3.44242 7.23727C2.53391 8.07193 2.43296 9.49989 2.33201 10.7066C2.18555 12.8763 2.18555 15.0533 2.33201 17.223C2.36122 17.9022 2.46273 18.5764 2.63485 19.2342C2.75657 19.7421 3.00283 20.212 3.35157 20.6018C3.76269 21.0075 4.28672 21.2808 4.85567 21.3862C7.03199 21.6538 9.22485 21.7647 11.4172 21.7181C14.9503 21.7683 18.0494 21.7181 21.7137 21.4365C22.2966 21.3376 22.8354 21.0639 23.2582 20.6521C23.5408 20.3705 23.7519 20.0257 23.874 19.6465C24.235 18.543 24.4123 17.388 24.3989 16.2274C24.4393 15.6643 24.4393 12.2653 24.4393 11.662ZM11.0538 16.8308V10.6061L17.0298 13.7335C15.3541 14.6587 13.1434 15.7045 11.0538 16.8308Z" fill="#E8F1FB"/>
</svg>
