<svg width="27" height="28" viewBox="0 0 27 28" fill="none" xmlns="http://www.w3.org/2000/svg">
<g clip-path="url(#clip0_10_387)">
<path d="M3.46037 11.9733C3.5199 12.0612 3.57922 12.1493 3.63892 12.2372C3.28183 12.2262 2.90615 12.1919 2.83337 12.0406C2.83488 12.033 2.83639 12.0254 2.8383 12.018C3.03884 11.9659 3.21094 11.9627 3.46037 11.9733ZM5.36576 12.7749C5.39424 12.8618 5.4235 12.9485 5.45196 13.0352C5.38429 13.038 5.31716 13.041 5.25004 13.0437C5.26615 12.9551 5.28253 12.8664 5.2981 12.7778C5.32093 12.7767 5.34295 12.776 5.36576 12.7749ZM6.05559 14.6759C5.87664 14.8392 5.73757 14.9482 5.63129 15.1942C5.48296 15.0749 5.4068 14.837 5.35912 14.571C5.30748 14.2821 5.28944 13.9599 5.25004 13.7191C5.25434 13.6782 5.25848 13.6373 5.26263 13.5962C5.33199 13.5912 5.40135 13.5861 5.47037 13.5813C5.64636 13.9112 5.82299 14.2408 5.99964 14.571C6.01834 14.6058 6.03672 14.6408 6.05559 14.6759ZM5.78707 12.2372C5.80963 12.0887 5.83245 11.9405 5.85609 11.7924C5.86092 11.7627 5.8652 11.7328 5.86924 11.7033C5.89205 11.7022 5.91462 11.7011 5.9369 11.6996C5.88643 11.8789 5.83648 12.0579 5.78707 12.2372ZM5.64297 9.81787C5.95942 9.90271 6.27586 9.98771 6.59264 10.0727C6.59113 10.0868 6.58992 10.1009 6.58871 10.1149C6.14648 10.4361 5.73786 10.5788 5.51854 11.162C5.54611 10.7289 5.57413 10.2959 5.60155 9.86283C5.61525 9.84766 5.62897 9.83285 5.64297 9.81787ZM6.52995 8.4738C6.46769 9.07773 6.55469 9.34541 6.66134 9.72004C6.8307 9.83956 6.89733 9.91068 6.8422 10.0867C6.55703 9.94744 6.25585 9.80136 5.81965 9.82396C5.8086 9.81202 5.79769 9.80009 5.78707 9.7883C5.91017 9.31151 6.14818 9.01901 6.33296 8.64138C6.39872 8.58536 6.4642 8.52949 6.52995 8.4738ZM7.894 7.67019C7.90779 7.6694 7.92176 7.6683 7.93521 7.66735C7.80449 8.11277 7.75177 9.14094 7.52247 9.54906C6.98179 9.29586 6.99215 8.19955 7.59787 7.76646C7.69675 7.7342 7.79528 7.70213 7.894 7.67019ZM7.38966 10.9715C7.54165 11.1345 7.69333 11.2974 7.84549 11.4605C7.6668 12.0046 7.32739 12.4145 7.18461 13.0437C7.0944 13.0371 7.00498 13.0304 6.91478 13.024C6.68523 12.3892 7.26076 11.3557 7.35845 10.8932C7.49906 10.9093 7.6395 10.9252 7.78041 10.9415C7.83207 11.0718 7.88372 11.202 7.93521 11.3325C7.75358 11.2121 7.57146 11.0916 7.38966 10.9715ZM8.63657 7.66735C8.59075 8.19506 8.70834 8.46831 8.74078 8.8781C8.47241 9.0121 8.20343 9.14641 7.93521 9.28024C8.00269 8.60708 8.14041 8.16355 8.32838 7.68995C8.43122 7.68231 8.53405 7.67482 8.63657 7.66735ZM8.94966 6.86468C8.9696 6.86322 8.98981 6.86216 9.0093 6.86091C8.97983 6.94679 8.94966 7.03267 8.91852 7.11835C8.85982 7.12214 8.79995 7.12593 8.74078 7.12972C8.78593 7.07668 8.83203 7.0232 8.87835 6.96995C8.90235 6.93478 8.92588 6.89985 8.94966 6.86468ZM9.0093 9.32793C8.74114 9.49112 8.47235 9.65468 8.20373 9.81787C8.22004 9.52097 8.60243 9.12249 8.92181 9.01143C8.94641 9.02461 8.97009 9.03778 8.995 9.05097C8.9996 9.14322 9.00438 9.23568 9.0093 9.32793ZM9.54633 7.4753C9.49778 7.74791 9.44921 8.02052 9.40123 8.29312C9.35081 8.32445 9.30026 8.35543 9.25041 8.38657C9.22392 8.41588 9.19756 8.44483 9.17078 8.4738C9.02468 8.27106 8.98858 7.77486 9.01953 7.39854C9.19541 7.42429 9.37087 7.44988 9.54633 7.4753ZM10.0834 6.86167C10.0822 6.87064 10.0812 6.8794 10.0801 6.88816C10.0111 6.95299 9.94267 7.01791 9.87419 7.08284C9.73753 7.13474 9.72039 7.13256 9.54633 7.12686C9.56992 7.03818 9.5948 6.94948 9.61941 6.86091C9.77393 6.86111 9.92886 6.86134 10.0834 6.86167ZM10.6204 5.78563C10.5405 5.96466 10.4606 6.14387 10.3807 6.32326C10.1025 6.30344 9.82442 6.2836 9.54633 6.26358C9.54786 6.24916 9.54893 6.23474 9.55048 6.22014C9.89355 6.06346 10.1941 5.87812 10.6204 5.78563ZM10.1866 7.18095C10.2162 7.16381 10.2456 7.14687 10.2752 7.12972C10.3007 7.21945 10.3264 7.3089 10.3519 7.39854C10.2624 7.3813 10.1726 7.36406 10.0834 7.3467C10.1176 7.29145 10.1519 7.23611 10.1866 7.18095ZM10.8889 7.97642C10.5691 8.09923 10.1269 8.06546 9.87123 8.20498C9.85263 8.09719 9.83402 7.98972 9.81485 7.88192C9.87123 7.81046 9.92646 7.73881 9.98209 7.66735C10.253 7.77208 10.5237 7.87748 10.794 7.98239C10.8257 7.98051 10.8572 7.97847 10.8889 7.97642ZM10.2022 8.46009C10.0805 8.46459 9.95854 8.4692 9.83746 8.4738C9.82925 8.43584 9.82268 8.39789 9.81485 8.35995C10.0714 8.25683 10.5023 8.24686 10.8889 8.20498C10.7529 8.27887 10.6174 8.35276 10.4812 8.42675C10.3882 8.43777 10.2955 8.44888 10.2022 8.46009ZM11.1574 8.46001C10.8498 8.53549 10.5552 8.80296 10.3542 9.01143C10.3148 8.76865 10.7885 8.33888 11.0155 8.20498C11.1162 8.29346 11.1268 8.28418 11.1574 8.46001ZM11.6945 5.248C11.6933 5.26244 11.6919 5.27633 11.6905 5.29058C11.5829 5.35444 11.4751 5.41847 11.3677 5.48233C11.2082 5.49376 11.0485 5.50538 10.8889 5.51681C10.8908 5.50292 10.8922 5.4885 10.8936 5.4746C11.1609 5.39895 11.428 5.32348 11.6945 5.248ZM11.2601 6.05444C11.2259 6.00422 11.1919 5.95401 11.1574 5.90378C11.3993 5.7021 11.9347 5.81327 12.2315 5.84295C11.9076 5.91346 11.5842 5.98408 11.2601 6.05444ZM13.663 5.26273C14.1121 5.29895 14.5221 5.40396 14.8336 5.59599C14.8612 5.59418 14.8889 5.59279 14.9167 5.59113C14.9002 5.61429 14.8833 5.63719 14.8668 5.66035C14.7236 5.70212 14.5805 5.74388 14.4375 5.78563C14.1797 5.74915 13.9211 5.71252 13.663 5.67589C13.0965 5.59571 12.5294 5.51537 11.963 5.43519C11.9642 5.42394 11.966 5.41298 11.9673 5.40189C12.517 5.27605 13.1183 5.21862 13.663 5.26273ZM15.4495 5.12095C15.4174 5.16331 15.3859 5.20582 15.3542 5.248C15.0647 5.22758 14.8255 5.11544 14.6482 4.97918C14.9168 5.01282 15.1849 5.0468 15.4538 5.08062C15.4525 5.09418 15.4508 5.10758 15.4495 5.12095ZM16.8795 6.1147C16.9533 6.08672 17.0282 6.05872 17.1024 6.03087C17.1796 6.09643 17.256 6.16244 17.3333 6.228C17.3022 6.45133 17.0831 6.63505 16.9156 6.8531C16.8726 6.8556 16.8299 6.85825 16.7869 6.86091C16.4363 6.28883 15.9944 5.66168 15.2191 5.44143C15.2078 5.4186 15.1966 5.39576 15.1853 5.37293C15.29 5.33138 15.394 5.28954 15.4985 5.248C16.025 5.42936 16.4639 5.70469 16.9529 5.86366C17.0156 6.01393 16.9962 5.96326 16.8795 6.1147ZM17.5277 7.38886C17.5073 7.36923 17.4873 7.34908 17.4667 7.32918C17.422 7.33187 17.3779 7.33563 17.3333 7.33886C17.4069 7.26923 17.4811 7.19933 17.5556 7.12972C17.5454 7.216 17.5371 7.30283 17.5277 7.38886ZM17.7645 10.3555C18.1277 10.6661 18.2207 11.1153 18.0694 11.6996C17.9134 11.3533 17.7583 11.007 17.6018 10.6607C17.6535 10.5838 17.7041 10.5068 17.7551 10.4296C17.7583 10.405 17.7609 10.38 17.7645 10.3555ZM17.8703 7.93923C17.8686 7.95587 17.8679 7.97253 17.866 7.98917C17.8026 8.06097 17.7388 8.13298 17.6751 8.20498C17.6505 8.15731 17.6266 8.10946 17.6018 8.06179C17.7162 7.8591 17.6339 7.96796 17.7839 7.94651C17.8126 7.94401 17.8415 7.9413 17.8703 7.93923ZM18.0936 7.93617C18.3772 8.03981 18.6617 8.14362 18.9445 8.24725C18.9427 8.27527 18.9395 8.30345 18.9368 8.33147C18.8653 8.37908 18.7938 8.42652 18.7221 8.4738C18.4379 8.37015 18.1545 8.26634 17.8703 8.16288C17.8732 8.1347 17.8758 8.10651 17.8783 8.07849C17.95 8.03088 18.0217 7.98344 18.0936 7.93617ZM19.7501 9.01143C19.5929 8.90795 19.4359 8.805 19.2785 8.70206C19.2565 8.66033 19.2349 8.61844 19.2131 8.5769C19.4176 8.45301 19.388 8.45919 19.6046 8.50038C19.6525 8.67072 19.7012 8.8409 19.7501 9.01143ZM20.0186 8.90924C19.9872 8.94331 19.9557 8.97723 19.9242 9.01143C19.8091 8.95343 19.7889 8.87913 19.7501 8.74261C19.8321 8.77759 19.9138 8.81284 19.9961 8.84809C20.0038 8.86846 20.0112 8.88886 20.0186 8.90924ZM19.818 8.14047C19.7944 8.14207 19.7729 8.14342 19.7501 8.1453C19.8236 8.07567 19.8982 8.00606 19.9735 7.93617C19.9214 8.00443 19.8684 8.07218 19.818 8.14047ZM21.0926 9.49261C21.0486 9.5115 21.0048 9.53038 20.9616 9.54906C20.7212 9.41612 20.4818 9.28338 20.2427 9.15026C20.168 9.05013 20.0931 8.94962 20.0186 8.84911C20.391 8.57712 20.4041 8.89183 20.7552 9.06348C20.8671 9.20671 20.9799 9.34995 21.0926 9.49261ZM21.3611 9.72917C21.2716 9.69717 21.1824 9.6652 21.0926 9.6332C21.1465 9.60552 21.2007 9.57728 21.2545 9.54906C21.2901 9.60927 21.3256 9.66923 21.3611 9.72917ZM21.0345 10.1626C21.1314 10.3561 21.1307 10.3011 21.3611 10.2728C21.2239 10.3899 21.0862 10.5071 20.9484 10.6243C20.8177 10.3772 20.6867 10.1299 20.5556 9.88319C20.5569 9.86761 20.5586 9.85243 20.5605 9.83685C20.8501 9.77549 20.9437 9.87902 21.2265 9.92023C21.263 9.97777 21.2998 10.0355 21.3362 10.0933C21.2362 10.1166 21.1354 10.1396 21.0345 10.1626ZM21.0926 10.6449C21.2716 10.5481 21.4503 10.4521 21.6296 10.3555C21.522 10.5944 21.3824 10.7179 21.2162 10.8932C21.1754 10.8103 21.1341 10.7275 21.0926 10.6449ZM22.1668 11.6708C22.0213 11.795 21.927 11.8352 21.6511 11.8573C21.7249 11.8652 21.799 11.8735 21.8726 11.8816C21.8709 11.8947 21.8696 11.9074 21.8683 11.9204C21.6164 12.0258 21.3643 12.1315 21.1118 12.2372C21.1048 11.9175 21.0992 11.5979 21.0926 11.2784C21.2662 11.0753 21.4407 10.8723 21.6143 10.6689C21.6466 10.6542 21.6777 10.6394 21.7094 10.6243C21.8617 10.9733 22.0149 11.3224 22.1668 11.6708ZM21.8981 10.2007C23.3808 9.79185 23.0944 10.5693 22.4326 11.162C22.2543 10.8417 22.0756 10.5209 21.8981 10.2007ZM23.2408 10.3555C22.6945 12.8912 22.5891 13.0295 20.6573 14.1189C20.6239 14.0685 20.5895 14.0183 20.5556 13.9679C20.5786 13.8736 20.601 13.7794 20.6239 13.6851C21.8837 13.3299 22.6004 12.6787 22.5257 11.2023C22.7364 10.9352 22.9466 10.6683 23.157 10.4013C23.1851 10.386 23.2129 10.3709 23.2408 10.3555ZM23.3065 10.3555C23.2851 10.268 23.2631 10.1803 23.2408 10.0927C23.3082 10.0906 23.3753 10.0886 23.4419 10.0867C23.3968 10.1764 23.3517 10.266 23.3065 10.3555ZM20.0186 12.8212C20.0246 12.7279 20.031 12.6345 20.0376 12.5412C20.0427 12.4612 20.048 12.381 20.0537 12.301C20.1155 12.2807 20.178 12.2603 20.2401 12.2402C20.2491 12.2394 20.2578 12.2382 20.2665 12.2372C20.3188 12.5543 20.2669 12.7895 20.1595 13.0437C20.0697 12.9869 20.052 12.9627 20.0186 12.8212ZM18.9445 15.1733C18.9461 15.1578 18.9474 15.1423 18.9487 15.1268C19.0664 14.8493 19.1838 14.5719 19.301 14.2945C19.3251 14.2359 19.3504 14.1772 19.3753 14.1189C19.5814 14.1327 19.7889 14.1464 19.9954 14.1602C20.0044 14.2064 20.0108 14.2509 20.0144 14.2945C20.0416 14.6106 19.9308 14.8638 19.8163 15.1942C19.5257 15.187 19.2355 15.1805 18.9445 15.1733ZM19.2131 16.2525C19.2153 16.1139 19.218 15.9751 19.2206 15.8367C19.2242 15.8016 19.2276 15.7666 19.2308 15.7319C19.3821 15.7429 19.5329 15.7541 19.6838 15.7653L19.7501 15.7603C19.6463 15.9299 19.5429 16.0995 19.4399 16.2695C19.3638 16.2638 19.2885 16.2582 19.2131 16.2525ZM18.9472 14.513C18.9561 14.5083 18.9653 14.5037 18.9745 14.4989C19.0463 14.4627 19.1178 14.4263 19.1895 14.3901C19.1972 14.3893 19.2049 14.3886 19.2131 14.3878C19.2017 14.4248 19.1914 14.4617 19.1806 14.4991C19.1393 14.6412 19.098 14.7834 19.0564 14.9254C19.0195 14.7991 18.9815 14.6725 18.9445 14.5459C18.9453 14.5348 18.9459 14.5239 18.9472 14.513ZM18.5283 15.8514C18.4879 15.8115 18.447 15.7713 18.4074 15.7319C18.5257 15.813 18.4485 15.7338 18.5283 15.8514ZM17.8703 15.5317C18.0211 15.4375 18.1845 15.4665 18.4074 15.4698C18.3851 15.5412 18.3636 15.6131 18.3415 15.6845C18.1579 15.7569 18.1319 15.7302 17.923 15.7091C17.9056 15.6501 17.8885 15.5909 17.8703 15.5317ZM18.1992 16.5382C18.2689 16.6998 18.3383 16.8614 18.4074 17.0227C18.2468 17.1301 18.0858 17.2373 17.9249 17.3447C17.7813 17.1509 17.9383 16.6055 18.1992 16.5382ZM17.6692 14.8512C17.6473 14.8528 17.625 14.8542 17.6018 14.856C17.6317 14.7894 17.6607 14.723 17.69 14.6566C17.6837 14.7211 17.6762 14.7861 17.6692 14.8512ZM18.4424 14.9254C18.4311 14.918 18.4191 14.9107 18.4074 14.9032C18.4472 14.8216 18.4857 14.7398 18.5255 14.6582C18.5379 14.6576 18.5515 14.6571 18.5645 14.6566C18.6013 14.7425 18.6391 14.8286 18.676 14.9147C18.5981 14.9183 18.5204 14.9219 18.4424 14.9254ZM20.3016 11.4308C20.2973 11.4006 20.2922 11.3701 20.2871 11.3398C20.3578 11.2548 20.4029 11.2019 20.5244 11.162C20.535 11.2148 20.5456 11.2679 20.5556 11.321C20.5037 11.3552 20.4512 11.3894 20.3995 11.4239C20.3667 11.4263 20.3342 11.4286 20.3016 11.4308ZM20.2871 12.0873C20.2386 12.1505 20.1525 12.1862 20.0912 12.2372C20.0667 11.7892 20.0423 11.3413 20.0186 10.8932C20.108 11.2915 20.1974 11.6895 20.2871 12.0873ZM19.7944 13.8888C19.9721 13.7914 19.9971 13.8814 20.0186 14.1189C19.8389 14.1186 19.6608 14.1179 19.4816 14.1176C19.4846 14.0897 19.4874 14.0622 19.4902 14.0347C19.5916 13.9859 19.6929 13.9375 19.7944 13.8888ZM19.531 13.1458C19.5712 13.1119 19.6114 13.0776 19.6523 13.0437C19.6848 13.1016 19.7176 13.1595 19.7501 13.2172C19.7348 13.2491 19.7201 13.2807 19.7044 13.3125C19.6302 13.3041 19.5561 13.2955 19.4816 13.287C19.4983 13.2399 19.5146 13.1929 19.531 13.1458ZM19.4816 13.8587C19.3885 13.9453 19.2949 14.0323 19.2015 14.1189C19.1408 14.109 19.0798 14.0992 19.0193 14.089C18.9938 14.0916 18.9691 14.0939 18.9445 14.0963C18.9883 14.014 19.0313 13.932 19.0753 13.8501C19.2106 13.853 19.3463 13.856 19.4816 13.8587ZM18.4681 13.706C18.3564 13.6289 18.4375 13.6394 18.416 13.5813C18.4332 13.6227 18.4509 13.6644 18.4681 13.706ZM19.3149 12.506C19.0127 12.3513 18.7102 12.1964 18.4074 12.0415C18.4496 11.4269 18.526 10.7206 18.4643 10.0867C19.1642 10.3377 19.7912 11.4608 19.3149 12.506ZM18.676 12.506C18.8993 12.6218 18.8864 12.7289 19.1961 12.8223C19.2502 13.0216 19.168 13.1001 19.0393 13.3125C18.9298 13.3082 18.8202 13.3037 18.7104 13.2992C18.6423 12.9454 18.7159 12.7419 18.676 12.506ZM18.7374 14.2437C18.6249 14.1668 18.7055 14.177 18.6847 14.1189C18.7019 14.1609 18.7191 14.2025 18.7374 14.2437ZM20.5556 11.6563C20.5563 11.6398 20.5573 11.6234 20.5582 11.6071C20.639 11.5481 20.7195 11.4898 20.8003 11.4308C20.8429 11.7059 20.8269 12.1642 20.7633 12.506C20.6205 12.395 20.5941 11.928 20.5556 11.6563ZM20.5556 12.5058C20.6103 12.4163 20.6643 12.3267 20.7178 12.2372C20.6858 12.3249 20.6539 12.4128 20.6235 12.5009C20.6007 12.5028 20.5784 12.5047 20.5556 12.5058ZM22.1213 11.7022C22.137 11.7012 22.1519 11.7004 22.1666 11.6996C22.1794 12.7292 21.536 12.9166 20.6899 13.3041C20.645 13.307 20.6005 13.3099 20.5556 13.3125C20.7311 12.953 20.9065 12.5934 21.0826 12.2339C21.4288 12.0566 21.7754 11.8797 22.1213 11.7022ZM20.5299 9.69036C20.5388 9.71686 20.5473 9.74353 20.5556 9.7702C20.5333 9.78621 20.5105 9.80205 20.4884 9.81787C20.421 9.72822 20.3541 9.63873 20.2871 9.54906C20.3684 9.59622 20.4493 9.64338 20.5299 9.69036ZM20.2871 10.1375C20.2907 10.1219 20.2918 10.1058 20.2944 10.0906C20.314 10.0892 20.3339 10.0879 20.3537 10.0867C20.4214 10.1766 20.4884 10.266 20.5556 10.3555C20.4003 10.2819 20.3746 10.2641 20.2871 10.1375ZM20.5556 10.8245C20.4348 10.9369 20.3137 11.0495 20.1931 11.162C19.9335 10.7906 19.6748 10.4188 19.4155 10.0474C19.0802 9.7595 18.7432 9.47126 18.4074 9.18317C18.4821 9.12598 18.556 9.06862 18.6296 9.01143C19.1174 9.22 19.9712 9.61725 20.1431 10.1129C20.1991 10.2741 20.0065 10.4074 20.1376 10.5423C20.2933 10.702 20.4492 10.5881 20.5556 10.8245ZM18.2892 12.506C18.3162 12.5167 18.344 12.5274 18.3711 12.5379C18.3832 12.7961 18.3951 13.0544 18.4074 13.3125C18.3655 13.3029 18.3241 13.2933 18.2817 13.2837C18.1638 13.1977 18.0811 12.7974 18.1892 12.6236C18.2222 12.5845 18.256 12.5453 18.2892 12.506ZM17.6945 13.8535C17.7232 13.8524 17.7528 13.8512 17.7811 13.8501C17.8107 13.9202 17.8411 13.9902 17.8703 14.0604C17.8249 14.0781 17.7785 14.0959 17.7322 14.1136C17.6888 14.1154 17.646 14.1172 17.6018 14.1189C17.6332 14.0305 17.6641 13.942 17.6945 13.8535ZM17.449 18.1513C17.4107 18.0207 17.3716 17.8898 17.3333 17.7588C17.4988 17.7114 17.6639 17.664 17.8296 17.6163C17.8428 17.6158 17.8569 17.6146 17.8703 17.6135C17.8686 17.6257 17.8671 17.6382 17.8662 17.6503C17.7271 17.8175 17.5883 17.9841 17.449 18.1513ZM17.0648 17.076C17.1137 16.9185 17.1496 16.8944 17.2382 16.8072C17.263 16.8165 17.2882 16.8261 17.313 16.8352C17.3198 16.8586 17.3265 16.8817 17.3333 16.9049C17.2782 16.9583 17.2231 17.0117 17.1682 17.0655C17.1335 17.0687 17.0992 17.0724 17.0648 17.076ZM17.1911 17.3447C17.1492 17.299 17.1069 17.2532 17.0648 17.2077C17.1541 17.1638 17.2443 17.1199 17.3333 17.076C17.3103 17.1641 17.2869 17.2523 17.2635 17.3403C17.2396 17.3418 17.2152 17.3433 17.1911 17.3447ZM16.9082 18.5648C16.8707 18.5344 16.8335 18.5041 16.7963 18.4737C16.8237 18.472 16.852 18.4703 16.8792 18.4686C17.0177 18.3627 17.1554 18.2568 17.2933 18.1513C17.3064 18.259 17.3201 18.367 17.3333 18.4746C17.2282 18.5457 17.1218 18.6177 17.016 18.6888C16.9801 18.6474 16.9444 18.6061 16.9082 18.5648ZM16.9286 21.6428C16.2823 21.67 15.8965 21.5073 15.3674 21.4614C15.1662 21.0684 14.9651 20.6745 14.764 20.2813C14.7253 20.2419 14.6867 20.2025 14.6482 20.1631C15.6627 20.0441 16.3006 19.5605 17.0522 19.2264C17.3184 19.4757 17.9209 20.7492 17.3901 21.3131C17.2641 21.5059 17.1213 21.5249 16.9286 21.6428ZM14.1527 20.3172C14.2334 20.3123 14.3146 20.3069 14.396 20.3017C14.7616 20.5437 15.0108 20.978 15.1853 21.377C14.8273 21.2752 14.4688 21.1726 14.1111 21.0703C14.1908 20.8017 14.2244 20.5286 14.1527 20.3172ZM13.3813 19.3024C13.7845 19.1872 14.1871 19.0727 14.5904 18.9576C15.2246 19.0191 15.8587 19.0805 16.4933 19.1414C16.5046 19.1733 16.5163 19.2047 16.5278 19.2361C15.961 19.4879 15.3166 19.7001 14.6667 20.0252C13.9628 20.0805 13.7934 19.8211 13.3056 19.6504C13.3312 19.534 13.3565 19.4186 13.3813 19.3024ZM13.3056 20.569C13.3138 20.4914 13.3216 20.4137 13.3298 20.3359C13.4839 20.3247 13.6381 20.3131 13.7928 20.3017C13.8307 20.5045 13.8714 20.6177 13.8142 20.8394C13.6447 20.7494 13.4753 20.659 13.3056 20.569ZM12.7685 20.9902C12.8284 20.9569 12.8886 20.9246 12.9483 20.8915C13.169 20.7473 13.3353 20.9401 13.5741 21.0156C13.5423 21.0462 13.5106 21.0772 13.479 21.1082C13.2421 21.069 13.0053 21.0294 12.7685 20.9902ZM13.2899 20.5705C13.2316 20.5447 13.1733 20.5185 13.1153 20.4918C13.0891 20.4289 13.063 20.3648 13.0371 20.3017C13.1264 20.3073 13.216 20.3129 13.3056 20.3183C13.3004 20.4025 13.295 20.4864 13.2899 20.5705ZM12.5 20.5705C12.5897 20.6467 12.679 20.7223 12.7685 20.7978C12.7679 20.9386 12.7558 20.9227 12.7237 21.1082C12.6491 20.9289 12.5749 20.7499 12.5 20.5705ZM11.8036 19.5626C12.0556 19.4871 12.3918 19.5037 12.7685 19.4953C12.6514 19.585 12.5352 19.6745 12.4179 19.7641C12.1767 19.7406 11.9355 19.7174 11.6945 19.6939C11.7309 19.6502 11.7673 19.6063 11.8036 19.5626ZM11.1574 6.09122C11.6558 5.62057 12.907 5.76121 13.2206 6.06003C13.2489 6.05779 13.2775 6.05513 13.3056 6.05269C12.8882 6.43652 12.2424 6.48096 11.8457 6.86091C11.5348 6.65625 11.2776 6.52519 11.1574 6.09122ZM13.9001 6.86091C13.9706 6.93982 14.0407 7.01874 14.1111 7.09752C13.923 7.10845 13.7252 7.11952 13.5284 7.13585C13.084 7.17315 12.6451 7.23874 12.3384 7.39583C12.3253 7.39689 12.312 7.39764 12.2988 7.39854C12.2762 7.36409 12.2538 7.3298 12.2315 7.29564C12.6076 7.1068 13.0178 6.95495 13.5284 6.89115C13.6344 6.87798 13.745 6.86853 13.8605 6.8636C13.8741 6.86255 13.8871 6.8615 13.9001 6.86091ZM14.9462 5.51681C15.2932 5.86125 15.8119 6.06458 15.9908 6.59209C15.2617 6.25758 14.1421 6.26244 13.5741 5.73049C14.0752 5.83591 14.5007 5.79678 14.9462 5.51681ZM15.1853 7.39854C15.5178 7.44361 15.8499 7.48866 16.1812 7.53337C16.2078 7.53154 16.2337 7.52917 16.2593 7.52699C15.9935 7.75305 15.7272 7.97892 15.4606 8.20498C15.3353 7.95593 15.3049 7.6184 15.1853 7.39854ZM16.465 8.54827C16.3963 8.53805 16.3278 8.52755 16.2593 8.51735C16.3488 8.50282 16.4382 8.48831 16.5278 8.4738C16.5069 8.49879 16.4857 8.5238 16.465 8.54827ZM16.2593 7.90587C16.341 7.82651 16.4235 7.74716 16.5052 7.66735C16.5131 7.75687 16.5199 7.8464 16.5278 7.93617C16.4688 7.92328 16.4093 7.91061 16.3497 7.8975C16.3199 7.90066 16.2891 7.90294 16.2593 7.90587ZM16.7465 16.8025C16.7073 16.804 16.6676 16.8055 16.6288 16.8072C16.5944 16.7758 16.5612 16.7444 16.5278 16.7132C16.5537 16.6792 16.5791 16.6454 16.6056 16.6116C16.6688 16.5872 16.7324 16.5629 16.7963 16.5382C16.7793 16.6262 16.7631 16.7142 16.7465 16.8025ZM16.5325 17.2926C16.5652 17.2551 16.5986 17.2177 16.6314 17.1802C16.6342 17.1453 16.6371 17.1103 16.6399 17.076C16.6922 17.158 16.7443 17.2398 16.7963 17.3216C16.7065 17.3292 16.6171 17.3371 16.5278 17.3447C16.5293 17.3276 16.5308 17.31 16.5325 17.2926ZM16.4261 18.1513C16.3706 18.0853 16.3152 18.0196 16.2593 17.9538C16.438 17.9301 16.6175 17.9062 16.7963 17.8823L16.5405 18.1434C16.5025 18.146 16.4642 18.1483 16.4261 18.1513ZM16.5278 18.9576C16.3491 18.9365 16.1703 18.915 15.9908 18.8939C16.1167 18.8255 16.2433 18.7574 16.3693 18.6888C16.4222 18.7781 16.4754 18.8678 16.5278 18.9576ZM16.1512 18.1991C16.1872 18.2331 16.2231 18.2671 16.2593 18.3011C16.1297 18.3339 16.0006 18.3672 15.8704 18.3999C15.7316 18.4064 15.5927 18.4131 15.4538 18.42C15.6468 18.3304 15.8408 18.2405 16.0344 18.1513C16.0737 18.1673 16.1125 18.1832 16.1512 18.1991ZM14.6482 6.59209C14.9619 6.60048 15.2934 6.67906 15.4538 6.86091C15.2372 6.83972 14.8485 6.8742 14.7503 6.70952C14.717 6.67031 14.6824 6.63111 14.6482 6.59209ZM14.9209 7.66735C15.0742 7.79974 15.1279 7.95565 15.1 8.20498C14.8635 8.12438 14.9252 7.86874 14.9209 7.66735ZM15.1853 9.36188C15.1881 9.3466 15.1904 9.33135 15.1936 9.31609C15.7285 9.20135 15.8444 9.38463 15.6004 9.54906C15.39 9.5207 15.2936 9.4422 15.1853 9.36188ZM15.8731 16.2695C15.9119 16.279 15.9512 16.2887 15.9908 16.2984C15.9891 16.3109 15.9878 16.3231 15.9865 16.3356C15.8982 16.403 15.8104 16.4708 15.7223 16.5382C15.7591 16.4493 15.7957 16.3608 15.8321 16.2724C15.8465 16.2711 15.8597 16.2704 15.8731 16.2695ZM15.7251 9.71283C15.7916 9.65836 15.8587 9.60371 15.9252 9.54906C15.947 9.63886 15.9689 9.72827 15.9908 9.81787C15.9012 9.79856 15.8118 9.77906 15.7223 9.75956C15.7231 9.74391 15.7242 9.72827 15.7251 9.71283ZM16.5278 16.9011C16.3116 16.9566 16.0954 17.0125 15.8791 17.0681C15.8268 17.0707 15.7744 17.0732 15.7223 17.076C15.7234 17.0668 15.7251 17.0579 15.7265 17.0489C15.9701 17.002 16.1257 16.9223 16.2693 16.8072C16.345 16.821 16.421 16.8352 16.4965 16.8492C16.5069 16.8664 16.5176 16.8838 16.5278 16.9011ZM16.0646 16.2695C16.0401 16.2198 16.0152 16.1701 15.9908 16.1206C16.0521 16.0808 16.114 16.0405 16.1757 16.0007C16.2037 16.0158 16.2314 16.0304 16.2593 16.0449C16.224 16.1172 16.1886 16.1893 16.1533 16.2616C16.1238 16.2642 16.094 16.2668 16.0646 16.2695ZM14.3797 18.1283C14.4861 18.0467 14.593 17.9647 14.6992 17.8823C15.0293 17.9103 15.3587 17.9383 15.6889 17.9664C15.7 17.9904 15.711 18.0147 15.7223 18.0388C15.4997 18.1658 15.2768 18.293 15.054 18.42C14.8062 18.3799 14.5918 18.271 14.4634 18.1225C14.4356 18.1247 14.4076 18.1264 14.3797 18.1283ZM13.8824 18.1513C14.0481 18.2409 14.2142 18.3304 14.3797 18.42C14.1111 18.3735 13.8426 18.3265 13.5741 18.2801C13.6771 18.2372 13.7796 18.1942 13.8824 18.1513ZM13.8426 18.7C13.8414 18.7221 13.8402 18.7434 13.8392 18.765C13.7879 18.793 13.7372 18.8211 13.6863 18.8493C13.6485 18.8536 13.6116 18.859 13.5741 18.8633C13.5753 18.8416 13.5771 18.8201 13.5783 18.7986C13.6953 18.6449 13.6754 18.6963 13.8426 18.7ZM12.5765 7.75966C12.5513 7.73274 12.5258 7.706 12.5 7.67944C12.7664 7.53548 13.1874 7.46763 13.6013 7.43443C13.9421 7.40715 14.2779 7.40302 14.5179 7.39854C14.5613 7.66722 14.6049 7.93611 14.6482 8.20498C14.298 8.16693 13.9622 8.12188 13.6013 8.10537C13.3122 8.09245 13.007 8.09747 12.6649 8.13929C12.6361 8.01256 12.6065 7.88603 12.5765 7.75966ZM12.9714 18.5467C12.9934 18.5846 13.0151 18.6223 13.0371 18.6601C13.016 18.7406 12.9949 18.8213 12.9739 18.9016C12.7266 18.9204 12.4793 18.9389 12.2315 18.9576C12.3111 18.7176 12.4297 18.6023 12.5573 18.42C12.6952 18.4623 12.8332 18.5045 12.9714 18.5467ZM12.0559 17.6135C11.7187 17.5952 11.2557 17.3509 11.1574 17.076C11.5157 17.166 11.8732 17.2562 12.2315 17.3462C12.1731 17.4353 12.1147 17.5244 12.0559 17.6135ZM12.4332 17.5993C12.3658 17.6044 12.2989 17.6089 12.2315 17.6135C12.2337 17.5926 12.2366 17.5713 12.2385 17.5498C12.3131 17.4817 12.387 17.4127 12.4616 17.3447C12.452 17.4299 12.4426 17.5143 12.4332 17.5993ZM11.6945 7.76903C11.8035 7.73521 11.9121 7.70118 12.0211 7.66735C12.0913 7.754 12.1616 7.84093 12.2315 7.92774C12.1577 7.93056 12.0847 7.93327 12.0109 7.93617C11.9057 7.88045 11.7998 7.82475 11.6945 7.76903ZM11.6903 19.3108C11.6734 19.3695 11.6566 19.4281 11.6397 19.4869C11.6134 19.4892 11.5875 19.492 11.5615 19.4953C11.5165 19.4055 11.4712 19.3157 11.4259 19.2264C11.5157 19.2355 11.6047 19.2445 11.6945 19.2536C11.6931 19.2727 11.6914 19.2916 11.6903 19.3108ZM11.8397 18.1513C12.0488 18.1927 12.2574 18.2348 12.4659 18.2764C12.4774 18.3042 12.4887 18.3323 12.5 18.3603C12.3377 18.5594 12.1758 18.7583 12.0135 18.9576C11.8181 18.9292 11.622 18.9006 11.4259 18.8722C11.5641 18.6319 11.7019 18.3915 11.8397 18.1513ZM16.5278 9.72678C16.5682 9.66811 16.6086 9.60955 16.649 9.5509C16.6639 9.55029 16.678 9.54967 16.6929 9.54906C16.8056 9.57702 16.9175 9.60496 17.0299 9.63292C17.0414 9.64863 17.0533 9.66454 17.0648 9.68036C16.9392 9.72607 16.8135 9.77207 16.6875 9.81787C16.6344 9.78748 16.581 9.75707 16.5278 9.72678ZM17.2539 8.85793C17.1911 8.81949 17.1288 8.78133 17.0648 8.74261C17.2577 8.8125 17.1467 8.73428 17.2539 8.85793ZM17.1933 10.0867C17.1501 10.0508 17.1075 10.0148 17.0648 9.97878C17.1543 9.92506 17.2437 9.87135 17.3333 9.81787C17.2865 9.90728 17.2397 9.99705 17.1933 10.0867ZM17.0648 11.9684C17.2039 12.0024 17.3433 12.0365 17.4822 12.0706C17.5945 12.1138 17.592 12.1257 17.6018 12.2372C17.4224 12.1692 17.1224 12.1225 17.0648 11.9684ZM17.1056 11.2361C17.1246 11.2114 17.1443 11.1868 17.1633 11.162C17.2203 11.2517 17.2769 11.3412 17.3333 11.4308C17.2439 11.4136 17.1543 11.3965 17.0648 11.3792C17.0784 11.3316 17.092 11.2839 17.1056 11.2361ZM11.6666 20.0807C11.6758 20.1042 11.6851 20.1278 11.6945 20.1513C11.5739 20.1969 11.4531 20.2425 11.3328 20.288C11.2745 20.2925 11.216 20.2972 11.1574 20.3017C11.1586 20.2895 11.1595 20.2774 11.1612 20.2651C11.2023 20.2014 11.243 20.1377 11.2846 20.0742C11.4559 19.9959 11.4598 20.0469 11.6666 20.0807ZM10.8889 6.59209C11.1236 6.76346 11.1837 6.97634 11.1479 7.66735C10.9932 7.47188 10.9 7.05889 10.8889 6.59209ZM11.0436 6.05444C11.0366 6.11978 11.0299 6.18429 11.0232 6.24907C10.9783 6.25256 10.9335 6.25553 10.8889 6.25874C10.9397 6.19074 10.9918 6.12299 11.0436 6.05444ZM10.8889 6.32326C10.882 6.38805 10.8762 6.45283 10.8685 6.51762C10.7863 6.50231 10.7027 6.48725 10.6204 6.4722C10.6884 6.42434 10.7567 6.37595 10.8247 6.32809C10.8461 6.32623 10.868 6.32488 10.8889 6.32326ZM10.8889 21.9145C10.9328 21.4582 10.9775 21.0021 11.0216 20.546C11.3353 20.4644 11.6493 20.3831 11.963 20.3017C11.6331 20.8234 11.3035 21.3447 10.9734 21.8654C10.9453 21.882 10.917 21.8987 10.8889 21.9145ZM10.9553 18.2363C11.0037 18.2077 11.0516 18.1795 11.0997 18.1513C11.2314 18.3059 11.1133 18.528 10.9897 18.6888C10.8856 18.5926 10.8743 18.5332 10.9017 18.3154C10.9195 18.2891 10.9377 18.2624 10.9553 18.2363ZM10.0834 18.1048C10.1867 17.9413 10.2899 17.7775 10.3927 17.6135C10.5583 17.7093 10.7239 17.8052 10.8889 17.9012C10.719 18.1638 10.5478 18.426 10.3764 18.6888C10.222 18.5536 10.1277 18.3541 10.0834 18.1048ZM10.0834 20.21C10.2478 20.0613 10.4134 19.9128 10.578 19.7641C10.6562 19.771 10.7346 19.7779 10.8124 19.7849C10.8379 19.8265 10.8629 19.8685 10.8889 19.9104C10.8687 20.0407 10.8493 20.1713 10.8297 20.3017C10.5807 20.271 10.3323 20.2406 10.0834 20.21ZM9.27781 19.845C9.47436 19.7284 9.67177 19.6119 9.86831 19.4953C10.0186 19.5185 10.1681 19.5417 10.3181 19.5652C10.329 19.5854 10.3408 19.6057 10.3519 19.6263C10.194 19.7619 10.0364 19.8973 9.87891 20.0329C9.64216 20.0086 9.48512 19.9466 9.36189 19.8403C9.33347 19.8418 9.30539 19.8435 9.27781 19.845ZM9.19944 19.3256C9.27171 19.2923 9.34358 19.2594 9.41506 19.2264C9.44583 19.2331 9.4768 19.2395 9.50776 19.2462C9.52063 19.2609 9.53348 19.2757 9.54633 19.2904C9.33832 19.3588 9.12895 19.4272 8.92073 19.4953C8.86094 19.4746 8.80116 19.4537 8.74078 19.4331C8.89405 19.3971 9.04713 19.3614 9.19944 19.3256ZM8.47226 19.073C8.52482 18.9471 8.5777 18.8213 8.62996 18.695C8.92432 18.6573 8.99334 18.8007 9.21352 18.8911C9.23439 18.9229 9.25618 18.955 9.27781 18.9869C9.16825 19.0613 9.05855 19.135 8.94902 19.2092C8.86003 19.215 8.7712 19.2208 8.68206 19.2264C8.61228 19.1754 8.54266 19.1244 8.47226 19.073ZM7.93521 20.1763C8.06537 19.9494 8.1957 19.7221 8.32583 19.4953C8.58539 19.495 8.61664 19.5163 8.72367 19.6517C8.77063 19.7301 8.73014 19.6881 8.62643 19.7057C8.61811 19.7839 8.61072 19.8618 8.6024 19.9403C8.73846 19.9612 8.87397 19.9815 9.0093 20.0028C8.92962 20.1989 8.91686 20.1732 8.79559 20.2979C8.39591 20.3194 8.21492 20.2438 7.93521 20.1763ZM7.48289 19.2264C7.71041 19.2944 7.93774 19.362 8.16564 19.4294C8.17815 19.4561 8.19066 19.483 8.20373 19.5097C8.05737 19.6842 7.91138 19.8586 7.76539 20.0329C7.55342 19.9642 7.34126 19.8954 7.12966 19.8269C7.2474 19.627 7.36533 19.4268 7.48289 19.2264ZM4.85255 18.5C4.85555 18.4731 4.85819 18.4466 4.86134 18.42C4.98824 18.5166 5.11547 18.6134 5.24221 18.7099C5.25332 18.7353 5.26427 18.7609 5.27521 18.7865C4.48247 19.3902 5.6944 21.3596 7.07368 20.0839C7.2714 20.1623 7.46864 20.2406 7.66671 20.3189C7.43845 20.7206 7.04681 20.8788 6.63426 21.1052C5.64795 21.1865 4.26782 19.5966 4.85255 18.5ZM5.77246 18.7753C5.7775 18.836 5.78216 18.8965 5.78707 18.9576C5.71372 18.9031 5.64083 18.8489 5.56796 18.7944C5.55126 18.7592 5.53502 18.7239 5.51854 18.6888C5.60323 18.7178 5.6878 18.7465 5.77246 18.7753ZM7.12966 19.9169C6.96614 20.0419 6.80231 20.1672 6.63847 20.2916C5.67301 20.3919 5.28157 19.7318 5.25004 18.9202C5.31295 18.8452 5.3752 18.7703 5.43796 18.695C5.46567 18.6931 5.49339 18.6907 5.52094 18.6888C6.00749 19.0672 6.43727 19.6442 7.0973 19.8353C7.10776 19.8626 7.1187 19.8896 7.12966 19.9169ZM6.19394 16.0007C6.10599 15.9372 6.10044 15.9069 6.05559 15.8006C6.11723 15.5711 6.17841 15.3409 6.23973 15.1112C6.31136 15.0493 6.38298 14.9871 6.45444 14.9254C6.50056 14.9922 6.54699 15.0587 6.59264 15.1251C6.45984 15.4172 6.32689 15.7087 6.19394 16.0007ZM6.05559 16.2332C6.19682 15.9035 6.33806 15.5739 6.47961 15.2445C6.50882 15.2274 6.53769 15.2109 6.56639 15.1942C6.76125 15.5339 7.04371 15.6878 7.12966 16.149C6.91716 16.3683 6.70432 16.5877 6.49182 16.8072C6.294 16.6641 6.15607 16.4773 6.05559 16.2332ZM6.86114 17.0551C7.04092 16.8827 7.22019 16.7104 7.39998 16.5382C7.48855 16.7174 7.57763 16.8965 7.66671 17.076C7.39834 17.0687 7.12998 17.062 6.86114 17.0551ZM8.20373 11.6234C7.94912 12.1603 7.61086 12.5248 7.40796 13.0437C7.31969 12.5719 7.85324 11.8938 8.02531 11.4772C8.05242 11.4617 8.07984 11.4465 8.10694 11.4308C8.13932 11.4949 8.17137 11.5591 8.20373 11.6234ZM8.20373 10.145C8.60262 10.0228 8.87075 9.79906 9.15691 9.54906C9.19707 9.66875 9.23767 9.78862 9.27781 9.90829C9.16465 10.0572 9.05195 10.2066 8.93892 10.3555C8.69366 10.2855 8.44886 10.2151 8.20373 10.145ZM9.54633 10.1721C9.49791 10.2331 9.44927 10.2944 9.40085 10.3555C9.36 10.3489 9.3189 10.3418 9.27781 10.3351L9.28084 10.3059C9.36228 10.2328 9.44372 10.1598 9.52465 10.0867C9.53157 10.1152 9.53927 10.1437 9.54633 10.1721ZM9.33471 9.01415C9.34883 9.01311 9.36294 9.01234 9.37708 9.01143C9.43338 9.12886 9.49002 9.24627 9.54633 9.36338C9.52489 9.42558 9.50312 9.48733 9.48202 9.54906C9.23673 9.42208 9.2466 9.27159 9.33471 9.01415ZM9.28507 16.8072C9.36723 16.8655 9.44993 16.9237 9.53291 16.9824C9.44751 16.9452 9.36292 16.9084 9.27781 16.8722C9.27969 16.8502 9.28211 16.8283 9.28507 16.8072ZM9.28081 17.076C9.36943 17.1137 9.45787 17.1516 9.54633 17.1897C9.54473 17.2004 9.54327 17.2112 9.54199 17.2222C9.3527 17.3526 9.16229 17.4832 8.97268 17.6135C8.8088 17.5416 8.78871 17.3969 8.74078 17.2381C8.74206 17.2271 8.74367 17.2162 8.74495 17.2054C8.92364 17.1621 9.10246 17.1191 9.28081 17.076ZM8.48563 16.5382C8.57086 16.5722 8.65555 16.6058 8.74078 16.6397C8.69517 16.666 8.6501 16.6923 8.60432 16.7185C8.56011 16.7235 8.51628 16.728 8.47226 16.7329C8.47631 16.6684 8.48088 16.6034 8.48563 16.5382ZM8.47226 11.162C8.79474 11.2524 8.6927 11.1923 8.70695 11.4308C8.55845 11.3455 8.54824 11.3045 8.47226 11.162ZM8.47226 15.9639C8.4795 15.8864 8.48718 15.8094 8.49464 15.7319C8.61968 15.8176 8.66245 15.8688 8.74078 16.0007C8.65083 15.9882 8.56154 15.9758 8.47226 15.9639ZM9.0093 12.6068C8.90856 12.7351 8.91275 12.6995 8.74078 12.7749C8.77999 12.6854 8.81922 12.5956 8.85867 12.506C8.90903 12.5397 8.95939 12.5731 9.0093 12.6068ZM9.0093 11.5259C8.95307 11.5838 8.89703 11.6416 8.8408 11.6996C8.67176 11.605 8.75187 11.6427 8.82761 11.4689C8.86109 11.4563 8.89454 11.4435 8.92839 11.4308C8.95575 11.4625 8.98272 11.4942 9.0093 11.5259ZM8.98781 11.0684C8.90564 11.0101 8.82293 10.9517 8.74078 10.8932C8.93115 10.9649 8.88713 10.9211 8.98781 11.0684ZM8.47226 16.0007C8.56183 16.0713 8.65108 16.1417 8.74078 16.2119C8.60328 16.2084 8.53033 16.1794 8.47226 16.0007ZM9.27781 15.9906C9.24162 15.9939 9.20497 15.9973 9.16848 16.0007C9.13723 15.9435 9.10583 15.8866 9.07457 15.8292C9.05276 15.8014 9.03081 15.7734 9.0093 15.7453C9.0577 15.7407 9.10612 15.7362 9.15467 15.7319C9.19567 15.8182 9.23652 15.9043 9.27781 15.9906ZM9.12959 11.013C9.08957 10.9727 9.04904 10.9329 9.0093 10.8932C9.12744 10.9746 9.04904 10.895 9.12959 11.013ZM9.14644 15.44C9.10095 15.346 9.05493 15.2524 9.0093 15.1586C9.02855 15.0815 9.04806 15.0048 9.06744 14.9277C9.07861 14.927 9.08991 14.9262 9.10136 14.9254C9.15991 15.1045 9.21912 15.2837 9.27781 15.4629C9.23446 15.4553 9.19073 15.4476 9.14644 15.44ZM8.4428 18.5676C8.45275 18.5797 8.46244 18.5915 8.47226 18.6037C8.44018 18.7217 8.40812 18.8399 8.37604 18.9576C8.17841 18.8797 7.97619 18.678 7.93521 18.42C8.10473 18.4692 8.2737 18.5181 8.4428 18.5676ZM7.66671 18.9576C7.75645 19.0359 7.84547 19.1143 7.93521 19.1928C7.76345 19.1184 7.75294 19.1216 7.66671 18.9576ZM8.13016 16.5748C8.14064 16.6524 8.15218 16.7299 8.16266 16.8072C8.08667 16.7174 8.01121 16.6279 7.93521 16.5382C7.99993 16.5504 8.06465 16.5627 8.13016 16.5748ZM7.86477 17.8317C7.79856 17.6696 7.73237 17.5071 7.66671 17.3447C7.90108 17.434 8.0849 17.6996 8.20373 17.8823C8.09097 17.8653 7.97787 17.8487 7.86477 17.8317ZM8.07571 13.0457C8.09773 13.0449 8.12054 13.0443 8.14256 13.0437C8.07705 13.1332 8.01206 13.2228 7.94629 13.3125C7.91379 13.2462 7.95299 13.1825 8.06227 13.1046C8.06631 13.0849 8.07114 13.0654 8.07571 13.0457ZM7.93521 15.3563C7.91746 15.392 7.89932 15.4273 7.88138 15.4629C7.82989 15.4235 7.77877 15.3843 7.72707 15.3448C7.70697 15.3022 7.68671 15.2594 7.66671 15.217C7.73699 15.2094 7.8069 15.2018 7.87717 15.1942C7.89672 15.2482 7.91596 15.3022 7.93521 15.3563ZM6.05559 17.6135C6.59392 17.9594 7.50781 18.28 7.66671 18.9576C7.04283 18.6647 6.43468 18.1374 6.05559 17.6135ZM7.451 17.3539C7.52285 17.4406 7.59499 17.527 7.66671 17.6135C7.48779 17.5239 7.30858 17.4344 7.12966 17.3447C7.23687 17.3477 7.34422 17.3509 7.451 17.3539ZM9.4173 18.1513C9.28141 18.0164 9.14535 17.881 9.0093 17.746C9.24694 17.5226 9.48525 17.2995 9.72289 17.076C9.7536 17.3216 9.7843 17.5674 9.81485 17.8132C9.68239 17.9258 9.54991 18.0386 9.4173 18.1513ZM9.81485 18.6005C9.83893 18.542 9.86227 18.4836 9.88616 18.4251C9.91759 18.4232 9.94882 18.4215 9.98082 18.42C10.0153 18.5095 10.0491 18.5992 10.0834 18.6888C9.99399 18.6593 9.90423 18.63 9.81485 18.6005ZM10.1768 17.6135C10.1457 17.5239 10.1148 17.4346 10.0834 17.3447C10.1489 17.3567 10.2141 17.3685 10.278 17.3804C10.2447 17.4579 10.2106 17.536 10.1768 17.6135ZM9.81485 8.56164C9.81568 8.55385 9.81642 8.54606 9.81755 8.53809C9.90633 8.51664 9.9946 8.49531 10.0834 8.4738C10.0214 8.5634 9.95941 8.65301 9.89769 8.74261C9.87012 8.68232 9.84242 8.62193 9.81485 8.56164ZM7.10764 14.1189C7.0252 13.9395 6.94305 13.7604 6.86114 13.5813C7.17665 13.6497 7.12617 13.8715 7.10764 14.1189ZM6.44969 14.3878C6.22043 14.2301 6.07357 13.9176 6.05559 13.5813C6.52659 13.6915 6.50114 13.8747 6.59264 14.2991C6.54492 14.3286 6.4974 14.3583 6.44969 14.3878ZM6.17218 12.9851C5.82988 12.6656 6.32885 11.3855 6.54827 11.0913C6.66364 10.9465 6.80985 10.9491 7.00262 10.8932C7.04513 10.9039 7.08696 10.915 7.12966 10.9257C6.80708 11.49 6.58888 12.2578 6.51184 13.0437C6.39857 13.0239 6.28562 13.0045 6.17218 12.9851ZM5.67112 17.3447C5.72588 17.4355 5.78063 17.5263 5.83539 17.6174C5.78677 17.7301 5.73754 17.8427 5.68844 17.9555C5.66008 17.985 5.63215 18.0144 5.6041 18.0439C5.72388 18.0607 5.75073 17.9583 5.93124 17.8138C6.27866 18.3719 6.81119 18.9042 7.39818 19.2077C7.29142 19.393 7.18406 19.5785 7.07747 19.7641C6.75383 19.5583 6.43127 19.3528 6.1078 19.147C5.99659 18.944 6.14997 18.7109 5.97144 18.5867C5.81024 18.474 5.60164 18.6369 5.43737 18.588C5.28551 18.4503 5.13336 18.3126 4.98152 18.175C5.11511 17.8797 5.2441 17.59 5.50945 17.4391C5.5636 17.4075 5.61713 17.3759 5.67112 17.3447ZM4.74256 14.3807C4.77655 14.1163 4.83457 13.843 4.90019 13.5845C4.9125 13.5835 4.92452 13.5825 4.93682 13.5813C4.98341 13.8479 5.02999 14.1143 5.07686 14.3807C5.10134 14.5199 5.12536 14.6592 5.14983 14.7983C5.36208 15.3781 5.57451 15.9585 5.78707 16.5382C5.27742 16.2627 4.96142 15.6264 5.00669 14.7702C4.88423 15.0466 4.98618 15.481 5.02646 15.7241C4.71254 15.462 4.67224 14.9406 4.74256 14.3807ZM4.27709 14.6566C4.23058 14.562 4.20027 14.457 4.18604 14.3328C4.17089 14.2051 4.17304 14.0573 4.19095 13.8807C4.20608 13.8483 4.22154 13.8163 4.23699 13.7843C4.30631 13.7167 4.37547 13.6491 4.44447 13.5813C4.40547 13.8317 4.36645 14.0823 4.32728 14.3328C4.31075 14.4408 4.29377 14.5485 4.27709 14.6566ZM22.9723 17.3447C22.7934 17.2768 22.6145 17.2086 22.4353 17.1402C22.6091 17.1189 22.7827 17.0973 22.9564 17.076C22.9615 17.1654 22.9668 17.2553 22.9723 17.3447ZM8.76199 21.7199C8.80871 21.6951 8.85624 21.6702 8.90296 21.6458C8.84952 21.7348 8.79448 21.8251 8.74078 21.9142C8.74776 21.8495 8.75501 21.7845 8.76199 21.7199ZM4.713 12.506C4.63695 12.4986 4.56061 12.4914 4.48395 12.484C4.1998 12.3923 3.93165 12.0644 3.90745 11.6996C4.34351 11.7383 4.49093 11.9421 4.70649 12.1911C4.70866 12.2959 4.71113 12.4009 4.713 12.506ZM4.68131 12.4836C4.71254 11.9037 4.26395 11.5415 3.68166 11.5571C3.78153 10.7416 4.49887 10.3252 5.13856 10.0513C5.17975 10.0483 5.2203 10.0453 5.26149 10.0423C5.15426 11.0653 5.23566 11.9464 4.84838 12.8314C4.56246 13.4836 3.5489 13.4714 3.60434 14.4765C3.60564 14.5037 3.60775 14.5321 3.61103 14.561C3.75555 15.8985 5.22864 16.1706 5.43248 17.3468C3.24909 18.443 5.91051 23.052 7.63763 20.3448C7.94661 20.3887 8.22256 20.5273 8.60723 20.3938C8.78589 20.2961 8.82137 20.2169 8.89084 20.0133C9.09634 20.1183 9.30232 20.2232 9.50782 20.3282C9.51861 20.3538 9.52938 20.3798 9.54052 20.4057C8.97455 20.8389 8.57583 21.4332 7.96868 21.8402C7.98765 21.7851 8.0071 21.7298 8.02656 21.6754C7.97325 21.6663 7.92029 21.6566 7.867 21.6472C7.83855 21.6627 7.80945 21.6784 7.78084 21.6938C7.75435 21.8152 7.72852 21.9375 7.70171 22.0591C8.04829 22.4084 9.09993 21.1435 9.40793 20.8951C9.2335 21.4965 8.80356 21.8056 8.56471 22.3559C8.5889 22.3811 8.61375 22.4061 8.63828 22.4308C9.09176 22.1099 9.64792 21.2021 9.73243 20.5112C9.95852 20.5482 10.1849 20.585 10.4115 20.6222C9.56012 21.7591 7.3733 24.2588 6.22388 24.926C6.39798 24.3834 6.67753 23.9691 6.8178 23.5235C6.79017 23.5253 6.76287 23.527 6.73606 23.5292C6.71153 23.504 6.68685 23.4792 6.66217 23.4545C6.38278 23.9986 5.92128 24.38 5.83905 25.1137C5.89741 25.2034 5.9597 25.2516 6.02248 25.3003C7.38981 25.075 9.67211 21.6822 10.7632 20.7559C10.4681 23.6822 8.87973 24.1391 7.50228 25.9122C8.75386 25.2956 9.51336 23.7226 10.5848 22.8484C10.4663 24.0718 10.1717 26.8058 9.42983 27.291C9.4707 27.2877 9.51157 27.285 9.55276 27.282C10.3837 26.7716 10.4326 24.6725 10.7095 23.5991C10.7488 23.2227 10.7883 22.8469 10.8276 22.4713C11.2233 21.922 11.6193 21.3731 12.0151 20.8248C12.044 20.8095 12.0724 20.7937 12.1012 20.7787C12.234 21.1902 12.8352 21.6368 13.4867 21.5169C13.6426 21.4522 13.7983 21.3878 13.9534 21.3234C14.3451 21.4677 14.736 21.6121 15.1266 21.7569C15.2806 23.423 15.2215 24.3572 14.1533 25.6264C15.2447 25.0756 15.6459 22.9523 15.2825 21.8258C17.8205 22.1161 17.719 21.2699 17.2371 19.4442C17.3862 19.4462 17.5349 19.4488 17.6837 19.4516C17.6018 19.3295 17.379 19.4203 17.209 19.3265C17.1318 19.2774 17.1471 19.2865 17.0988 19.2142C17.7028 18.5418 19.1555 19.2098 18.8513 20.3258C19.2683 19.3999 18.3455 18.5777 17.456 18.9083C17.8358 18.4639 18.2958 18.0986 18.5364 17.51C18.5655 17.4945 18.5938 17.479 18.6228 17.4637C19.3187 18.1858 20.0155 18.9083 20.7118 19.6302C20.7524 19.6274 20.7937 19.6242 20.8348 19.6214C20.8665 19.579 20.8977 19.5368 20.929 19.4944C20.2659 18.7168 19.6017 17.9383 18.9385 17.1608C19.0095 17.1286 19.0804 17.0969 19.1521 17.0651C19.267 16.9572 19.3934 16.9215 19.52 16.9383C19.4831 16.9202 19.4476 16.9026 19.4142 16.886C20.4818 16.9921 21.8436 17.87 22.9568 17.587C23.0597 17.4109 23.0642 17.3152 23.0025 17.144C24.1882 17.1735 26.3213 16.7816 27 16.2125C25.1764 16.5911 23.1208 16.7194 21.4452 16.4979C20.9501 16.4409 20.4556 16.3836 19.9606 16.3264C19.9333 16.3285 19.9057 16.3303 19.878 16.3324C20.011 16.0963 20.144 15.8598 20.2773 15.6236C21.5015 15.6013 24.7099 15.5707 25.3588 14.8129C25.3111 14.7499 25.2634 14.6864 25.216 14.6234C25.0294 14.597 24.8422 14.5707 24.656 14.5442C24.6077 14.6145 24.6011 14.6817 24.5933 14.749C24.7412 14.7647 24.8882 14.7805 25.0356 14.7965C24.0739 15.0358 21.395 15.5406 20.5201 15.2458C20.428 15.1359 20.4961 14.7529 20.5001 14.4768C20.5014 14.4222 20.4999 14.3716 20.4942 14.3283C21.7513 13.9571 22.6847 13.1225 23.0674 11.8614C23.2863 11.1403 23.1412 10.192 23.614 9.74237C23.9161 9.76843 23.9771 9.8941 24.1988 9.97964C24.0812 9.81856 23.914 9.72934 23.7044 9.6558C23.5727 9.74538 23.4418 9.83494 23.3108 9.92434C22.9508 10.0619 22.574 9.70209 21.9639 9.98265C21.4684 9.56407 21.1884 8.90201 20.5192 8.64887C20.4961 8.61043 20.4727 8.57216 20.4499 8.5339C20.7212 8.27388 20.9916 8.01437 21.2628 7.75471C20.9962 7.97427 20.7254 8.23395 20.4542 8.49346C20.2735 8.41341 20.0916 8.33321 19.9101 8.25351C19.8999 8.22726 19.8889 8.20169 19.878 8.17581C20.4976 7.74217 21.0482 7.58124 21.7541 7.71911C21.7873 7.78312 21.822 7.84728 21.8558 7.91144C21.8228 7.96741 21.7937 7.98247 21.7654 7.99801C21.6866 7.97711 21.6068 7.95639 21.5279 7.93518C21.6303 7.99467 21.737 8.01355 21.8432 8.03243C21.8728 8.00335 21.9032 7.97461 21.9328 7.94586C21.9373 7.90542 21.9417 7.86532 21.9462 7.82488C21.792 7.6892 21.7451 7.59161 21.4428 7.58175C21.4909 7.51141 21.539 7.44138 21.5873 7.37138C21.2407 7.60614 20.5388 7.66881 20.194 7.87285C20.4592 7.66681 20.7244 7.46077 20.9897 7.2549C21.0213 7.2128 21.0528 7.17035 21.0845 7.12825C20.5937 7.41699 20.1033 7.70624 19.6127 7.99532C19.2985 7.9736 18.9644 7.82873 18.7949 7.65495C18.7677 7.65695 18.7408 7.65895 18.7128 7.66096C19.2959 7.27195 19.878 6.88295 20.4601 6.49409C20.4507 6.45466 20.4414 6.4154 20.4322 6.37595C19.7689 6.75762 19.1063 7.1391 18.4438 7.52093C18.2321 7.46946 18.0209 7.41833 17.8096 7.36686C17.829 7.17905 17.8488 6.99105 17.8683 6.80306C19.3863 5.626 20.9045 4.44895 22.4221 3.27206C22.4491 3.26989 22.4764 3.26805 22.504 3.26621C22.4819 3.2144 22.4602 3.16261 22.4389 3.11081C22.2698 3.03109 21.5769 3.58638 21.3152 3.75265C20.3073 4.39148 19.4157 5.18619 18.4238 5.76303C18.8332 5.24953 19.5831 4.7382 19.7065 3.98992C19.6399 3.98157 19.5725 3.97305 19.5057 3.9647C19.4023 4.05209 19.2985 4.13981 19.194 4.22737C19.3076 4.17909 19.421 4.13095 19.534 4.0825C19.3144 4.74053 18.3198 5.91809 17.7598 6.29124C17.7379 6.23926 17.7164 6.18797 17.6947 6.13599C18.0594 5.52908 18.4189 4.71448 18.25 3.93629C18.1477 3.87714 18.0454 3.81798 17.9432 3.75866C17.8341 3.76684 17.7252 3.77487 17.6158 3.78272C17.8256 3.86477 17.9681 3.88498 18.1222 3.98558C18.2211 4.74005 17.8447 5.25003 17.6424 5.85995C17.6132 5.87532 17.5849 5.89069 17.5562 5.9064C17.4207 5.66009 17.4294 5.54079 17.1522 5.49584C17.1439 5.4432 17.136 5.3904 17.128 5.3376C17.1909 5.25287 17.2541 5.16865 17.3173 5.0841C17.3609 5.05403 17.4045 5.0241 17.4484 4.99437C17.4928 5.07642 17.4947 5.04751 17.509 5.18987C17.5569 5.11987 17.5637 5.05268 17.5705 4.98535C17.5196 4.96261 17.4673 4.93973 17.4158 4.917C17.2788 5.06004 17.1422 5.20341 17.0056 5.34662C16.662 5.11987 16.2852 4.88224 15.8036 4.79468C16.0759 4.23439 16.9065 3.33506 16.4773 2.62621C15.9548 1.76414 14.169 2.75806 13.5153 3.44183C13.4277 3.53408 13.3597 3.62063 13.3186 3.6965C13.3603 3.66307 13.4278 3.6106 13.5153 3.54644C14.1604 3.07088 15.8791 1.93393 16.2514 2.84278C16.642 3.35027 15.8938 4.32629 15.6895 4.72299C14.9934 4.65331 14.2652 4.58748 13.5163 4.60218C12.7602 4.61739 11.9822 4.71414 11.1949 4.97096C10.8143 5.09514 9.19492 6.05312 9.13312 6.04109C8.88709 5.80614 8.64057 5.57053 8.39422 5.33526C7.87959 5.07976 7.3643 4.8241 6.84952 4.5686C6.8464 4.59533 6.84395 4.62208 6.84135 4.64914C6.8111 4.67805 6.78068 4.70678 6.75093 4.73569C7.41056 5.28713 8.07101 5.8389 8.73031 6.3905C8.6296 6.45131 8.52875 6.51181 8.42773 6.57263C7.61361 5.96305 7.05239 5.59293 5.84037 5.28195C5.77237 5.28696 5.70403 5.2918 5.63602 5.29682C6.34387 5.77823 7.05632 6.21939 7.76841 6.66053C7.81598 6.7237 7.8634 6.78685 7.91113 6.85018C7.40271 7.06224 7.18774 7.50104 6.75796 7.77393C6.08689 7.45709 5.46601 7.17102 4.65288 6.92772C4.6339 6.98254 4.61429 7.03734 4.59533 7.09214C5.10324 7.41482 5.611 7.73766 6.11893 8.06051C6.14624 8.05849 6.17354 8.05649 6.20067 8.05464C6.11322 8.11413 6.02576 8.17396 5.93862 8.23361C5.81682 8.63715 5.57896 9.10454 5.38133 9.6737C4.62214 10.2841 3.63785 10.2475 3.48516 11.4914C3.24304 11.5571 3.0709 11.5778 2.8502 11.7375C2.84449 11.7914 2.83909 11.8452 2.83337 11.8988C2.97183 12.0913 4.20544 12.6063 4.50051 12.6568C4.56116 12.5989 4.62131 12.5411 4.68131 12.4836ZM13.6902 3.88356C13.728 3.89042 13.7648 3.89707 13.8024 3.90392C13.7521 3.89793 13.7017 3.89161 13.6514 3.88552C13.6256 3.88683 13.5999 3.88803 13.5741 3.88933C13.6928 3.67003 14.0428 3.61605 14.3797 3.64054C14.3719 3.69299 14.3644 3.74557 14.356 3.79791C14.1369 3.80902 13.9172 3.82 13.698 3.83089C13.6957 3.84852 13.6928 3.86593 13.6902 3.88356ZM14.1605 4.17274C14.2661 4.13831 14.3719 4.10406 14.4773 4.0698C14.6139 3.84516 14.692 3.60716 14.6221 3.38878C14.2968 3.3252 14.1087 3.40393 13.8034 3.53025C13.7482 3.61953 13.6929 3.70928 13.6383 3.79871C13.617 3.83313 13.5952 3.86756 13.5741 3.90215C13.5952 3.92553 13.6158 3.94595 13.6383 3.9644C13.7411 4.04871 13.8659 4.07787 14.0951 4.05927C14.1574 4.16499 14.0854 4.11805 13.9717 4.14786C14.0345 4.15593 14.0974 4.1645 14.1605 4.17274ZM21.97 6.59209C21.8564 6.61318 21.7428 6.63427 21.6296 6.65504C21.6996 6.65042 21.7698 6.64564 21.8392 6.64054C21.9192 6.67433 21.999 6.70844 22.0783 6.74206C21.9573 6.96111 21.8364 7.17982 21.7154 7.39854C21.9019 7.18114 22.0879 7.02654 22.1668 6.69641C22.1007 6.66146 22.0355 6.62685 21.97 6.59209ZM20.0186 17.076C19.9337 16.928 19.8414 16.83 19.7501 16.8072C19.8318 16.883 19.9257 16.9719 20.0186 17.076ZM18.9445 20.3017C18.8551 20.3534 18.7653 20.4046 18.676 20.4554C18.7447 20.449 18.8134 20.4425 18.8823 20.4363C18.9034 20.3911 18.9242 20.3467 18.9445 20.3017ZM20.0186 17.076C20.2912 17.3808 20.4965 17.9637 20.4373 18.42C20.7467 17.7585 20.3935 17.3459 20.0186 17.076Z" fill="#E8F1FB"/>
</g>
<defs>
<clipPath id="clip0_10_387">
<rect width="26.6667" height="26.6667" fill="white" transform="translate(0.333374 0.624512)"/>
</clipPath>
</defs>
</svg>
