<svg xmlns="http://www.w3.org/2000/svg" xmlns:xlink="http://www.w3.org/1999/xlink"><defs><clipPath id="clip0_147_258"><path fill="#fff" d="M0 0h232v15H0z"/></clipPath><clipPath id="clip0_146_77"><path fill="#fff" d="M0 0h60v38H0z"/></clipPath><clipPath id="clip0_143_130"><path fill="#fff" d="M0 0h110v36H0z"/></clipPath><clipPath id="clip0_143_77"><path fill="#fff" d="M0 0h99v47H0z"/></clipPath><clipPath id="clip0_10_387"><path fill="#fff" transform="translate(.333 .625)" d="M0 0h26.667v26.667H0z"/></clipPath></defs><symbol id="angle" viewBox="0 0 38 37"><path d="M37.5 2H2v34.5" fill="transparent" stroke="#55DD81" stroke-width="3"/></symbol><symbol id="arrow-link" viewBox="0 0 16 12"><path d="M9.335 10.475l.702.707 5.298-5.333L10.037.515l-.702.707 2.333 2.348v4.557l-2.333 2.348z" fill="#E8F1FB"/><path d="M9.668 5.349h-9v1h9v-1z" fill="#E8F1FB"/></symbol><symbol id="arrows" viewBox="0 0 71 28"><path fill-rule="evenodd" clip-rule="evenodd" d="M9.82 24.108L8.61 22.89l4.018-4.042V8.704L8.611 4.662l1.21-1.218 10.27 10.332L9.82 24.108zm21.396 0l-1.21-1.218 4.018-4.042V8.704l-4.018-4.042 1.21-1.218 10.27 10.332-10.27 10.332zm21.394 0L51.4 22.89l4.018-4.042V8.704l-4.017-4.042 1.21-1.218 10.27 10.332-10.27 10.332z" fill="#55DD81"/></symbol><symbol id="company-gazprom" viewBox="0 0 87 42"><path fill-rule="evenodd" clip-rule="evenodd" d="M71.07 25.105c.347 0 .618-.247.618-.568v-9.75a.617.617 0 00-.617-.494.616.616 0 00-.617.493v9.751c0 .32.271.568.617.568zm1.137-12.614c1.95 0 2.073 1.555 2.073 2.567v9.257c0 1.012-.123 2.567-2.073 2.567H69.91c-1.95 0-2.074-1.555-2.074-2.567v-9.257c0-1.012.123-2.567 2.074-2.567h2.296zm-43.3 0h5.308v1.777h-2.518v12.614h-2.79V12.491zm7.16 0h4.369l1.456 14.391h-2.715l-.247-3.826h-1.31l-.246 3.826h-2.716l1.407-14.391zm2.715 8.985l-.47-7.208h-.148l-.468 7.208h1.086zm7.06.37v2.716c0 .37.271.469.42.469.246 0 .42-.222.42-.47v-3.357c0-.444-.075-.938-1.112-.938h-1.11v-1.58h1.16c.79 0 1.086-.197 1.086-1.06v-2.864c0-.247-.173-.47-.42-.47-.173 0-.42.1-.42.47v2.345h-2.789v-2.05c0-1.011.123-2.566 2.074-2.566h2.295c1.95 0 2.074 1.555 2.074 2.567v2.32c0 1.555-1.061 1.975-1.9 1.95v.149c1.85-.05 1.9 1.431 1.9 1.95v2.888c0 1.012-.123 2.567-2.074 2.567h-2.295c-1.926 0-2.074-1.555-2.074-2.567v-2.469h2.765zm5.48-9.355h6.418v14.391h-2.592V14.268H53.89v12.614h-2.592V12.491h.025zm8.443 0h4.37c1.95 0 2.246 1.555 2.246 2.567v4.345c0 1.012-.297 2.567-2.247 2.567h-1.58v4.887h-2.79V12.491zm3.505 7.899c.296 0 .519-.272.519-.716v-4.69c0-.444-.223-.716-.519-.716h-.74v6.122h.74zm19.848-7.9h3.604v14.392h-2.765v-9.035h-.099l-1.431 9.035h-2.222l-1.432-9.035h-.099v9.035h-2.79V12.491h3.63l1.802 10.12 1.802-10.12zm-60.135 1.457a24.87 24.87 0 00-.815-6.517c-.716-2.592-2.098-5.06-2.32-5.356-.198.32-1.309 2.32-2.272 5.43-.247.938-.716 2.963-.79 4.962-.098 2.395.223 4.789.37 5.455 0-.79.025-3.455.52-5.652.493-2.197 1.431-4.715 2.196-5.999.815 1.358 1.876 4.27 2.247 6.023.37 1.753.567 3.974.469 5.554.197-.913.37-2.468.395-3.9zm-3.136 11.158c.445-.815 1.21-2.642 1.16-4.937-.098-2.345-.888-4.073-1.135-4.468-.271.42-1.21 2.394-1.185 4.69.074 2.37.74 3.9 1.16 4.715zm3.407-17.65c.864 3.826.864 6.171.47 8.862-.692 4.838-2.889 8.516-3.852 9.75-.642-.839-1.654-2.567-2.32-4.147 0 0-1.26-3.036-1.605-6.023-.345-2.962-.197-5.974.79-9.38C17.626 3.456 19.38.716 19.872 0c.296.494 2.494 3.604 3.382 7.455zm1.802 19.402v9.85a14.51 14.51 0 01-10.565 4.542C6.492 41.249 0 34.806 0 26.882c0-7.924 6.492-14.367 14.49-14.367v10.788a8.13 8.13 0 00-5.751 2.37c-.37.37-.716.765-.988 1.21-2.123 3.134-1.802 7.43.988 10.194a8.237 8.237 0 005.752 2.37c2.073 0 4.147-.79 5.727-2.345 0 0 .024 0 .024-.025l.025-.025a4.023 4.023 0 000-5.702 4.083 4.083 0 00-5.752 0s-.024 0-.024.025v-4.518h10.565zM84.18 37.2c0-1.258-.543-1.58-1.975-1.58h-.247v-2.418h-1.456v6.245h1.456c1.58 0 2.222-.247 2.222-1.605V37.2zm-12.244-3.998h-3.703v1.184h1.185v5.085H70.8v-5.085h1.111l.025-1.184zm-11.282 2.073c0-1.284-.617-1.605-2.098-1.605v-.468h-1.432v.468c-1.48 0-2.098.321-2.098 1.605v1.95c0 1.26.642 1.605 2.098 1.605v.617h1.432v-.617c1.457 0 2.098-.346 2.098-1.605v-1.95zm-13.28-2.073h-3.53v6.27h3.53v-1.185h-2v-1.481h1.802V35.62h-1.802v-1.235h2v-1.184zm-12.17 0h-1.457v2.419h-.766V33.2h-1.456v6.246h1.456v-2.74h.766v2.74h1.456v-6.245zm51.568 8.047H28.907v-9.603h57.84l.024 9.603zm-30.314-6.023c0-.37.123-.47.444-.47h.222v2.913h-.222c-.32 0-.444-.073-.444-.444v-2zm25.821 1.505c.321 0 .42.075.42.445v.765c0 .346-.099.444-.42.444h-.32v-1.629h.32v-.025zm-23.5-1.95c.32 0 .444.074.444.445v2.024c0 .37-.124.469-.445.469h-.222v-2.913h.222v-.025z" fill="#E8F1FB"/></symbol><symbol id="company-kiberprotect" viewBox="0 0 232 15"><g clip-path="url(#clip0_147_258)" fill="#E8F1FB"><path d="M4.742.851v4.811h.564l6.803-4.81h5.712L9.327 6.873v.635l8.64 6.659h-5.902l-6.65-5.129h-.669v5.129H.371V.85h4.371zm19.403 0V9.4h.628L33.078.85h5.124v13.317H33.81V5.62h-.628l-8.304 8.548h-5.125V.85h4.392zm32.527 0v3.377H45.417v1.51h6.485c4.351 0 5.941 1.412 5.941 4.074v.401c0 2.685-1.654 3.955-5.941 3.955H41.02V.85h15.651zM45.417 11.028h6.485c.922 0 1.42-.28 1.42-.975v-.2c0-.634-.482-.974-1.42-.974h-6.485v2.149zM75.963.851V4.11H64.478v1.748H74.75v3.04H64.478v1.99h11.589v3.28H60.106V.852h15.857zm14.093 0c4.102 0 5.648 1.809 5.648 4.333v.558c0 2.605-1.55 4.372-5.648 4.372h-7.093v4.054h-4.392V.85h11.485zm-7.093 5.882h6.55c1.066 0 1.694-.298 1.694-1.113v-.317c0-.777-.628-1.075-1.694-1.075h-6.55v2.505zM114.93.851v13.317h-4.392v-9.94h-8.409v9.94h-4.392V.85h17.193zm14.298 0c4.102 0 5.648 1.809 5.648 4.333v.558c0 2.605-1.55 4.372-5.648 4.372h-7.093v4.054h-4.392V.85h11.485zm-7.089 5.882h6.549c1.068 0 1.695-.298 1.695-1.113v-.317c0-.777-.627-1.075-1.695-1.075h-6.549v2.505zm24.56-6.082c5.084 0 9.162 2.345 9.162 6.56v.596c0 4.214-4.078 6.559-9.162 6.559h-1.047c-5.209 0-9.372-2.345-9.372-6.56V7.21c0-4.214 4.163-6.559 9.372-6.559h1.047zm-5.922 6.56v.596c0 1.927 1.84 2.983 4.875 2.983h.837c3.035 0 4.875-1.052 4.875-2.983V7.21c0-1.946-1.84-2.983-4.875-2.983h-.837c-3.031 0-4.875 1.037-4.875 2.983zm33.85-6.36v3.377h-6.799v9.94h-4.392v-9.94h-6.799V.851h17.99zm17.539 0V4.11h-11.484v1.748h10.273v3.04h-10.273v1.99h11.59v3.28H176.31V.852h15.856zm6.977 0v4.811h.563l6.799-4.81h5.713l-8.494 6.022v.635l8.638 6.659h-5.901l-6.654-5.129h-.668v5.129h-4.372V.85h4.376zm32.486 0v3.377h-6.799v9.94h-4.391v-9.94h-6.8V.851h17.99z"/></g></symbol><symbol id="company-orion" viewBox="0 0 60 38"><g clip-path="url(#clip0_146_77)" fill="#E8F1FB"><path d="M11.351 3.544L7.83.024H3.477L1.07 2.502 0 3.5v5.883l3.477 3.784H7.92l3.43-3.69V3.544zm-8.825 7.225V2.417h6.3v8.348l-6.3.004zm21.59-7.132L20.926.024h-4.168l-2.23 2.535-.913 1.025v9.561h2.501V9.321h5.561v3.824h2.46v-2.534l-1.914-1.827 1.914-1.627-.021-3.52zm-8-1.02h5.561v4.535h-5.56V2.616zM56.39.037h-4.694v2.457h-2.522v10.66h2.522V2.497h5.77v10.655h2.517l.004-9.43L56.39.037zm-9.15 3.486L43.72 0h-4.356L36.96 2.466l-1.076.996v5.92l3.477 3.78h4.448l3.426-3.686.005-5.953zm-8.826 7.226V2.396h6.295v8.349l-6.295.004zm-6.269-.061V2.49L29.685.049h-2.41V2.4h2.41v8.288h-2.41v2.441h7.28v-2.441h-2.41zM60 36.19H.025v1.814H60V36.19zM31.165 20.367l-3.518-3.523h-4.352l-2.406 2.482-1.071.996v5.887l3.477 3.78h4.443l3.427-3.686v-5.936zm-8.825 7.226V19.24h6.299v8.349l-6.3.004zm30.878-10.786H43.58v2.462h3.58v10.68h2.502v-8.711l-1.789-1.97h5.345v-2.46zM41.178 19.2v-2.348h-4.714l-3.131 3.41v9.687h2.405v-5.696h5.44v-2.389h-5.44v-2.652l5.44-.012zm-26.975 2.917H9.2v-2.873h7.662v-2.392h-6.67L6.75 19.818v1.77l2.401 2.079.95.842H15.2v3.051H7.541v2.389h6.67l3.447-3.007v-1.77"/><path d="M53.218 16.852H43.58v2.441h3.58v10.68h2.502v-8.71l-1.789-1.97h5.345v-2.44z"/></g></symbol><symbol id="company-oteko" viewBox="0 0 110 36"><g clip-path="url(#clip0_143_130)" fill="#E8F1FB"><path d="M45.96 17.442c0-2.158-1.7-3.914-3.76-3.914-2.026 0-3.725 1.756-3.725 3.914 0 2.158 1.7 3.878 3.724 3.878 2.062 0 3.761-1.72 3.761-3.878zm-11.246 0c0-4.06 3.327-7.389 7.485-7.389 4.159 0 7.486 3.329 7.486 7.39 0 4.06-3.363 7.351-7.486 7.351-4.158 0-7.485-3.292-7.485-7.352zm16.526-7.096h12.113v3.365h-4.23v10.827h-3.617V13.711H51.24v-3.365zm22.997 5.45c-.614-1.353-1.88-2.231-3.363-2.231-1.156 0-2.313.475-2.964 1.39l-2.568-2.45c1.374-1.5 3.29-2.379 5.532-2.379 4.123 0 7.486 3.33 7.486 7.39s-3.363 7.352-7.486 7.352c-2.17 0-4.086-.842-5.423-2.268l2.495-2.488c.65.842 1.88 1.317 2.892 1.317 1.483 0 2.749-.878 3.327-2.194h-4.158v-3.366h4.23v-.073zm15.911 8.742l-4.014-4.901-1.193 1.317v3.584h-3.652V10.346h3.652v5.45l4.773-5.45h4.701l-5.822 6.51 6.256 7.682h-4.7zm16.127-7.096c0-2.158-1.699-3.914-3.76-3.914-2.025 0-3.725 1.756-3.725 3.914 0 2.158 1.7 3.878 3.725 3.878 2.061 0 3.76-1.72 3.76-3.878zm-11.246 0c0-4.06 3.327-7.389 7.486-7.389 4.158 0 7.485 3.329 7.485 7.39 0 4.06-3.363 7.351-7.485 7.351-4.159 0-7.486-3.292-7.486-7.352zM3.508 23.264V12.217c0-4.792 3.869-8.705 8.606-8.705s8.606 3.913 8.606 8.705v12.437c0 2.378-.94 4.5-2.459 6.072 3.29-.036 5.966-2.743 5.966-6.072v-12.62C24.12 5.377 18.731 0 12.114 0 5.424 0 0 5.487 0 12.254v11.193c.108 5.743 4.122 10.535 9.474 11.742-3.616-2.744-5.966-7.06-5.966-11.925z"/><path d="M31.206 12.034C31.098 6.291 27.084 1.5 21.733.292c3.616 2.707 5.93 7.024 5.966 11.889v11.046c0 4.792-3.87 8.706-8.606 8.706-4.737 0-8.606-3.914-8.606-8.706V10.791c0-2.378.94-4.5 2.458-6.072-3.29.036-5.966 2.743-5.966 6.072v12.656c.109 6.657 5.496 12.034 12.114 12.034 6.69 0 12.113-5.487 12.113-12.254V12.034z"/></g></symbol><symbol id="company-pochtabank" viewBox="0 0 99 47"><g clip-path="url(#clip0_143_77)"><path d="M0 0h47.25v46.866H0V0z" fill="#E8F1FB"/><path d="M31.147 34.072c-.457.116-.569.298-.49.41.082.106.49.025.703-.073.217-.1.27-.22.195-.332-.059-.088-.338-.021-.408-.005zm-3.624-21.141c.229.018.211.012.303.028.054-.075.457-.659.493-.78.041-.118-.055-.209-.147-.213-.09-.006-.272.005-.395.116-.13.118-.212.645-.254.849zm6.93 7.132c-.493-.179-.999-.08-1.486.112l-.047.103a1.39 1.39 0 01-.364.473c.254.181.838.36 1.469.34.633-.015 1.183-.462 1.183-.462-.127-.18-.258-.387-.755-.566zm-.886 2.744c-.192-.335-.748-.397-1.217-.768l-.03.098-.106.025a2.012 2.012 0 01-.948.005c.032.075.058.188.07.248a2.05 2.05 0 001.39.742c.606.067.84-.35.84-.35zm-1.157-3.024c.309.101.59.151 1.354-.042.812-.21.928-.817.928-.817-.356-.227-.815-.225-1.047-.137-.234.084-.764.084-.989.034a1.642 1.642 0 01-.53.881c.106.021.2.05.284.081zm.653 9.66c.483-.432.789-.875.505-1.174-.283-.3-.762-.039-1.248.392-.484.432-.788.874-.506 1.172.262.279.765.042 1.25-.39zm-1.222-1.205c.609-1.047-.126-2.45-.74-3.427a2.132 2.132 0 01-.228-.101c.215.752.624 1.646.456 2.335-.536-.619-.694-2.473-.694-2.473a2.634 2.634 0 01-.309-.23c0 .065-.003.136-.008.206.074 1.117.168 2.265.525 2.838.352.562.998.852.998.852zm-1.31-3.964c.35.27.819.527 1.337.45 0 0 .119-.377-.912-1.304a1.779 1.779 0 01-.81-.308c-.043.118-.113.277-.061.504.05.228.211.477.447.658zm3.738-6.118c.444-.391.824-1.356.824-1.356-.408.05-1.201.396-1.682.657-.442.242-1.06.747-1.322.934.31.024.49.132.506.141l.105.066c.789.113 1.11-.038 1.57-.441v-.001zm-1.82 6.14l-.023-.003a1.495 1.495 0 01-.527-.081c.047.078.082.15.106.213 1.69 1.53 1.545 2.286 1.545 2.286-.576-.326-1.215-1.259-1.538-1.827l-.116.017a1.48 1.48 0 01-.42.005c.22.202.542.77 1.068 1.672.521.904 1.793 1.29 1.793 1.29.13-1.531-1.24-2.944-1.887-3.573zm-.21-1.087c-.415-.269-.61-.321-.892-.42-.042.336-.208.547-.221.565.121.14.558.864 1.473.744 0 0 .244-.495-.36-.89zm-2.314-5.036c-.324.215-.681.66-.41 1.287.271.628.784 1.518.477 1.865-.306.348-1.395.528-2.281.183 0 0-.186.542-.508.89 0 0 .15.3.662.15 0 0-.187.444.068.924 0 0 .596-.1.85-.628 0 0 .238.41.716.56 0 0 .393-.195.307-.958 0 0 .287.68 1.174.793 0 0 .51-.626-.154-1.469 0 0 .476.414 1.345.215 0 0 .135-.428-.65-1.022 0 0 .89-.034 1.23-.76 0 0-.376-.447-1.294-.347 0 0 .85-.182 1.037-1.171 0 0-.613-.38-1.582.23 0 0 .17-.313.578-.625.408-.316.903-1.19.73-2.476-.322.691-.852 1.401-2.295 2.359zm-.011-6.744c.195.05.237.037.33.028a.414.414 0 00-.013-.189s-.46-.436-.85-.511a.555.555 0 00-.471.114s.137-.013.345.151c.207.162.463.36.659.407zm-.834 1.293c-.008.12-.095.246-.197.348 0 0 .566-.13.634-.47.063-.301-.07-.514-.162-.681-.085-.16-.346-.527-.412-.68-.059-.14-.092-.256-.07-.334-.173.17-.32.347-.316.504.001.159.194.561.294.714.102.154.248.354.23.599zm1.101-.56c-.152.291-.224.771-.096 1.103.101.268.183.65.19.77.211-.306.279-.633.235-.94-.027-.181-.05-.478.066-.706.096-.19.298-.528.27-.865a2.784 2.784 0 00-.462-.198c.028.292-.055.556-.203.837zm-2.102 2.043s.373-.271.462-.501c.092-.228.116-.387-.258-.277-.018.27-.088.534-.204.779zm5.93 2.17c.44-.749.207-1.698.207-1.698-.874.227-1.321.955-1.447 1.163-.124.207-.334 1.01-.427 1.334-.113.397-.264.735-.46.979.97-.448 1.746-1.13 2.126-1.778zm-3.314-3.305c.007.064.012.127.014.195.171-.287.669.008.669.008-.313-.486-.466-.539-.692-.623-.018.117-.014.255.008.42h.001zm4.683 3.508l-.258.728a82.585 82.585 0 012.075-1.553c.403-.294 1.006-.715 1.608-.911 0 0-.554.697-1 1.04-.514.395-1.038.737-1.471.966-.382.204-.577.319-1.353.683a6.2 6.2 0 01-.277.401c2.133-.344 4.478-1.91 5.203-2.879.727-.97.52-2.416.52-2.416-.705.136-2.232 1.415-2.627 1.8-.396.384-1.591 1.513-2.42 2.141zm-1.724.558c.166-.08.356-.167.548-.245l.178-.071c1.575-.81 3.137-2.49 3.769-3.656.63-1.168.37-2.523.203-3.248-.716.587-1.745 1.746-2.194 2.375-.552.772-1.258 1.866-1.697 2.756v.026c.004.093.006.193.002.3l-.019.232c.517-.638 1.137-1.408 1.726-2.12.404-.487.748-.782 1.126-1.02-.32.903-.891 1.624-1.299 1.983-.404.358-.99.963-1.563 1.334l-.057.183a1.992 1.992 0 01-.207.5 3.714 3.714 0 01-.516.672zm8.194-.562c-1.67-.043-3.02.352-4.062.663-1.218.36-3.075 1.034-3.724 1.315.244.008.51.077.736.223.906-.336 1.328-.48 2.153-.703.649-.177 1.13-.212 1.536-.25 0 0-.572.367-1.514.658-.935.29-1.337.34-2.096.48-.005.026-.118.55-.745.84 1.348-.57 4.006-.9 5.432-1.477 1.931-.779 2.285-1.748 2.285-1.748v-.001zM29.61 25.59s.34-.362.439-.66c.117-.34.121-.707.013-1.05a1.505 1.505 0 00-.279-.495.69.69 0 01-.197.182l-.07.034-.074-.024a1.153 1.153 0 01-.178-.07 1.746 1.746 0 00-.125.475c-.025.23-.071.594.016.89.11.36.33.58.455.718zm5.037-3.383c-.288-.826-.86-.954-1.42-1.056a3.256 3.256 0 00-1.235-.016c.18.195.241.387.329.512.275.388.758.617 1.31.73.653.127 1.016-.169 1.016-.169zm-10.243-6.616c.195-.188.433-.468.524-.736 0 0-.388.006-.569.123-.234.15-.459.476-.543.867 0 0 .393-.066.588-.254zm-1.512-.613c-.181-.117-.57-.123-.57-.123.091.269.33.548.526.736.193.188.585.254.585.254-.086-.392-.308-.718-.541-.867zm-4.674-.448a.152.152 0 01-.14-.094.15.15 0 01.14-.209c.088 0 .158.067.158.151 0 .084-.07.152-.158.152zm.095-.812c-.21-.049-.65-.098-.845.181-.196.277-.121.802.27 1.016 0 0 .596-.498 1.318-.003 0 0 .167-.106.544-.188 0 0-.221-.262-.47-.37-.224-.1-.686-.23-.818-.636zm1.857 7.073c.228 0 .573-.18.998-.701.628-.767.771-1.8.771-1.8-.643 1.044-1.284 1.587-1.783 1.558-.442-.023-.647-.642-.647-.642-.223.175-.262.671-.144.988.114.319.46.597.805.597zm-.032-5.486c-.192-.151-.456-.491-.456-.491-.344.078-.587.122-.853.473-.245.324.092.824.092.824.245-.815 1.217-.806 1.217-.806zm7.8 10.975c-.259 1.265.144 1.785.144 1.785.669-.777.724-1.587.877-2.787-.074.159-.17.325-.298.489-.176 1.21-.42 1.38-.42 1.38a2.48 2.48 0 01.06-1.029 1.327 1.327 0 01-.363.162zm1.028-2.96a3.261 3.261 0 01-.17-.158c-.096.12-.424.517-.586.916-.124.34-.254.8-.318 1.064-.068.263-.262.814-.38 1.002 0 0 .52.064.905-.372.378-.428.505-.857.567-1.299a4.727 4.727 0 00-.018-1.153zm-.092-8.942c0-.084.071-.15.154-.15.085 0 .157.066.157.15a.154.154 0 01-.157.152.155.155 0 01-.154-.152zm.636.538c.392-.215.47-.74.272-1.016-.194-.28-.635-.23-.846-.182-.131.406-.594.537-.816.635-.25.11-.474.371-.474.371.378.082.547.188.547.188a1.095 1.095 0 011.317.004zm-1.182 1.195s.338-.5.091-.825c-.264-.35-.507-.395-.853-.472 0 0-.26.34-.454.491 0 0 .972-.01 1.216.806zm-.586 3.095s-.206.62-.648.642c-.498.029-1.14-.514-1.783-1.558 0 0 .142 1.034.77 1.8.423.52.77.7.998.7.343 0 .69-.277.807-.596.114-.317.079-.813-.144-.988zm-.178 10.87c.268-.164.542-.245.595-.26a3.52 3.52 0 00-.602-.314c-.165-.064-.395-.121-.395-.121-.107.033-.297.05-.297.05.223.047.465.394.52.495.06.107.178.151.178.151h.001zm-.48.766c.095-.045.29-.214.225-.57-.071-.418-.694-.835-.694-.835a.611.611 0 01-.28-.06 1.622 1.622 0 00-.327.228c.189-.031.497.05.669.176.13.094.34.42.21.645-.13.224-.61.07-.61.07.281.564.714.392.808.346zm.855-.504c.14-.027.354.101.354.101 0-.107-.043-.212.08-.29.115-.072.587.015.786-.019.097-.017.134-.071.108-.126-.061-.138-.176-.266-.176-.266-.229.066-.935.249-1.19.367-.156.071-.414.208-.46.334-.065.171.021.254.089.33.106-.303.223-.392.41-.43zm1.879-4.695c.193 1.285-.121 1.517-.121 1.517-.314-.6-.211-1.448-.211-1.448-.077-.089-.237-.248-.33-.398.153 2.677.587 2.985.587 2.985.634-.574.445-2.409.39-3.106a3.425 3.425 0 01-.315.45zm-3.014 7.912c-.745-.388-1.475-.983-2.134-1.925a.683.683 0 00-.059-.092s-.247.058-.441-.026l.127.205c.708 1.048 1.49 1.704 2.293 2.13l.214-.292zM18.282 23.32a4.645 4.645 0 00-.015 1.153c.059.442.186.87.564 1.299.384.436.904.372.904.372-.119-.188-.312-.739-.377-1.002-.09-.359-.196-.714-.317-1.064-.163-.398-.493-.796-.592-.915a2.12 2.12 0 01-.168.157zm2.135-1.55c.072-.199.023-.79.023-.79-.384.173-.841-.063-.841-.063.005.453.375 1.077.49 1.247.186-.136.265-.231.328-.394zm-2.436 8.234c-.027.055.008.11.108.126.197.034.67-.053.786.02.122.078.077.183.077.289 0 0 .217-.128.353-.1.19.039.304.127.411.43.069-.075.154-.159.088-.33-.045-.126-.303-.263-.457-.334-.254-.117-.96-.302-1.191-.367 0 0-.116.128-.175.266zm1.013 2.667l2.314 3.144.272-.402c-.937-1.271-2.094-2.846-2.212-3.005l.364-.252-1.145-.426.02 1.212.387-.271zm-1.01-9.163a1.055 1.055 0 01-.181.07l-.071.024-.071-.034c-.01-.006-.102-.057-.198-.182a1.468 1.468 0 00-.275.495c-.125.372-.09.737.012 1.049.096.298.436.66.436.66.123-.136.347-.356.456-.718.088-.295.041-.659.016-.889a1.598 1.598 0 00-.125-.475zm.107 1.805c-.09.15-.253.31-.332.4 0 0 .106.847-.208 1.447 0 0-.314-.232-.12-1.517a3.673 3.673 0 01-.315-.45c-.055.696-.245 2.532.39 3.106 0 0 .433-.309.585-2.986zm8.716-4.334s-.05.592.025.791c.06.163.139.258.323.395.117-.17.49-.794.495-1.248 0 0-.459.236-.843.062zm-8.924 13.322a5.658 5.658 0 01-1.088.058.301.301 0 01-.028.185s.071.08.071.168c.354.011.724-.009 1.1-.065.627-.092 1.285-.215 1.947-.458l-.22-.298c-.605.212-1.21.326-1.782.41zm-1.902.55c-.112.122-.219.25-.321.38-.023.042.014.109.083.1.066-.007.435-.044.647-.183.211-.14.353-.412.206-.51-.145-.097-.372-.05-.615.212zm6.768 2.148l-.652-.881-.27.398.96 1.306.728-1.255-.257-.45c-.19.331-.394.686-.51.882zm5.887-4.059l.024-1.212-1.15.426.366.252L24.498 37l-1.718-3.02-.212.316-1.528 2.239-.383-.247-.004 1.19 1.16-.446-.39-.249c.211-.31 1.041-1.523 1.317-1.931l1.719 2.97 3.792-5.153.385.271zM14.48 24.171c-.013-.027-.022-.057-.028-.075a.84.84 0 01-.037-.269c-1.44 1.49-2.275 1.746-2.275 1.746.535-1.047 1.854-1.695 2.31-1.947a.844.844 0 01.154-.3c-.019.005-.04.006-.06.008a1.164 1.164 0 01-.609-.081c-.6.422-1.417 1.063-2.056 1.762-.639.701-.868 1.35-.985 2.172 0 0 1.193-.041 1.948-1.054.753-1.015 1.13-1.477 1.638-1.962zm-.794-1.08a.795.795 0 01-.112-.12s-1.318 1.129-2.71 1.619c0 0 .296-.524.848-.905.67-.461 1.172-.616 1.759-.88l.048-.086c.019-.03.034-.055.055-.08-.492.184-2.239.824-2.804 1.108-.567.285-1.384.93-1.83 2.241 0 0 1.18.102 2.153-.679.973-.783 2.108-1.871 2.593-2.217zm2.23 11.438a.413.413 0 00-.347-.034c-.147.052-.683.358-.717.503-.038.144.037.214.12.247.083.03.183.061.257.07a.428.428 0 00.334-.147c.068-.084.32-.375.353-.444.037-.063.055-.16 0-.195zm10.291 2.006l-.271-.401-.29.387c.078.111.136.203.177.263l-.39.25 1.163.445-.006-1.191-.383.248v-.001zM15.53 33.924c-.003-.135-.127-.17-.24-.17-.11 0-.579.01-.828-.171a1.197 1.197 0 01-.45-.962c0-.704.591-1.28 1.321-1.28s1.319.576 1.319 1.281c0 .095-.02.253-.02.253.061-.11.278-.6.322-.69a1.666 1.666 0 00-.609-.865 1.69 1.69 0 00-1.012-.329 1.69 1.69 0 00-1.514.918c.103-.646.435-1.228.67-1.442.282-.257.759-.34.759-.34-.313.05-.728-.138-1.19-.55-.44-.39-.663-.732-.677-1.016.026.402.014.627-.105.955-.158.445-.594 1.27-.437 2.199.084.51.465 1.27 1.105 1.89.135.14.185.346.202.451 0 0 .94 0 1.163.022 0 0 .224-.022.221-.154zm-.167.258a3.508 3.508 0 00-.675.022c-.23.038-.494.081-.522.206-.026.119.058.241.176.421.07.11.243.046.338.012.096-.034.64-.317.726-.41.087-.092.124-.224-.042-.252l-.001.001zM36.48 23.748c-.564-.284-2.313-.924-2.803-1.108.018.026.035.05.052.08l.051.087c.586.263 1.087.418 1.76.88.547.38.845.904.845.904-1.392-.49-2.708-1.62-2.708-1.62a1.012 1.012 0 01-.114.122c.483.346 1.62 1.434 2.591 2.217.974.78 2.151.68 2.151.68-.443-1.313-1.26-1.957-1.825-2.242zm.904-1.373c-.645-.19-2.088-.358-2.665-.471.021.04.04.082.059.128.477.12 1.102.33 1.673.56a6.483 6.483 0 011.026.558c-1.013-.027-2.035-.416-2.798-.746a1.362 1.362 0 01-.605.18c.366.093.963.275 2.877 1.15 1.917.872 2.93.57 2.93.57-.69-1.28-1.857-1.737-2.497-1.929zM27.22 11.702h.251v-.395h.316v-.212h-.316v-.337h-.251v.337h-.313v.212h.313v.395zm8.103 9.068a2.17 2.17 0 01-.27.18c.692.06 2.161.127 2.92.502 0 0-1.4.18-3.244-.34-.188.085-.33.128-.575.153.133.084.26.19.374.333.674.19 1.822.394 3.72.527 1.898.131 2.909-.205 2.909-.205-.66-.392-1.714-.79-2.426-.923-.715-.134-2.586-.12-3.408-.227zm-22.151 1.813a1.35 1.35 0 01-.604-.18c-.763.331-1.785.72-2.798.748 0 0 .5-.343 1.025-.558.544-.223 1.103-.41 1.672-.561.019-.043.038-.086.06-.128-.578.112-2.018.28-2.663.472-.643.191-1.808.647-2.499 1.927 0 0 1.014.303 2.928-.57 1.913-.874 2.514-1.056 2.879-1.15zm20.14.67a1.169 1.169 0 01-.669.073c.08.103.127.206.155.302.455.251 1.777.898 2.31 1.947 0 0-.836-.256-2.278-1.746a.775.775 0 01-.062.344c.507.483.884.947 1.637 1.96.753 1.014 1.947 1.055 1.947 1.055-.114-.822-.344-1.47-.984-2.17-.639-.702-1.454-1.342-2.056-1.764zM31.68 34.495a.423.423 0 00-.35.035c-.052.035-.034.132 0 .195.04.07.287.361.357.444a.425.425 0 00.331.147c.088-.014.175-.038.258-.07.082-.034.156-.103.121-.247-.037-.145-.572-.45-.717-.504zm-1.027.146c-.147.097-.006.368.205.51.212.138.579.175.648.181.066.009.107-.058.08-.099a7.216 7.216 0 00-.319-.38c-.245-.264-.472-.31-.614-.212zm3.214-6.08c-.01.284-.238.626-.677 1.015-.463.413-.877.6-1.19.55 0 0 .479.083.76.34.236.215.565.797.668 1.444a1.675 1.675 0 00-.624-.673 1.694 1.694 0 00-.888-.246 1.684 1.684 0 00-1.013.328c-.293.215-.507.52-.61.867.043.09.263.579.322.69 0 0-.018-.159-.018-.254 0-.705.59-1.282 1.319-1.282.73 0 1.323.577 1.323 1.282 0 .37-.15.705-.407.922l-.044.04c-.25.18-.72.17-.83.17-.112 0-.235.035-.24.17-.003.133.22.154.22.154.224-.021 1.165-.021 1.165-.021a.849.849 0 01.204-.451c.637-.621 1.019-1.38 1.104-1.891.155-.93-.282-1.754-.442-2.2-.117-.326-.128-.552-.102-.954zm-3.415 5.8a5.61 5.61 0 01-1.088-.058 9.537 9.537 0 01-1.782-.411l-.218.297c.66.244 1.322.368 1.946.46.378.057.744.076 1.102.066 0-.09.068-.17.068-.17a.314.314 0 01-.028-.185zm2.107-.157a3.42 3.42 0 00-.674-.022c-.165.027-.128.16-.044.252.088.093.633.375.728.409.093.034.265.099.34-.012.116-.18.2-.302.175-.421-.03-.124-.293-.168-.525-.206zm6.224-15.167c-1.983.125-3.303.576-4.262.858.142.05.256.106.351.16 2.145-.591 3.673-.284 3.673-.284-.626.204-2.377.468-3.43.462.106.096.175.193.233.28.899-.01 2.13.194 3.645-.127 1.516-.319 2.84-1.224 2.84-1.224-.542-.136-1.594-.218-3.05-.125zm-15.76-7.31c-.06-.428-.22-1.458-.391-1.586-.089-.065-.205-.058-.335-.018-.133.04-.273.126-.28.238-.008.189.215.753.543 1.515.195-.096.296-.118.463-.149zM8.999 22.125c1.897-.133 3.048-.338 3.723-.529.104-.131.23-.244.372-.332a1.65 1.65 0 01-.575-.151c-1.845.518-3.244.338-3.244.338.758-.374 2.228-.441 2.919-.501a2.079 2.079 0 01-.271-.181c-.82.109-2.692.093-3.405.226-.713.135-1.767.532-2.428.925 0 0 1.013.337 2.909.205zM23.164 11.71c.083-.009.17-.013.257-.017a10.83 10.83 0 00-.284-1.36c-.087-.27-.197-.463-.378-.511 0 0 .141.376.22.762.076.387.134.757.186 1.126zm-.308.906s-.374.378-.738.462c0 0 .15-.38.738-.462zm-.192.428a1.31 1.31 0 00.494-.602c-.204-.027-.722.028-1.04.249-.227.148-.41.354-.531.596 0 0 .569.042 1.077-.243zm-2.888-1.343h.254v-.394h.313v-.213h-.313v-.337h-.254v.337h-.316v.212h.316v.395zm4.619.915c.587.082.737.462.737.462-.366-.084-.738-.462-.738-.462zm-.305-.174c.048.147.255.463.495.602.508.285 1.077.243 1.077.243a1.5 1.5 0 00-.53-.596c-.319-.221-.837-.277-1.041-.249h-.001zm2.768.517c.094-.017.076-.01.308-.028-.045-.204-.127-.731-.257-.849-.123-.112-.305-.122-.396-.117-.09.005-.186.096-.147.214.036.121.438.705.492.78zm-3.362-3.25h.255v-.397h.314v-.21h-.313v-.336h-.256v.336h-.313v.21h.313v.397zm1.193 2.166c.33-.762.55-1.326.541-1.514-.005-.114-.144-.2-.274-.24-.134-.039-.253-.046-.339.019-.17.128-.332 1.158-.39 1.586.168.031.27.053.462.149zm-.604-.165c.05-.369.11-.738.186-1.126.079-.386.22-.763.22-.763-.184.049-.293.244-.377.512-.087.269-.231.95-.285 1.36.087.004.172.008.256.017zm-4.002 1.22c.232.02.214.013.307.03.054-.076.455-.66.495-.781.036-.118-.06-.209-.151-.213-.09-.006-.273.005-.394.116-.129.118-.211.645-.256.848zm-7.214 3.89l.177.071c.193.078.383.165.55.245a3.656 3.656 0 01-.516-.67 2.032 2.032 0 01-.21-.501l-.053-.183c-.572-.371-1.162-.976-1.566-1.335-.405-.358-.98-1.08-1.297-1.98.378.236.721.53 1.125 1.018.59.712 1.207 1.482 1.725 2.12l-.018-.232c-.003-.107 0-.207.003-.3l-.002-.026c-.437-.89-1.145-1.984-1.697-2.756-.449-.63-1.477-1.788-2.192-2.375-.167.725-.432 2.08.203 3.248.633 1.167 2.192 2.845 3.768 3.656zm-.323 1.112a6.704 6.704 0 01-.277-.401c-.774-.364-.971-.479-1.354-.683a11.119 11.119 0 01-1.47-.966c-.446-.343-1-1.041-1-1.041.601.197 1.206.618 1.61.912.523.383 1.364.999 2.073 1.553l-.257-.729c-.829-.628-2.023-1.756-2.42-2.14-.396-.386-1.924-1.664-2.628-1.8 0 0-.204 1.446.52 2.416.726.97 3.07 2.535 5.203 2.879zm-.644 2.58c.057-.087.126-.184.23-.28-1.05.006-2.8-.258-3.426-.462 0 0 1.526-.307 3.67.285.096-.055.211-.11.353-.16-.962-.283-2.28-.733-4.264-.86-1.456-.092-2.505-.01-3.049.127 0 0 1.326.904 2.84 1.223 1.516.32 2.746.118 3.646.126zm3.464-2.36c-.195-.243-.349-.58-.46-.978-.093-.324-.302-1.127-.426-1.334-.123-.208-.572-.936-1.447-1.163 0 0-.232.95.208 1.698.378.649 1.157 1.33 2.125 1.778zm-7.683.171c1.43.576 4.084.907 5.433 1.477-.627-.29-.74-.814-.745-.84-.758-.142-1.162-.19-2.095-.48-.942-.291-1.514-.658-1.514-.658.406.038.886.073 1.538.25.823.223 1.245.366 2.152.703a1.46 1.46 0 01.734-.223c-.65-.281-2.504-.954-3.723-1.316-1.04-.31-2.392-.705-4.062-.661 0 0 .353.97 2.282 1.748zM19.42 12.96c.094-.017.076-.01.307-.028-.044-.204-.127-.731-.255-.849-.122-.112-.305-.122-.394-.117-.093.005-.187.096-.149.214.036.121.439.705.491.78zm-3.662 5.33c.406.313.579.626.579.626-.971-.61-1.584-.23-1.584-.23a1.445 1.445 0 001.038 1.171c-.918-.1-1.292.347-1.292.347.338.725 1.224.76 1.224.76-.782.595-.644 1.022-.644 1.022.866.199 1.342-.214 1.342-.214-.663.842-.152 1.468-.152 1.468.883-.114 1.174-.793 1.174-.793-.087.763.305.959.305.959.476-.151.716-.56.716-.56.255.527.85.627.85.627.256-.48.07-.925.07-.925.51.151.664-.15.664-.15-.326-.347-.511-.889-.511-.889-.886.345-1.977.165-2.284-.183-.302-.346.206-1.237.48-1.865.27-.627-.087-1.072-.407-1.287-1.448-.958-1.976-1.668-2.3-2.36-.171 1.287.324 2.16.732 2.476zm1.575-6.86c.193-.048.451-.245.66-.406.208-.165.344-.151.344-.151a.549.549 0 00-.47-.115c-.389.075-.851.512-.851.512a.37.37 0 00-.011.188c.094.008.135.022.328-.028zm.561.489c-.09.168-.225.38-.165.683.07.34.637.469.637.469-.104-.102-.192-.228-.2-.348-.017-.245.131-.445.232-.599.1-.152.292-.555.294-.715.005-.156-.144-.334-.316-.502.022.077-.01.192-.07.333-.067.153-.328.52-.412.68v-.001zm-1.353 1.347c0-.068.002-.131.012-.195.024-.165.026-.303.008-.42-.226.084-.38.137-.69.623 0 0 .497-.295.67-.008zm.198-.17c-.044.306.021.634.235.94.035-.264.099-.522.192-.77.127-.332.053-.812-.1-1.102-.147-.281-.228-.545-.203-.837 0 0-.292.096-.462.198-.027.336.177.676.273.866.114.227.09.524.065.704zm1.968.609c.091.23.462.502.462.502a2.159 2.159 0 01-.204-.778c-.373-.111-.351.047-.258.276zm-.119 12.062a2.254 2.254 0 01-.296-.49c.152 1.2.205 2.01.874 2.787 0 0 .403-.519.144-1.784a1.295 1.295 0 01-.36-.162s.153.514.055 1.029c0 0-.238-.168-.417-1.38zm1.847-9.926c.143.112.264.286.32.58.08.41.328.85.402.984l.03-.007c-.044-.28.136-.867.185-.951 0 0-.264-.16-.385-.324-.089-.123-.244-.328-.677-.588-.125.017-.25.044-.37.08 0 0 .33.093.495.226zm4.706 14.425c.228.272.72 1.059 1.48 1.066 0 0-.112-.37-.449-.582-.338-.212-.768-.484-.963-.811-.192-.326-.396-.479-.536-.539-.03.24-.149.46-.28.69 0 0 .438 1.956 2.018 2.108 0 0-.034-.406-.5-.716-.47-.307-1.168-.787-1.118-1.513 0 0 .124.025.348.297zm-6.212-.5s.37-.245.775-.395c.264-.1.394-.367.674-.635-.315.111-1.027.221-1.322.306-.297.086-.513.233-.796.534 0 0 .436.12.67.19zm2.319-13.674c.034-.417-.175-.661-.481-.87-.24-.171-.742-.323-.844-.35.205.29.594.62.809.74.272.148.516.48.516.48zm2.377-3.374a.193.193 0 00.192-.19.189.189 0 00-.12-.173.194.194 0 00-.072-.014.193.193 0 00-.198.188.193.193 0 00.198.189zm2.853 1.096c.502.062 1.091.037 1.091.037-.032.18-.107.316-.24.4-.031-.393-.851-.397-.851-.397v-.04zm-1.598.909c.529-.111.697-.397.787-.508 0 0-.07.274-.038.384 0 0 .233-.013.415-.233 0 0-.133.22-.16.406 0 0 .145.017.402-.134 0 0-.051.138-.06.296 0 0 .607-.19.904-.458 0 0 .004.185-.01.29 0 0 .944-.092 1.015-1.43 0 0-.628.227-1.26.197s-1.794-.042-2.172-.221c0 0 .062.23.363.362 0 0-.156 0-.313.132 0 0 .092.19.358.29 0 0-.48.484-.995.45 0 0 .235.287.764.177zm2.466-1.426c.354 0 .64-.049.64-.11 0-.065-.286-.113-.64-.113-.352 0-.64.048-.64.113 0 .061.288.11.64.11zm-.27 9.247c-.006-.008-.012-.013-.015-.02l-.032.041a1.37 1.37 0 01-.388.26s-.28.515.06 1.14c.336.624.621 1.26.76 1.614 0 0 .181-.026.382-1.002.138-.662.311-.828.49-1.055-.198.095-.353.124-.369.127l-.133.022-.064-.117a1.267 1.267 0 01-.154-.62c0-.058.003-.116.009-.165-.315.007-.483-.147-.545-.225zm.565-10.553c0-.144-.18-.187-.273-.187h-.05c-.094 0-.273.042-.273.187s.233.495.294.65h.006c.063-.155.296-.505.296-.65zm-5.606 3.894c-.246-.274-.559-.95-.559-.95-.1-.01-.217-.04-.312-.064.006.087.002.262.002.262-.104-.025-.418-.117-.418-.117.373.253.489.346.668.525.318.322.497.724.497.724.136-.23.122-.38.122-.38zm-.559 12.86c-.355.103-.436.496-.436.496.157.071.225.256.542.256.342 0 .733-.334 1-.784.189-.323.277-.97.277-1.085-.273.481-.945.99-1.383 1.117zm1.758-8.143c.15.22.26.265.39.325.128-.06.237-.105.387-.325.114-.173.224-.491.163-.72-.078-.28-.233-.391-.329-.567-.076.07-.123.125-.218.177h-.004c-.096-.052-.144-.107-.223-.177-.096.177-.25.287-.33.568-.06.228.049.546.164.719zm.386-1.362h.007c.176-.148.333-.368.384-.497.048-.13.06-.32-.056-.465-.141-.174-.317-.368-.328-.526h-.008c-.014.158-.188.352-.329.526a.471.471 0 00-.053.465c.048.13.206.349.383.497zm-2.284 12.24c-.468.31-.498.715-.498.715 1.577-.151 2.014-2.106 2.014-2.106-.13-.231-.249-.452-.282-.69-.135.06-.34.212-.535.537-.194.328-.623.6-.96.812a1.168 1.168 0 00-.452.581c.764-.006 1.256-.793 1.48-1.065.224-.272.349-.297.349-.297.05.726-.648 1.206-1.116 1.513zm5.14-16.26c-.301.209-.51.452-.478.87 0 0 .246-.332.516-.48.217-.119.606-.45.808-.74-.098.027-.6.179-.845.35zm-.706-.288s-.314.678-.558.952c0 0-.014.15.122.378 0 0 .177-.4.495-.722.18-.18.296-.273.669-.526 0 0-.315.091-.418.117 0 0-.007-.176.004-.262a2.252 2.252 0 01-.313.063zm-1.768-4.78c0-.204-.17-.37-.378-.37a.374.374 0 00-.381.37c0 .259.332.851.374 1.128h.013c.042-.277.372-.869.372-1.128zm2.934 5.382c-.431.26-.59.464-.677.586-.119.165-.382.325-.382.325.047.084.23.671.184.951l.027.007c.075-.134.325-.574.404-.984.055-.294.18-.468.32-.58.164-.133.495-.226.495-.226a2.467 2.467 0 00-.37-.079zm-1.113 2.321a1.515 1.515 0 000 .736c.052.204.18.47.426.618.212.129.711.158.902-.3 0 0-.913.068-1.328-1.054zm-4.825 1.354c.245-.148.372-.414.425-.617.06-.242.06-.495 0-.737-.415 1.122-1.329 1.054-1.329 1.054.19.458.692.429.904.3zm-3.897 3.903a1.77 1.77 0 01-.81.307c-1.03.926-.91 1.304-.91 1.304.518.077.985-.18 1.338-.45.23-.18.392-.43.445-.658.05-.226-.019-.386-.063-.503zm-4.5-.905s.36.296 1.013.168c.556-.112 1.037-.34 1.315-.73.084-.124.143-.316.325-.51a3.25 3.25 0 00-1.234.015c-.56.102-1.131.23-1.418 1.057zm2.05-3.676c.015-.008.196-.117.504-.141-.259-.188-.881-.692-1.318-.934-.482-.261-1.278-.607-1.682-.657 0 0 .38.965.82 1.357.462.403.783.554 1.57.441l.106-.066zm1.04 15.545c-.077.111-.023.231.194.332.215.098.622.18.705.073.077-.112-.033-.294-.49-.41-.07-.017-.35-.084-.409.005zM12.042 20.63s.55.448 1.179.462c.632.02 1.216-.158 1.47-.339a1.404 1.404 0 01-.364-.473l-.045-.103c-.486-.193-.992-.291-1.49-.112-.494.18-.626.386-.75.565zm.513-1.703s.119.607.928.816c.763.193 1.044.143 1.353.042.085-.03.178-.06.284-.081a1.65 1.65 0 01-.527-.881c-.226.05-.755.05-.988-.034-.235-.088-.692-.09-1.049.137zm11.951 15.928c.13.194.388.571.644.946l.288-.39-.76-1.113-.214-.314-.738 1.29.27.47c.22-.377.414-.715.51-.89zm8.346-1.503a1.148 1.148 0 00-.597-.36c-.573-.113-.772.255-1.103.369-.328.113-.542-.114-.855-.848-.314-.735-.864-1.722-1.195-2.09-.108-.12-.455-.12-.51-.12-.055 0-.107.018-.111.078-.003.059-.003.389-.003.389-.113-.076-.37-.236-.498-.25-.131-.019-.42.306-.285.33 1.436.273 2.123 1.805 2.403 2.382.146.297.228.617.303.924.415-.043.714-.108 1.002-.302.285-.195.797-.304 1.07-.304.266 0 .328-.108.379-.198zm-10.22-21.276c0 .112.444.206.992.206.549 0 .993-.094.993-.206 0-.113-.444-.205-.993-.205-.548 0-.993.092-.993.205zm1.944 20.53c-.262-.233-.857-1.052-.95-1.31h-.006c-.091.258-.689 1.077-.953 1.308-.26.236-.897.854-1.237 1.16 0 0 .97-.232 1.513-.711 0 0 .39.218.673.218h.014c.282 0 .67-.218.67-.218.546.479 1.517.711 1.517.711-.341-.306-.977-.924-1.24-1.159zm-.947.857h-.012a1.37 1.37 0 01-.532-.13c.114.234.329.598.535.747h.004c.206-.149.422-.512.537-.748-.115.05-.318.131-.532.131zm-6.481-.232c.281-.577.969-2.11 2.403-2.382.136-.025-.156-.35-.282-.331-.13.014-.386.175-.498.25 0 0 0-.33-.004-.388-.004-.06-.058-.08-.114-.08-.055.002-.402 0-.512.122-.326.367-.879 1.354-1.191 2.09-.313.733-.525.96-.856.847-.33-.114-.528-.482-1.102-.37-.2.04-.421.169-.595.362.048.088.11.198.38.198.268 0 .78.108 1.066.303.288.194.59.259 1.001.303.076-.308.16-.628.304-.924zm2.753-19.935c.354 0 .638-.049.638-.11 0-.065-.284-.113-.638-.113-.353 0-.638.048-.638.113 0 .061.285.11.638.11zm.866.517v.04s-.816.004-.849.397c-.132-.084-.209-.22-.24-.4 0 0 .59.025 1.089-.037zm-.639.953c-.014-.106-.01-.29-.01-.29.295.268.905.457.905.457-.008-.1-.03-.2-.065-.295.26.15.406.133.406.133a1.347 1.347 0 00-.159-.406c.18.22.412.233.412.233.033-.11-.035-.384-.035-.384.089.11.258.397.785.508.528.11.766-.176.766-.176-.516.033-.999-.451-.999-.451.27-.1.36-.29.36-.29-.154-.131-.313-.131-.313-.131.301-.132.362-.363.362-.363-.375.179-1.54.19-2.17.222-.632.029-1.263-.198-1.263-.198.072 1.338 1.018 1.43 1.018 1.43zm-5.606 8.39a2.063 2.063 0 001.389-.741c.013-.06.04-.172.068-.248a2 2 0 01-.945-.005l-.105-.025-.032-.097c-.469.37-1.024.431-1.216.767 0 0 .234.417.841.35zm5.679-11.167c0-.143-.179-.185-.27-.185h-.052c-.092 0-.274.042-.274.186 0 .145.235.495.296.65h.006c.064-.155.294-.506.294-.65zm-.784 11.681l-.135-.021c-.014-.005-.172-.032-.369-.128.181.227.354.393.49 1.055.202.976.383 1.002.383 1.002.137-.353.42-.99.76-1.615.339-.623.06-1.14.06-1.14a1.246 1.246 0 01-.386-.26l-.034-.04c-.004.008-.01.013-.014.02a.668.668 0 01-.546.225 1.29 1.29 0 01-.147.786l-.062.116zm-4.713 2.908c.525-.902.847-1.47 1.066-1.671-.14.016-.282.016-.42-.005l-.113-.017c-.324.568-.963 1.5-1.538 1.826 0 0-.147-.755 1.545-2.286.023-.062.057-.134.105-.213a1.49 1.49 0 01-.529.081l-.022.003c-.649.628-2.017 2.04-1.89 3.572 0 0 1.273-.386 1.796-1.29zm1.414-3.224c-.01-.017-.175-.23-.219-.564-.28.098-.478.151-.888.42-.608.392-.36.89-.36.89.91.118 1.347-.607 1.467-.746zm7.002.864c.068-.212.36-.605.367-1.246 0-.242-.445-.636-.569-.948-.415.358-.471 1.079-.423 1.32.094.467.626.874.626.874zm-8.937 5.226c.488.43.987.668 1.25.39.28-.299-.023-.741-.51-1.172-.483-.432-.962-.692-1.243-.392-.286.298.02.74.503 1.174zm2.22-2.058c.36-.573.45-1.72.528-2.838a2.156 2.156 0 01-.01-.206c-.028.027-.059.05-.085.074a3.781 3.781 0 01-.224.157s-.161 1.854-.693 2.473c-.169-.69.242-1.584.456-2.336-.074.037-.15.07-.229.1-.616.979-1.348 2.381-.742 3.428 0 0 .65-.29 1-.852zm3.773 1.83s.417.104.682-.013c0 0 .095-.386.392-.56.066-.036.273-.096.466-.19-.073-.057-.138-.093-.226-.193 0 0-.336.121-.615.303-.279.182-.551.493-.699.652zm2.089-11.807c.12-.396-.137-.779-.233-.994-.217.17-.393.351-.423.821-.027.47.101 1.081.101 1.081.165-.339.435-.51.555-.908zm1.361-1.542h-.006c-.101.045-.518.259-.548.563-.03.305.528.866.545 1.1h.012c.017-.234.574-.796.545-1.1-.027-.304-.445-.518-.548-.562zm-1.943-1.141c.112.389.305.755.495 1.04.17.264.279.687.264.832 0 0 .254-.548.126-.935-.104-.298-.379-.748-.885-.937zm4.494 8.918c-.116.249-.396.493-.458.71-.076.255-.1.416.027.713.115.26.249.412.296.57 0 0 .364-.459.423-.65.064-.189.08-.503.009-.7-.077-.201-.21-.46-.297-.643zm-2.163-6.202c-.068.281-.005.47.127.641.13.17.352.355.56.714 0 0 .237-.306.266-.465.03-.16-.017-.542-.07-.7-.05-.162-.256-.677-.426-1.201 0 0-.388.726-.457 1.011zm3.037 4.849a3.537 3.537 0 01-.33-.313s-.306.54-.356.697c0 0 .15.04.318-.08.167-.117.203-.15.37-.305h-.002zm-.962-1.895c-.127.242-.352.598-.352.598.016.145.005.394.052.697.049.302.457.818.457.818.1-.271.34-.642.39-1.007.029-.245-.025-.612-.025-.612-.165-.076-.374-.316-.523-.494zm-.934-1.938a1.2 1.2 0 00-.207.54c-.015.217.021.393.144.71.155.402.393.85.503 1.052 0 0 .212-.293.33-.557 0 0-.33-.44-.473-.752-.164-.366-.23-.703-.297-.993zm-.472-2.795c-.131.387.127.935.127.935-.02-.145.088-.568.26-.831.19-.286.38-.652.496-1.041-.508.189-.783.638-.883.938zm.956 1.573c-.03-.47-.205-.65-.424-.82-.093.214-.352.597-.233.993.122.399.39.57.554.908 0 0 .131-.61.102-1.08h.001zm-3.289.396c-.052.158-.096.54-.07.7.029.16.268.465.268.465.206-.359.43-.544.557-.714.133-.172.195-.36.128-.642-.07-.285-.456-1.01-.456-1.01-.172.524-.377 1.039-.427 1.201zm1.274 13.26a.822.822 0 00.172.22c.403.373.66.338.884.259 0 0-.665-.217-.629-.79.039-.57.374-.913.432-1.21.066-.327.043-.639-.218-1.016a9.085 9.085 0 01-.628 1.568c-.006.01-.008.02-.013.031-.005-.01-.008-.022-.015-.031a9.024 9.024 0 01-.626-1.568c-.26.377-.284.69-.219 1.016.06.297.393.64.431 1.21.037.573-.627.79-.627.79.223.079.479.114.884-.26a.816.816 0 00.172-.22zm-.675.825l.127-.205c-.194.084-.44.025-.44.025a.61.61 0 00-.059.092c-.66.944-1.39 1.537-2.134 1.926l.211.293c.806-.424 1.589-1.084 2.295-2.132zm4.121-2.502c-.15-.16-.42-.47-.697-.652-.279-.182-.618-.302-.618-.302-.088.1-.15.135-.223.19.192.096.4.156.463.194.297.172.393.558.393.558.265.117.683.012.683.012h-.001zm-1.303-.47c-.436-.128-1.108-.637-1.381-1.117 0 .114.087.76.278 1.084.267.45.657.784 1 .784.318 0 .386-.185.541-.257 0 0-.08-.392-.437-.494h-.001zm-5.606 2.096c.093.046.528.218.81-.346 0 0-.482.154-.612-.07-.13-.225.083-.55.213-.645.17-.125.48-.207.665-.177 0 0-.15-.137-.328-.227a.605.605 0 01-.279.06s-.621.417-.694.835c-.06.356.132.527.225.571zm1.161-10.638c.117.264.33.557.33.557.11-.202.35-.65.504-1.052.122-.317.16-.493.143-.71a1.186 1.186 0 00-.208-.54c-.065.29-.133.627-.296.993-.142.31-.473.752-.473.752zm-1.126 2.087c.164.156.203.188.369.305.166.12.32.08.32.08-.053-.158-.356-.697-.356-.697a4.54 4.54 0 01-.333.313zm.442-1.4s-.056.367-.026.612c.05.365.288.736.392 1.006 0 0 .406-.515.453-.817.046-.302.04-.552.055-.696 0 0-.226-.357-.35-.599-.15.178-.36.418-.524.494zm-.821 7.796s.443-.095.784-.206c.373-.12.63-.28.77-.358-.067-.098-.199-.277-.17-.56 0 0-.587.362-.758.497-.178.14-.545.507-.626.627zm1.39-3.05c.044-.157.18-.31.294-.57.127-.296.102-.457.028-.713-.063-.216-.341-.46-.456-.709-.091.183-.225.442-.297.642-.077.198-.055.512.005.701.06.191.425.65.425.65zm-1.346 4.29c.057-.102.298-.449.521-.496 0 0-.19-.016-.299-.05 0 0-.228.057-.39.122a3.622 3.622 0 00-.605.313c.051.016.327.096.596.26 0 0 .118-.043.178-.15h-.001zm4.412-11.178c-.11.232-.133.48-.098.628.037.147.23.361.25.605.031.378-.273.84-.273.84.281-.137.602-.457.743-.659.14-.201.036-.494-.026-.646-.059-.153-.51-.678-.596-.768zm-2.59 2.573c-.101.465.404.742.64 1.158.062-.168.258-.622.483-.779 0 0 .289-.825-.64-1.333 0 0-.382.49-.483.954zm.696-1.804c-.061.15-.165.443-.025.645.14.201.462.522.74.659 0 0-.304-.462-.27-.841.017-.242.212-.457.248-.604.037-.147.014-.396-.097-.628-.085.09-.536.616-.596.769zm-1.389 3.336s.037.239.22.585c.182.344.435.585.57.707 0 0 .305-.512.395-.737.1-.259.09-.512.047-.608-.105-.224-.46-.546-.619-.828-.036.137-.528.799-.613.88zm3.762.49c.05-.24-.007-.961-.421-1.32-.125.313-.573.707-.57.949.009.641.297 1.034.366 1.246 0 0 .532-.407.625-.874zm.329-2.976c-.93.509-.64 1.334-.64 1.334.226.157.42.61.482.777.236-.415.744-.692.643-1.157-.104-.463-.485-.954-.485-.954zm.954 3.072c.102-.184.176-.381.221-.586-.085-.082-.575-.744-.613-.88-.158.28-.515.604-.616.827-.045.095-.058.35.045.608.09.226.394.737.394.737a2.6 2.6 0 00.57-.707zm-4.821 2.925c.056.226.304.72.304.72.105-.172.415-.574.493-.861.078-.285-.2-.766-.3-.907-.5.453-.551.823-.497 1.048zm6.216 2.322c-.082-.12-.448-.487-.625-.627a15.716 15.716 0 00-.761-.495c.03.28-.102.46-.168.558.14.078.397.238.77.358.34.111.784.206.784.206zm-5.532-4.368a1 1 0 00-.061.729c.098.294.547.704.547.704.131-.222.327-.515.388-.662a.938.938 0 00.057-.545c-.05-.277-.379-.626-.487-.838-.103.204-.338.415-.444.612zm3.096 2.195c.016-.39-.611-1.124-.611-1.124-.332.31-.414.505-.449.816-.04.308.068.541.21.811.124.244.454.603.454.603.044-.297.379-.62.397-1.106zm-.13-.762s.448-.41.546-.705a.99.99 0 00-.062-.728c-.107-.196-.34-.409-.443-.612-.107.212-.434.562-.487.839a.966.966 0 00.055.545c.062.146.26.44.39.66zm.56 2.552s.274-.188.384-.432c.103-.23.044-.395-.063-.512-.106-.12-.355-.397-.463-.577-.07.214-.275.61-.303.73-.048.226.017.5.444.791zm-1.277-.552c.011-.369-.325-.942-.52-1.162h-.01c-.19.22-.528.793-.516 1.162.023.734.499 1.427.524 1.65.022-.223.499-.916.522-1.65zm-2.324.552c.426-.291.493-.565.443-.791-.027-.12-.233-.516-.302-.73-.105.18-.356.457-.462.576-.107.118-.165.282-.064.513.11.244.385.432.385.432zm3.714-2.986c-.102.141-.378.621-.3.906.082.287.389.689.492.86 0 0 .247-.493.304-.719.055-.224.003-.596-.496-1.047zm2.004 4.054c.407.15.778.393.778.393.23-.07.668-.189.668-.189-.283-.3-.5-.448-.797-.534-.3-.085-1.006-.195-1.321-.306.279.268.41.536.672.636zm-4.223-3.166c-.04-.31-.123-.506-.45-.816 0 0-.629.734-.614 1.124.018.484.35.809.397 1.106 0 0 .328-.36.454-.602.14-.27.247-.504.213-.812zm.306-3.535c.061-.275.654-.803.598-1.093-.081-.431-.367-.34-.594-.522h-.004c-.229.182-.519.09-.601.522-.053.29.536.818.597 1.093h.004zm-.005 3.221h.008c.047-.18.332-.397.449-.713a.714.714 0 00-.009-.55c-.089-.175-.408-.601-.443-.723-.04.122-.355.548-.446.722-.076.149-.078.366-.009.551.119.316.402.534.45.713z" fill="#11121E"/><path d="M51.187 0h47.25v46.866h-47.25V0z" fill="#E8F1FB"/><mask id="mask0_143_77" style="mask-type:luminance" maskUnits="userSpaceOnUse" x="58" y="12" width="33" height="23"><path d="M90.876 12.692H58.077v21.792h32.799V12.692z" fill="#fff"/></mask><g mask="url(#mask0_143_77)"><path d="M85.441 27.66c.139-.576.322-2.26.322-2.26h-1.63c-.01.173-.046.748-.096 1.335-.077.868-.33 1.668-1.21 1.668h-.679c-.002-.073 0-3.002 0-3.002H80.49v9.083h1.658v-4.611h1l1.627 4.608h1.78l-1.993-5.322c.414-.31.735-.905.88-1.499zm-18.79-10.178c.014-2.456.617-3.265 1.252-3.279.635.014 1.237.823 1.25 3.28-.013 2.401-.615 3.221-1.25 3.234-.635-.013-1.238-.833-1.252-3.233v-.002zm1.215 4.724h.074c1.097-.021 2.147-.678 2.602-2.54.175-.631.264-1.416.265-2.226l-.003-.294c-.03-1.297-.25-2.228-.593-2.89-.54-1.129-1.4-1.552-2.288-1.562l-.006-.002h-.028l-.006.002c-.889.01-1.748.433-2.288 1.562-.343.663-.564 1.593-.593 2.891l-.004.294c.001.81.09 1.594.265 2.226.455 1.86 1.506 2.518 2.603 2.539zm-7.567 10.873c-.161 0-.566-.037-.566-.037v-3.198s.13-.03.272-.03c.84 0 1.833-.05 1.833 1.631 0 1.54-1.09 1.634-1.54 1.634zm.2-4.706c-.285 0-.539.006-.766.018v-1.48h2.971v-1.51h-4.627v9.08h2.513c2.506 0 2.894-2.247 2.894-3.078 0-.983-.385-3.03-2.985-3.03zm16.154-.07H74.38v-2.902h-1.652v9.083h1.652v-4.671h2.274v4.671h1.653v-9.083h-1.653v2.902zm5.483-6.295v-7.57h1.376v-1.51h-4.428v1.51h1.376v7.57h1.676zm-6.544-4.385v4.385h1.658v-9.08h-1.66v3.162h-.9c-.372 0-.65-.084-.825-.254-.125-.117-.186-.277-.186-.485v-2.424H72.02v2.594c0 .596.234 1.102.697 1.504.457.398 1.015.598 1.663.598h1.211zm-15.86-3.185h2.053v7.57h1.658v-9.08h-5.366v9.08h1.656v-7.57zm7.206 14.125c.003-.184.038-1.477.04-1.651l.293-.02c1.207 0 1.428.234 1.54 1.67l-1.873.001zm.726-3.162h-2.248l-.305 9.083h1.638s.15-4.212.16-4.413l2.07.002c.019.183.328 4.41.328 4.41h1.692s-.582-6.238-.63-6.638c-.188-1.607-.937-2.444-2.705-2.444zm19.151-9.311c.005-.185.038-1.477.041-1.652h.312c1.206 0 1.408.214 1.52 1.652h-1.873zm3.432-.718c-.19-1.607-.937-2.445-2.705-2.445h-2.248l-.306 9.082h1.639s.15-4.211.16-4.41h2.07c.019.184.328 4.41.328 4.41h1.691s-.582-6.237-.629-6.637z" fill="#0F101C"/></g></g></symbol><symbol id="company-yadro" viewBox="0 0 62 44"><path d="M7.564 43.914h10.64v-21.58H7.564v21.58zm22.596 0h11.813L30.16 23.238v20.676zm-.138-22.244h13.366L31.244.42l-6.681 11.692 5.46 9.558zm-10.918 0h10.16l-5.08-8.894-5.08 8.894zM.742.085l6.491 11.363L13.725.085H.742zM7.564 21.67h10.64v-9.648L25.031.086H14.487L7.564 12.202v9.468zm22.833.664l5.847 10.234c2.737-.831 4.29-3.744 3.467-6.51-.661-2.22-2.685-3.736-4.975-3.724h-4.339zm-11.535 0v21.58c5.87-.02 10.64-4.852 10.64-10.792 0-5.94-4.77-10.768-10.64-10.788z" fill="#E8F1FB"/><path d="M50.311 22.334c-5.89 0-10.68 4.84-10.68 10.792s4.79 10.792 10.68 10.792c5.891 0 10.681-4.84 10.681-10.792s-4.79-10.792-10.68-10.792z" fill="#E8F1FB"/></symbol><symbol id="logo-cnews" viewBox="0 0 133 26"><radialGradient id="paint0_radial_1_716" cx="0" cy="0" r="1" gradientUnits="userSpaceOnUse" gradientTransform="rotate(45.072 -.592 31.477) scale(13.1828)"><stop stop-color="#0AF"/><stop offset="1" stop-color="#00406C"/></radialGradient><radialGradient id="paint1_radial_1_716" cx="0" cy="0" r="1" gradientUnits="userSpaceOnUse" gradientTransform="matrix(6.31748 6.33337 -6.33097 6.31508 21.779 9.667)"><stop stop-color="#fff" stop-opacity=".7"/><stop offset="1" stop-color="#fff" stop-opacity="0"/></radialGradient><clipPath id="clip0_1_716"><path fill="#fff" d="M0 0h133v26H0z"/></clipPath><path d="M13.755 0h1.265c1.523.124 3.156.215 4.46 1.1.742.485 1.12 1.477.804 2.318-.417 1.161-1.638 2.135-2.913 1.902-.72-.202-1.32-.671-1.89-1.135-.927-.76-1.822-1.592-2.923-2.1-.864-.43-1.879-.405-2.8-.205-1.646.394-2.945 1.646-3.778 3.075a11.651 11.651 0 00-1.513 5.986c-.003 2.515.701 5.056 2.129 7.136 1.442 2.103 3.671 3.687 6.177 4.206 1.774.406 3.695.31 5.363-.45.739-.326 1.429-.754 2.085-1.223.349.205.704.397 1.076.557-1.667 1.894-3.829 3.38-6.253 4.113-2.544.764-5.36.72-7.831-.293-2.697-1.087-4.87-3.31-6.049-5.954C.447 17.492.107 15.802 0 14.111v-1.137C.11 11.4.432 9.831 1.077 8.386c1.126-2.598 3.12-4.781 5.538-6.235C8.762.835 11.248.13 13.755 0zm26.402 0h.015c.206.072.407.148.612.221-.156 1.358-.281 2.72-.444 4.078C42.672 2.6 45.122.873 47.988.246 48.535.117 49.094.062 49.651 0h1.015c1.067.091 2.158.25 3.114.762 1.132.553 2.017 1.543 2.519 2.69.732 1.624.855 3.437.868 5.193 0 3.51.002 7.018 0 10.527-.006.733.01 1.469.08 2.198.096.596.17 1.237.562 1.722.362.472.925.733 1.484.886a13.9 13.9 0 002.216.425c.015.281.018.563.018.845H48.521c.008-.277-.038-.565.035-.837 1.116-.194 2.327-.313 3.272-.996.895-.707.94-1.94 1.023-2.986.054-2.468.02-4.939.03-7.408-.015-1.67.066-3.353-.231-5.006-.227-1.256-.67-2.539-1.596-3.455-1.224-1.285-3.093-1.684-4.806-1.636a7.139 7.139 0 00-2.614.395c-1.124.41-2.117 1.115-2.988 1.924-.124.09-.07.254-.085.381.01 4.897-.005 9.793.007 14.691.053.825.071 1.685.427 2.447.303.631.956 1 1.602 1.19.757.213 1.532.37 2.314.454.004.28.004.562.004.841-4.333 0-8.668 0-13.002.002.01-.281.011-.563.018-.845.78-.084 1.552-.247 2.304-.478.706-.225 1.382-.682 1.655-1.4.43-1.211.339-2.517.39-3.78V7.604c-.014-.738-.005-1.505-.334-2.183-.518-1.032-1.492-1.724-2.393-2.398-.002-.187-.003-.373-.007-.558 2.2-.83 4.412-1.63 6.61-2.465zm31.598 0h1.139c.7.075 1.406.147 2.086.337 1.833.46 3.498 1.603 4.524 3.2.902 1.377 1.321 3.023 1.4 4.657-5.38-.008-10.76.005-16.137-.006-.119.91-.168 1.83-.228 2.746-.245 2.618.468 5.333 2.038 7.449a9.412 9.412 0 005.852 3.684c1.528.268 3.142.259 4.613-.28 1.585-.56 2.874-1.737 3.862-3.073.282.205.565.411.844.625-1.478 2.497-3.688 4.61-6.395 5.703-3.62 1.482-7.995.75-11.02-1.709-1.637-1.3-2.874-3.073-3.63-5.018-.847-2.128-1.074-4.475-.798-6.74.414-3.755 2.395-7.388 5.549-9.516C67.3.78 69.524.125 71.755 0zm-2.073 1.322c-1.567.303-2.81 1.49-3.599 2.83-.53.937-.987 1.947-1.141 3.019 1.228-.132 2.463-.077 3.692-.178a527.75 527.75 0 006.997-.298c-.377-1.64-1.026-3.317-2.323-4.449a4.147 4.147 0 00-3.626-.924zM124.75 0h.948c2.001.13 4.035.676 5.678 1.854.064 1.647.099 3.3.187 4.947-.411.086-.826.153-1.237.24-.507-1.666-1.122-3.401-2.408-4.632-1.366-1.305-3.732-1.47-5.186-.228-.916.793-1.324 2.051-1.251 3.241-.01 1.272.778 2.387 1.712 3.18 1.554 1.298 3.431 2.107 5.163 3.131 1.405.83 2.819 1.775 3.732 3.165.784 1.182 1.045 2.661.85 4.058-.177 1.636-1 3.171-2.206 4.278-1.788 1.667-4.241 2.486-6.654 2.569-2.501.06-5.058-.582-7.112-2.047-.132-1.474-.195-2.954-.335-4.429-.071-.588-.026-1.187-.143-1.77.44-.092.882-.195 1.333-.216.388 1.942 1.199 3.857 2.566 5.313 1.036 1.076 2.51 1.734 4.01 1.703 1.119.03 2.254-.394 3.051-1.187 1.555-1.548 1.715-4.31.293-5.995-.809-.991-1.931-1.659-3.043-2.256-1.76-.954-3.65-1.729-5.19-3.04-1.026-.849-1.823-2.003-2.133-3.31-.338-1.472-.254-3.078.417-4.447.628-1.31 1.729-2.348 2.999-3.028C122.006.43 123.375.103 124.75 0z" fill="#E8F1FB"/><path d="M78.277.547c3.922.006 7.845.006 11.768 0-.005.278-.005.557-.002.835-.73.047-1.487.077-2.173.368-.443.158-.833.505-.954.972-.093.532-.018 1.082.152 1.592.376 1.169.858 2.298 1.296 3.443 1.536 3.952 3.1 7.891 4.621 11.849 1.748-4.062 3.444-8.15 5.174-12.219.116-.254-.057-.506-.135-.742-.547-1.3-.921-2.707-1.765-3.858-.715-.974-1.981-1.208-3.095-1.405.003-.278.003-.555.005-.833 3.968 0 7.94.013 11.91-.007 0 .278 0 .558.002.838-.858.066-1.741.124-2.532.497-.508.244-.911.763-.883 1.348.022.771.338 1.496.601 2.209 1.76 4.725 3.565 9.433 5.306 14.163.724-1.486 1.362-3.013 2.04-4.522 1.123-2.583 2.231-5.178 3.172-7.834.377-1.146.77-2.299.927-3.499.103-.644-.085-1.387-.647-1.767-.728-.466-1.616-.466-2.439-.59.003-.28.001-.558 0-.838 3.137.011 6.274-.003 9.411.006-.003.274-.003.547-.002.82-.945.099-1.909.35-2.658.966-1.162.926-1.75 2.336-2.366 3.647-2.97 6.609-5.905 13.234-8.881 19.838a7.384 7.384 0 00-.709.013h-.045c-2.208-5.668-4.431-11.331-6.631-17.003-2.353 5.657-4.653 11.338-6.987 17.003h-.043c-.26-.02-.52-.023-.779-.02-2.783-6.921-5.56-13.844-8.357-20.76-.411-.958-.834-1.96-1.62-2.677-.727-.672-1.724-.93-2.687-1.004.005-.277.005-.552.005-.829z" fill="#E8F1FB"/><path d="M24.912 19.884c3.847 0 6.966-3.127 6.966-6.985 0-3.857-3.119-6.985-6.966-6.985s-6.966 3.128-6.966 6.985c0 3.858 3.119 6.985 6.966 6.985z" fill="#fff"/><path d="M20.352 7.6c1.096-.901 2.44-1.518 3.86-1.645 2.06-.228 4.202.547 5.655 2.026 1.285 1.294 2.037 3.108 2.01 4.937a6.906 6.906 0 01-1.53 4.37c-1.051 1.315-2.594 2.233-4.253 2.502-1.645.273-3.392-.031-4.811-.92-1.795-1.086-3.05-3.025-3.277-5.113-.263-1.942.372-3.957 1.64-5.439-.382.61-.596 1.325-.499 2.05.135 1.261 1.2 2.354 2.454 2.52 1.482.258 3.007-.832 3.275-2.307.118-.664.036-1.379-.304-1.97-.51-.946-1.573-1.572-2.651-1.506-.565-.008-1.083.235-1.569.495z" fill="url(#paint0_radial_1_716)"/><path d="M20.352 7.6c1.096-.901 2.44-1.518 3.86-1.645 2.06-.228 4.202.547 5.655 2.026 1.285 1.294 2.037 3.108 2.01 4.937a6.906 6.906 0 01-1.53 4.37c-1.051 1.315-2.594 2.233-4.253 2.502-1.645.273-3.392-.031-4.811-.92-1.795-1.086-3.05-3.025-3.277-5.113-.263-1.942.372-3.957 1.64-5.439-.382.61-.596 1.325-.499 2.05.135 1.261 1.2 2.354 2.454 2.52 1.482.258 3.007-.832 3.275-2.307.118-.664.036-1.379-.304-1.97-.51-.946-1.573-1.572-2.651-1.506-.565-.008-1.083.235-1.569.495z" fill="url(#paint1_radial_1_716)"/></symbol><symbol id="logo-orion-2" viewBox="0 0 87 54"><path fill-rule="evenodd" clip-rule="evenodd" d="M20.622 3.851L23.844 0h5.8L34.8 4.814v4.172l-2.95 3.427 2.95 2.35v4.493h-3.867V14.12H23.2v5.135h-3.867V5.135l1.29-1.284zM23.2 10.27h7.733V3.85H23.2v6.419zM5.156 0h5.8l5.155 5.135v8.344l-5.155 5.135h-5.8L0 13.479V5.135L5.156 0zm-1.29 14.763h8.378V3.85H3.867v10.912zm31.578 8.344h5.8L46.4 28.24v8.345l-5.156 5.134h-5.8l-5.155-5.134V28.24l5.155-5.134zm-1.288 14.762h8.377V26.958h-8.377v10.911zM57.356 0h5.8l5.155 5.135v8.344l-5.155 5.135h-5.8L52.2 13.479V5.135L57.356 0zm-1.29 14.763h8.378V3.85h-8.377v10.912z" fill="#E8F1FB"/><path d="M75.4 3.851h-3.867v15.405H75.4V3.85zM81.844 0H75.4v3.851h7.733v15.405H87V5.135L81.844 0zM61.867 23.107h-6.445l-5.155 5.134v12.837h3.866v-7.06h6.445v-3.851h-6.445v-3.21h7.734v-3.85zm-49.623 6.418v-2.567l4.512-3.851h9.666v3.85h-10.31v3.21H23.2l4.511 4.493v2.567L23.2 41.72h-9.667v-3.85h10.311v-3.852h-7.088l-4.512-4.493zM87 51.348H0v2.568h87v-2.568zM42.533 0h-3.222v3.851h3.222v11.553h-3.222v3.852h10.311v-3.852H46.4V5.134L42.533 0zm21.911 23.107v3.85H69.6V41.72h3.867V30.04l-2.578-3.081h7.089v-3.851H64.444z" fill="#E8F1FB"/></symbol><symbol id="logo-orion" viewBox="0 0 60 40"><path d="M11.85 4L8.434.337H4.16L1.8 2.905.742 3.958v6.105L4.12 13.98h4.354l3.337-3.831V4h.04zm-8.585 7.453V2.82h6.144v8.632H3.265zm21.077-7.369L21.21.337h-4.028l-2.197 2.61L14.088 4v9.895h2.401V9.937h5.412v3.958h2.4v-2.61l-1.83-1.853 1.871-1.684V4.084zM16.49 3.032h5.412v4.673H16.49V3.032zM55.836.38h-4.598v2.525h-2.441v11.032h2.441V2.905h5.656v11.032h2.441V4.169L55.836.379zm-8.952 3.578L43.466.295h-4.231l-2.36 2.568-1.058 1.053v6.105l3.377 3.916h4.354l3.336-3.832V3.958zM38.3 11.453V2.82h6.144v8.632H38.3zm-6.145-.084V2.905L29.754.38h-2.36v2.442h2.36v8.548h-2.36v2.526h7.12V11.37h-2.36zM.824 37.769v1.894h58.552V37.77H.824zM31.219 21.39l-3.459-3.621h-4.232l-2.36 2.568-1.058 1.053v6.105l3.378 3.916h4.354l3.336-3.832v-6.19h.04zm-8.627 7.494v-8.631h6.145v8.631h-6.144zm20.752-11.157v2.526h3.5v11.073h2.482v-9.01l-1.75-2.021h5.208v-2.569h-9.44zm-2.36 2.442v-2.442h-4.598l-3.051 3.536v10.021h2.36V25.39h5.29v-2.485h-5.29V20.17h5.29zM14.658 23.2H9.775v-2.99h7.487v-2.483h-6.51L7.375 20.8v1.81l2.36 2.148.936.926h4.964v3.158H8.148v2.485h6.51l3.337-3.116V26.4" fill="#E8F1FB"/><path d="M43.344 17.769v2.526h3.5v11.074h2.482v-9.01l-1.75-2.022h5.208v-2.568h-9.44z" fill="#E8F1FB"/></symbol><symbol id="logo-zvirt" viewBox="0 0 301 67"><path fill-rule="evenodd" clip-rule="evenodd" d="M243.269 18.363L227.656 0h-20.285l-10.924 12.934-4.456 5.209v48.78h12.038V47.425h27.201v19.496h12.039V54.003l-9.284-9.3 9.284-8.386V18.363zm-39.24-5.208h27.201v23.13h-27.201v-23.13z" fill="#E8F1FB"/><path d="M300.954.03h-47.07v12.59h17.485v54.365h12.378V22.58l-8.742-10.023H301L300.954.031zM165.655 12.493V54.38l11.868.032V67h-35.666V54.412h11.822V12.068h-11.822V.031h11.822l11.976 12.462zM88.49 66.921L74.131 47.457V.03H86.51v54.727h25.561V.031h12.379v47.426L110.106 66.92H88.49zM56.198 54.333v12.588L0 66.968V46.293l17.933-18.237H49.02V12.62H3.589V.03h57.39v20.676L41.856 40.17h-29.91v14.162h44.253z" fill="#E8F1FB"/></symbol><symbol id="socials-habr" viewBox="0 0 27 28"><g clip-path="url(#clip0_10_387)"><path d="M3.46 11.973l.179.264c-.357-.01-.733-.045-.806-.196l.005-.023c.2-.052.373-.055.622-.045zm1.906.802l.086.26-.202.009.048-.266.068-.003zm.69 1.9c-.18.164-.318.273-.425.52-.148-.12-.224-.358-.272-.624-.052-.289-.07-.611-.109-.852l.013-.123.207-.015.53.99.056.105zm-.269-2.438a59.844 59.844 0 01.082-.534c.023 0 .046-.002.068-.003l-.15.537zm-.144-2.42l.95.256-.004.042c-.443.321-.851.464-1.07 1.047l.083-1.3.041-.044zm.887-1.343c-.062.604.025.871.131 1.246.17.12.236.19.181.367-.285-.14-.586-.286-1.022-.263a3.596 3.596 0 01-.033-.036c.123-.476.361-.769.546-1.147l.197-.167zm1.364-.804c.014 0 .028-.002.041-.003-.13.446-.183 1.474-.413 1.882-.54-.253-.53-1.35.076-1.783l.296-.096zm-.504 3.302l.455.489c-.178.544-.518.954-.66 1.583l-.27-.02c-.23-.635.346-1.668.443-2.13l.422.047.155.391-.545-.36zm1.247-3.305c-.046.528.071.801.104 1.211l-.806.402a5.426 5.426 0 01.393-1.59l.309-.023zm.313-.802l.06-.004-.091.257-.178.012.137-.16.072-.105zm.06 2.463l-.806.49c.016-.297.398-.696.718-.807l.073.04.014.277zm.536-1.853l-.145.818-.15.094-.08.087c-.146-.203-.182-.7-.151-1.075l.526.076zm.537-.613c0 .009-.002.017-.003.026l-.206.195c-.136.052-.154.05-.328.044l.073-.266h.464zm.537-1.076l-.24.537-.834-.06.004-.043c.344-.157.644-.342 1.07-.434zm-.433 1.395l.088-.051.077.269-.269-.052.104-.166zm.702.795c-.32.123-.762.09-1.018.229a64.04 64.04 0 00-.056-.323l.167-.215.812.315c.032-.001.063-.004.095-.006zm-.687.484l-.365.014-.022-.114c.256-.103.687-.113 1.074-.155l-.408.222-.279.033zm.955 0c-.307.075-.602.343-.803.551-.04-.242.435-.672.662-.806.1.088.11.08.141.255zm.537-3.212c0 .014-.002.028-.004.043l-.322.191-.48.035.006-.042.8-.227zm-.434.806l-.103-.15c.242-.202.778-.09 1.075-.061l-.972.211zm2.403-.791c.45.036.86.141 1.17.333l.084-.005-.05.07-.43.125-.774-.11-1.7-.24.004-.034a5.742 5.742 0 011.696-.14zm1.787-.142l-.096.127a1.307 1.307 0 01-.706-.269l.806.102-.005.04zm1.43.994l.222-.084c.078.065.154.131.231.197-.03.223-.25.407-.417.625l-.13.008c-.35-.572-.792-1.2-1.567-1.42l-.034-.068.313-.125c.527.181.966.457 1.455.616.063.15.043.1-.073.25zm.648 1.274l-.061-.06-.134.01.223-.21-.028.26zm.237 2.966c.363.311.456.76.304 1.345-.156-.347-.31-.693-.467-1.04.052-.076.102-.153.153-.23l.01-.075zm.105-2.416l-.004.05-.19.216-.074-.143c.114-.203.032-.094.182-.115l.086-.008zm.224-.003l.85.311c-.001.028-.005.056-.007.084l-.215.143-.852-.311.008-.085.216-.142zm1.656 1.075l-.471-.309-.066-.125c.205-.124.175-.118.392-.077.047.17.096.34.145.511zm.269-.102l-.095.102c-.115-.058-.135-.132-.174-.268l.246.105.023.061zm-.201-.769l-.068.005.224-.209c-.053.068-.106.136-.156.204zm1.275 1.353l-.131.056-.72-.399-.223-.3c.372-.273.385.042.736.213l.338.43zm.268.236l-.268-.096.162-.084.106.18zm-.326.434c.096.193.096.138.326.11l-.413.351-.392-.74c0-.016.003-.032.005-.047.29-.062.383.042.666.083l.11.173-.302.07zm.058.482l.537-.29c-.108.24-.248.363-.414.538-.04-.083-.082-.166-.123-.248zm1.074 1.026c-.146.124-.24.164-.516.186l.222.025a1.314 1.314 0 00-.005.038l-.756.317-.02-.959c.174-.203.349-.406.522-.61.033-.014.064-.029.095-.044l.458 1.047zm-.269-1.47c1.483-.41 1.196.368.535.961l-.535-.961zm1.343.154c-.546 2.536-.652 2.675-2.584 3.764l-.101-.151.068-.283c1.26-.355 1.976-1.006 1.902-2.483l.631-.8.084-.046zm.066 0a28.815 28.815 0 00-.066-.262l.2-.006-.134.268zm-3.288 2.466a43.857 43.857 0 01.035-.52l.186-.06.027-.004c.052.317 0 .553-.107.807-.09-.057-.108-.081-.141-.223zm-1.074 2.352l.004-.046.352-.833.074-.175.62.041c.01.046.016.09.02.134.027.317-.084.57-.199.9l-.871-.02zm.268 1.08l.008-.416.01-.105.453.033.066-.005-.31.51-.227-.017zm-.266-1.74l.027-.014.215-.109.024-.002-.032.111-.125.426c-.037-.126-.075-.253-.111-.38 0-.01 0-.021.002-.032zm-.419 1.338l-.12-.12c.118.082.04.003.12.12zm-.658-.32c.151-.094.314-.065.537-.061-.022.071-.043.143-.066.214-.183.073-.21.046-.418.025-.017-.059-.034-.118-.053-.177zm.33 1.007l.207.485-.482.322c-.144-.194.013-.74.274-.807zm-.53-1.687l-.068.005.088-.2-.02.195zm.772.074l-.035-.022.119-.245.038-.001.112.258-.234.01zm1.86-3.494l-.015-.091c.07-.085.116-.138.237-.178l.032.159-.157.103-.097.007zm-.015.656c-.048.063-.134.1-.196.15l-.072-1.344.268 1.194zm-.493 1.802c.178-.098.203-.008.225.23l-.537-.001.008-.083.304-.146zm-.263-.743l.121-.102.098.173-.046.095-.222-.025.049-.141zm-.05.713l-.28.26-.182-.03-.074.007.13-.246.407.009zm-1.013-.153c-.112-.077-.03-.067-.052-.125l.052.125zm.847-1.2l-.908-.465c.043-.614.119-1.32.057-1.954.7.25 1.327 1.374.85 2.419zm-.639 0c.223.116.21.223.52.316.054.2-.028.278-.157.49l-.329-.013c-.068-.354.006-.557-.034-.793zm.061 1.738c-.112-.077-.031-.067-.052-.125l.052.125zm1.819-2.588l.002-.049.242-.176c.043.275.027.733-.037 1.075-.143-.111-.169-.578-.207-.85zm0 .85l.162-.269a15.93 15.93 0 00-.095.264l-.067.005zm1.565-.804l.046-.002c.012 1.03-.631 1.217-1.477 1.604l-.134.008c.175-.359.35-.719.527-1.078l1.038-.532zM20.53 9.69l.026.08-.068.048-.2-.269.242.141zm-.243.447c.004-.015.005-.031.007-.046l.06-.004.202.268c-.156-.073-.181-.09-.269-.218zm.269.688l-.363.337c-.26-.371-.518-.743-.777-1.115l-1.009-.864.223-.172c.487.209 1.341.606 1.513 1.102.056.161-.137.294-.005.43.155.159.311.045.418.282zm-2.267 1.681l.082.032.036.774-.125-.028c-.118-.086-.2-.487-.093-.66l.1-.118zm-.595 1.348l.087-.004.09.21-.139.054-.13.005.093-.265zm-.245 4.297l-.116-.392.497-.143a.27.27 0 00.04-.003.583.583 0 00-.004.037l-.417.501zm-.384-1.075c.049-.157.085-.182.173-.269.025.01.05.02.075.028l.02.07-.165.16-.103.011zm.126.269a40.953 40.953 0 00-.126-.137l.268-.132-.07.264-.072.005zm-.283 1.22l-.112-.091.083-.005.414-.318.04.324-.317.214-.108-.124zm.02 3.078c-.646.027-1.032-.136-1.56-.182l-.604-1.18-.116-.118c1.015-.119 1.653-.602 2.404-.937.266.25.869 1.523.338 2.087-.126.193-.269.212-.461.33zm-2.775-1.326l.243-.015c.366.242.615.676.79 1.075l-1.075-.307c.08-.268.113-.541.042-.753zm-.772-1.015l1.21-.344 1.902.183.035.095c-.567.252-1.211.464-1.861.79-.704.055-.874-.205-1.361-.376l.075-.348zm-.075 1.267l.024-.233.463-.034c.038.203.078.316.021.537l-.508-.27zm-.537.421l.18-.098c.22-.145.386.048.625.124l-.095.092-.71-.118zm.52-.42a12.955 12.955 0 01-.174-.078l-.078-.19.269.016-.016.252zm-.789 0l.268.228c0 .14-.012.125-.044.31l-.224-.538zm-.696-1.007c.252-.076.588-.06.964-.068l-.35.27-.723-.071.109-.131zM11.157 6.09c.499-.47 1.75-.33 2.064-.031l.085-.007c-.418.384-1.064.428-1.46.808-.311-.205-.568-.336-.689-.77zm2.743.77l.211.237c-.188.01-.386.022-.583.038-.444.037-.883.103-1.19.26l-.04.003a54.575 54.575 0 01-.066-.103 3.88 3.88 0 011.629-.432l.04-.003zm1.046-1.344c.347.344.866.548 1.045 1.075-.73-.334-1.849-.33-2.417-.862.501.106.927.067 1.372-.213zm.24 1.882l.995.134c.027-.001.053-.004.078-.006l-.798.678c-.126-.25-.156-.587-.276-.806zm1.279 1.15l-.206-.032.269-.043-.063.074zm-.206-.643l.246-.239.023.27-.178-.04-.09.009zm.488 8.896l-.118.005c-.035-.031-.068-.063-.101-.094.026-.034.051-.068.078-.101l.19-.074-.05.264zm-.215.49l.1-.112.008-.104.156.246-.268.023.005-.052zm-.106.86a10.29 10.29 0 00-.167-.198l.537-.072-.255.261-.115.008zm.102.806l-.537-.064.378-.205.159.269zm-.377-.759l.108.102-.389.099-.416.02.58-.269.117.048zM14.648 6.592c.314.008.645.087.806.269-.217-.021-.606.013-.704-.151-.033-.04-.068-.079-.102-.118zm.273 1.075c.153.133.207.289.179.538-.236-.08-.175-.336-.18-.538zm.264 1.695l.009-.046c.534-.115.65.069.406.233-.21-.028-.306-.107-.415-.187zm.688 6.908l.118.028a1.176 1.176 0 00-.005.038l-.264.202.11-.266.041-.002zm-.148-6.557l.2-.164.066.269-.269-.058.003-.047zm.803 7.188l-.649.167-.157.008.005-.027c.243-.047.399-.127.542-.242l.228.042.03.052zm-.463-.631l-.074-.15.185-.12.083.045-.106.217-.088.008zm-1.685 1.858l.32-.246.989.084.033.073-.668.381c-.248-.04-.462-.149-.59-.298l-.084.006zm-.498.023l.498.269-.806-.14.308-.129zm-.04.549c0 .022-.002.043-.003.065l-.153.084-.112.014.004-.064c.117-.154.097-.103.265-.099zM12.577 7.76a6 6 0 00-.076-.08c.266-.145.687-.212 1.101-.246.341-.027.677-.031.917-.035l.13.806c-.35-.038-.686-.083-1.047-.1a5.544 5.544 0 00-.936.034 40.504 40.504 0 00-.088-.38zm.395 10.787l.066.113-.063.242-.742.056c.08-.24.198-.356.325-.538l.414.127zm-.915-.934c-.337-.018-.8-.262-.899-.537l1.075.27-.176.267zm.377-.014l-.201.014.007-.063.223-.205-.029.254zm-.739-9.83l.327-.102.21.26-.22.01c-.105-.057-.211-.112-.316-.168zm-.004 11.542l-.05.176a2.01 2.01 0 00-.079.008c-.044-.09-.09-.18-.135-.269l.268.028c0 .019-.003.038-.004.057zm.15-1.16l.626.125.034.084-.486.598-.588-.086.414-.72zm4.688-8.424l.121-.176.044-.002.337.084.035.047-.378.138-.16-.091zm.726-.87l-.19-.114c.194.07.083-.009.19.115zm-.06 1.23l-.13-.108.27-.161-.14.269zm-.13 1.881l.418.103c.113.043.11.055.12.166-.18-.068-.48-.114-.537-.269zm.042-.732l.057-.074.17.269-.268-.052.04-.143zm-5.44 8.845c.01.023.02.047.028.07l-.361.137-.176.014.004-.037.124-.19c.17-.08.175-.028.382.006zM10.89 6.592c.235.171.295.384.259 1.075-.155-.195-.248-.608-.26-1.075zm.155-.538l-.02.195-.135.01c.05-.068.103-.136.155-.205zm-.155.27l-.02.194-.249-.046.205-.144.064-.005zm0 15.59l.133-1.368.941-.244-.99 1.563a4.603 4.603 0 01-.084.05zm.066-3.678l.145-.085c.131.155.013.377-.11.538-.104-.096-.116-.156-.088-.374l.053-.079zm-.872-.131l.31-.492.496.288c-.17.263-.341.525-.513.788-.154-.135-.248-.335-.293-.584zm0 2.105l.495-.446.234.02c.026.043.05.085.077.126l-.06.392-.746-.092zm-.805-.365l.59-.35.45.07.034.061-.473.407c-.237-.024-.394-.086-.517-.193l-.084.005zm-.079-.52l.216-.099.093.02.038.044-.625.205-.18-.062.458-.107zm-.727-.252l.158-.378c.294-.038.363.106.584.196.02.032.042.064.064.096l-.329.222-.267.017-.21-.153zm-.537 1.103l.39-.68c.26-.001.292.02.399.156.047.078.006.036-.098.054l-.024.234c.136.021.272.041.407.063-.08.196-.092.17-.213.295-.4.021-.581-.054-.86-.122zm-.452-.95l.683.203.038.08-.439.524-.635-.206.353-.6zm-2.63-.726l.008-.08.381.29.033.076c-.793.604.42 2.574 1.799 1.298l.593.235c-.229.402-.62.56-1.033.786-.986.081-2.366-1.508-1.781-2.605zm.92.275l.014.183a86.777 86.777 0 01-.219-.164l-.05-.105.254.086zm1.357 1.142l-.492.375c-.965.1-1.356-.56-1.388-1.372l.188-.225.083-.006c.486.378.916.955 1.576 1.146.01.028.022.055.033.082zM6.194 16c-.088-.064-.094-.094-.138-.2l.184-.69.214-.186.139.2-.4.876zm-.138.232c.14-.33.282-.66.424-.989l.086-.05c.195.34.478.494.564.955l-.638.658a1.275 1.275 0 01-.436-.574zm.805.822l.539-.517.267.538-.806-.02zm1.343-5.432c-.255.537-.593.902-.796 1.42-.088-.471.445-1.15.617-1.566l.082-.046.097.192zm0-1.478c.399-.122.667-.346.953-.596l.12.36-.338.446-.735-.21zm1.342.027l-.145.183-.123-.02.003-.03.244-.218.021.085zm-.211-1.158l.042-.003.17.352-.065.186c-.245-.127-.235-.277-.147-.535zm-.05 7.793l.248.175-.255-.11.007-.065zm-.004.269l.265.114-.004.032-.57.391c-.163-.071-.183-.216-.231-.375l.004-.033.536-.129zm-.795-.538l.255.102-.137.078-.132.015.014-.195zm-.014-5.376c.323.09.22.03.235.269-.149-.085-.159-.126-.235-.269zm0 4.802l.023-.232A.687.687 0 018.74 16l-.269-.037zm.537-3.357c-.1.128-.096.093-.268.168l.118-.269.15.1zm0-1.081l-.168.174c-.17-.095-.09-.057-.013-.231l.1-.038.081.095zm-.021-.458l-.247-.175c.19.072.146.028.247.175zM8.472 16l.269.21c-.138-.003-.21-.032-.269-.21zm.806-.01l-.11.01c-.03-.058-.062-.114-.093-.172a8.947 8.947 0 01-.066-.084l.146-.013.123.259zm-.148-4.978l-.12-.12c.117.082.039.002.12.12zm.016 4.427l-.137-.281c.02-.078.04-.154.058-.231l.034-.003.177.538-.132-.023zm-.703 3.128l.03.036-.097.354a.728.728 0 01-.44-.538l.507.148zm-.776.39l.268.235c-.172-.075-.182-.071-.268-.235zm.463-2.383l.033.232-.228-.269.195.037zm-.265 1.257l-.198-.487c.234.089.418.355.537.537l-.34-.05zm.21-4.786l.068-.002c-.066.09-.13.179-.197.268-.032-.066.007-.13.116-.207l.014-.06zm-.14 2.31l-.054.107-.154-.118-.06-.128.21-.023.058.162zm-1.88 2.257c.539.346 1.453.667 1.612 1.345a4.453 4.453 0 01-1.611-1.345zm1.396-.26l.216.26-.537-.268.321.009zm1.966.798l-.408-.405.714-.67.092.737-.398.338zm.398.45l.071-.176.095-.005.102.269-.268-.088zm.362-.988l-.094-.268.195.035-.101.233zm-.362-9.051l.003-.024.265-.064-.185.269-.083-.181zm-2.707 5.557l-.247-.538c.316.069.265.29.247.538zm-.658.269c-.23-.158-.376-.47-.394-.807.47.11.445.294.537.718l-.143.089zm-.278-1.403c-.342-.32.157-1.6.376-1.894.116-.144.262-.142.455-.198l.127.033c-.323.564-.541 1.332-.618 2.118l-.34-.059zm-.5 4.36l.163.272c-.048.113-.097.226-.147.338l-.084.089c.12.017.147-.086.327-.23.348.558.88 1.09 1.467 1.394l-.32.556-.97-.617c-.111-.203.042-.436-.137-.56-.16-.113-.37.05-.534.001l-.455-.413c.133-.295.262-.585.527-.736l.162-.094zm-.93-2.964c.035-.265.093-.538.158-.796l.037-.004.14.8.073.417.637 1.74c-.51-.275-.826-.912-.78-1.768-.123.277-.02.711.02.954-.314-.262-.355-.783-.284-1.343zm-.465.276a.97.97 0 01-.091-.324 2.087 2.087 0 01.005-.452l.046-.097c.07-.067.138-.135.207-.203l-.117.752-.05.324zm18.695 2.688l-.537-.205.521-.064.016.269zM8.762 21.72l.141-.074-.162.268.021-.194zm-4.049-9.214l-.229-.022c-.284-.092-.552-.42-.577-.784.437.038.584.242.8.491l.006.315zm-.032-.022c.032-.58-.417-.943-1-.927.1-.815.818-1.232 1.458-1.506l.122-.009c-.107 1.023-.025 1.904-.413 2.79-.286.652-1.3.64-1.244 1.644l.007.085c.145 1.338 1.618 1.61 1.821 2.786-2.183 1.096.479 5.705 2.206 2.998.309.044.585.182.97.049.178-.098.213-.177.283-.38l.617.314.033.078c-.566.433-.965 1.027-1.572 1.434l.058-.165-.16-.028-.086.047c-.027.121-.052.244-.08.365.347.35 1.399-.916 1.707-1.164-.175.602-.604.91-.843 1.46l.073.076c.454-.321 1.01-1.229 1.094-1.92l.68.111c-.852 1.137-3.039 3.637-4.188 4.304.174-.543.454-.957.594-1.402l-.082.005a8.03 8.03 0 00-.074-.075c-.28.545-.74.926-.823 1.66a.69.69 0 00.183.186c1.368-.225 3.65-3.618 4.741-4.544-.295 2.926-1.883 3.383-3.26 5.156 1.25-.616 2.01-2.19 3.082-3.064-.119 1.224-.413 3.958-1.155 4.443l.123-.009c.83-.51.88-2.61 1.156-3.683l.119-1.128 1.187-1.646.086-.046c.133.411.734.858 1.386.738l.466-.194 1.174.434c.154 1.666.095 2.6-.974 3.87 1.092-.551 1.493-2.675 1.13-3.801 2.537.29 2.436-.556 1.954-2.382l.447.008c-.082-.123-.305-.032-.475-.126-.077-.049-.062-.04-.11-.112.604-.672 2.056-.004 1.752 1.112.417-.926-.505-1.748-1.395-1.418.38-.444.84-.81 1.08-1.398l.087-.046 2.089 2.166.123-.009.094-.127-1.99-2.333.213-.096a.436.436 0 01.368-.127 22.49 22.49 0 01-.106-.052c1.068.106 2.43.984 3.543.701.103-.176.107-.272.046-.443 1.185.03 3.318-.362 3.997-.931-1.824.378-3.88.506-5.555.285l-1.484-.172-.083.006.4-.708c1.224-.023 4.432-.053 5.08-.811l-.142-.19-.56-.079c-.048.07-.055.138-.063.205l.443.047c-.962.24-3.641.745-4.516.45-.092-.11-.024-.493-.02-.77a.988.988 0 00-.006-.148c1.257-.37 2.19-1.205 2.573-2.467.22-.72.074-1.669.547-2.119.302.026.363.152.585.238-.118-.161-.285-.25-.495-.324l-.393.268c-.36.138-.737-.222-1.347.059-.496-.419-.776-1.081-1.445-1.334l-.07-.115.814-.78c-.267.22-.538.48-.809.74l-.544-.24-.032-.078c.62-.434 1.17-.595 1.876-.457l.102.192c-.033.056-.062.071-.09.087-.08-.02-.16-.042-.238-.063.102.06.209.079.315.097l.09-.086.013-.121c-.154-.136-.2-.233-.503-.243l.144-.21c-.346.234-1.048.297-1.393.5l.796-.617.095-.127-1.472.867c-.314-.021-.649-.166-.818-.34l-.082.006 1.747-1.167-.028-.118-1.988 1.145-.634-.154.058-.564 4.554-3.53.082-.007a12.892 12.892 0 01-.065-.155c-.17-.08-.862.475-1.124.642-1.008.638-1.9 1.433-2.891 2.01.41-.513 1.16-1.025 1.282-1.773l-.2-.025a95.68 95.68 0 01-.312.262l.34-.145c-.22.659-1.214 1.836-1.774 2.21a51.219 51.219 0 01-.065-.156c.364-.607.724-1.422.555-2.2l-.307-.177-.327.024c.21.082.352.102.506.203.1.754-.277 1.264-.48 1.874l-.086.046c-.135-.246-.127-.365-.404-.41l-.024-.158.19-.254.13-.09c.045.082.047.054.061.196a.4.4 0 00.061-.205l-.154-.068-.41.43c-.344-.227-.72-.465-1.202-.552.272-.56 1.103-1.46.673-2.169-.522-.862-2.308.132-2.962.816a1.282 1.282 0 00-.196.254 7.75 7.75 0 01.196-.15c.645-.475 2.364-1.612 2.736-.703.391.507-.357 1.483-.562 1.88-.696-.07-1.424-.136-2.173-.12a7.92 7.92 0 00-2.321.368c-.38.124-2 1.082-2.062 1.07l-.739-.706L6.85 4.57c-.004.026-.006.053-.009.08l-.09.087L8.73 6.39c-.101.06-.202.12-.303.182-.814-.61-1.376-.98-2.588-1.291l-.204.015c.708.481 1.42.922 2.132 1.364l.143.19c-.508.211-.723.65-1.153.923-.671-.317-1.292-.603-2.105-.846l-.058.164 1.524.969a1.13 1.13 0 01.082-.006l-.262.179c-.122.403-.36.87-.558 1.44-.759.61-1.743.574-1.896 1.817-.242.066-.414.087-.635.247-.006.053-.01.107-.017.16.139.193 1.372.708 1.668.759l.18-.173zm9.01-8.6l.111.02-.15-.018-.078.003c.119-.219.469-.273.806-.248l-.024.157-.658.033-.008.053zm.47.289l.316-.103c.137-.225.215-.463.145-.681-.325-.064-.513.015-.819.141l-.165.269-.064.103a.591.591 0 00.064.062c.103.085.228.114.457.095.062.106-.01.06-.123.089l.189.025zm7.809 2.42l-.34.062.21-.014.238.101c-.12.22-.242.438-.363.657.187-.218.373-.372.452-.703l-.197-.104zm-1.951 10.483c-.085-.148-.178-.246-.269-.269.082.076.176.165.269.269zm-1.074 3.226l-.269.153.206-.019.063-.134zm1.074-3.226c.272.305.478.888.418 1.344.31-.662-.044-1.074-.418-1.344z" fill="#E8F1FB"/></g></symbol><symbol id="socials-rutube" viewBox="0 0 28 28"><path d="M15.708 13.83H7.487v-3.39h8.22c.481 0 .815.088.983.24.167.152.271.434.271.847v1.216c0 .435-.104.717-.271.87-.168.152-.502.217-.982.217v-.002zm.564-6.583H4v14.489h3.487v-4.714h6.425l3.049 4.714h3.904L17.504 17c1.239-.191 1.795-.587 2.255-1.239.458-.651.689-1.693.689-3.084V11.59c0-.825-.084-1.476-.23-1.976a3.325 3.325 0 00-.752-1.325 3.373 3.373 0 00-1.294-.804c-.502-.152-1.128-.239-1.9-.239v.001zm7.272-.001c1.48 0 2.678-1.233 2.678-2.755 0-1.522-1.199-2.755-2.678-2.755-1.48 0-2.679 1.233-2.679 2.755 0 1.522 1.2 2.755 2.679 2.755z" fill="#E8F1FB"/></symbol><symbol id="socials-telegram" viewBox="0 0 27 28"><path d="M18.238 10.948c.613-.613 1.222-2.044-1.334-.307-3.63 2.506-7.21 4.858-7.21 4.858a3 3 0 01-2.352.051c-1.533-.46-3.323-1.073-3.323-1.073s-1.223-.768.87-1.586c0 0 8.845-3.63 11.913-4.909 1.175-.51 5.163-2.146 5.163-2.146s1.841-.717 1.688 1.022c-.051.716-.46 3.222-.869 5.931-.614 3.835-1.279 8.028-1.279 8.028s-.102 1.175-.97 1.38a4.208 4.208 0 01-2.556-.92c-.205-.154-3.835-2.455-5.165-3.579a.969.969 0 01.051-1.637 187.983 187.983 0 005.373-5.113z" fill="#E8F1FB"/></symbol><symbol id="socials-youtube" viewBox="0 0 27 28"><path d="M24.44 11.662a8.521 8.521 0 00-.92-4.153 2.95 2.95 0 00-1.736-1.006 79.4 79.4 0 00-8.449-.312c-2.81-.048-5.62.053-8.419.302-.553.1-1.065.359-1.474.744-.908.835-1.009 2.263-1.11 3.47a48.377 48.377 0 000 6.516c.03.68.13 1.353.303 2.011.122.508.368.978.717 1.368.41.405.935.679 1.504.784a45.67 45.67 0 006.561.332c3.533.05 6.632 0 10.297-.282a2.912 2.912 0 001.544-.784c.283-.282.494-.626.616-1.006a10.61 10.61 0 00.525-3.419c.04-.563.04-3.962.04-4.565zm-13.386 5.169v-6.225l5.976 3.127c-1.676.926-3.887 1.971-5.976 3.098z" fill="#E8F1FB"/></symbol></svg>