<svg xmlns="http://www.w3.org/2000/svg" xmlns:xlink="http://www.w3.org/1999/xlink"><defs><clipPath id="clip0_10_387"><path fill="#fff" transform="translate(.333 .625)" d="M0 0h26.667v26.667H0z"/></clipPath></defs><symbol id="angle" viewBox="0 0 38 37"><path d="M37.5 2H2v34.5" fill="transparent" stroke="#55DD81" stroke-width="3"/></symbol><symbol id="arrow-link" viewBox="0 0 16 12"><path d="M9.335 10.475l.702.707 5.298-5.333L10.037.515l-.702.707 2.333 2.348v4.557l-2.333 2.348z" fill="#E8F1FB"/><path d="M9.668 5.349h-9v1h9v-1z" fill="#E8F1FB"/></symbol><symbol id="arrows" viewBox="0 0 71 28"><path fill-rule="evenodd" clip-rule="evenodd" d="M9.82 24.108L8.61 22.89l4.018-4.042V8.704L8.611 4.662l1.21-1.218 10.27 10.332L9.82 24.108zm21.396 0l-1.21-1.218 4.018-4.042V8.704l-4.018-4.042 1.21-1.218 10.27 10.332-10.27 10.332zm21.394 0L51.4 22.89l4.018-4.042V8.704l-4.017-4.042 1.21-1.218 10.27 10.332-10.27 10.332z" fill="#55DD81"/></symbol><symbol id="logo-cnews" viewBox="0 0 133 26"><radialGradient id="paint0_radial_1_716" cx="0" cy="0" r="1" gradientUnits="userSpaceOnUse" gradientTransform="rotate(45.072 -.592 31.477) scale(13.1828)"><stop stop-color="#0AF"/><stop offset="1" stop-color="#00406C"/></radialGradient><radialGradient id="paint1_radial_1_716" cx="0" cy="0" r="1" gradientUnits="userSpaceOnUse" gradientTransform="matrix(6.31748 6.33337 -6.33097 6.31508 21.779 9.667)"><stop stop-color="#fff" stop-opacity=".7"/><stop offset="1" stop-color="#fff" stop-opacity="0"/></radialGradient><clipPath id="clip0_1_716"><path fill="#fff" d="M0 0h133v26H0z"/></clipPath><path d="M13.755 0h1.265c1.523.124 3.156.215 4.46 1.1.742.485 1.12 1.477.804 2.318-.417 1.161-1.638 2.135-2.913 1.902-.72-.202-1.32-.671-1.89-1.135-.927-.76-1.822-1.592-2.923-2.1-.864-.43-1.879-.405-2.8-.205-1.646.394-2.945 1.646-3.778 3.075a11.651 11.651 0 00-1.513 5.986c-.003 2.515.701 5.056 2.129 7.136 1.442 2.103 3.671 3.687 6.177 4.206 1.774.406 3.695.31 5.363-.45.739-.326 1.429-.754 2.085-1.223.349.205.704.397 1.076.557-1.667 1.894-3.829 3.38-6.253 4.113-2.544.764-5.36.72-7.831-.293-2.697-1.087-4.87-3.31-6.049-5.954C.447 17.492.107 15.802 0 14.111v-1.137C.11 11.4.432 9.831 1.077 8.386c1.126-2.598 3.12-4.781 5.538-6.235C8.762.835 11.248.13 13.755 0zm26.402 0h.015c.206.072.407.148.612.221-.156 1.358-.281 2.72-.444 4.078C42.672 2.6 45.122.873 47.988.246 48.535.117 49.094.062 49.651 0h1.015c1.067.091 2.158.25 3.114.762 1.132.553 2.017 1.543 2.519 2.69.732 1.624.855 3.437.868 5.193 0 3.51.002 7.018 0 10.527-.006.733.01 1.469.08 2.198.096.596.17 1.237.562 1.722.362.472.925.733 1.484.886a13.9 13.9 0 002.216.425c.015.281.018.563.018.845H48.521c.008-.277-.038-.565.035-.837 1.116-.194 2.327-.313 3.272-.996.895-.707.94-1.94 1.023-2.986.054-2.468.02-4.939.03-7.408-.015-1.67.066-3.353-.231-5.006-.227-1.256-.67-2.539-1.596-3.455-1.224-1.285-3.093-1.684-4.806-1.636a7.139 7.139 0 00-2.614.395c-1.124.41-2.117 1.115-2.988 1.924-.124.09-.07.254-.085.381.01 4.897-.005 9.793.007 14.691.053.825.071 1.685.427 2.447.303.631.956 1 1.602 1.19.757.213 1.532.37 2.314.454.004.28.004.562.004.841-4.333 0-8.668 0-13.002.002.01-.281.011-.563.018-.845.78-.084 1.552-.247 2.304-.478.706-.225 1.382-.682 1.655-1.4.43-1.211.339-2.517.39-3.78V7.604c-.014-.738-.005-1.505-.334-2.183-.518-1.032-1.492-1.724-2.393-2.398-.002-.187-.003-.373-.007-.558 2.2-.83 4.412-1.63 6.61-2.465zm31.598 0h1.139c.7.075 1.406.147 2.086.337 1.833.46 3.498 1.603 4.524 3.2.902 1.377 1.321 3.023 1.4 4.657-5.38-.008-10.76.005-16.137-.006-.119.91-.168 1.83-.228 2.746-.245 2.618.468 5.333 2.038 7.449a9.412 9.412 0 005.852 3.684c1.528.268 3.142.259 4.613-.28 1.585-.56 2.874-1.737 3.862-3.073.282.205.565.411.844.625-1.478 2.497-3.688 4.61-6.395 5.703-3.62 1.482-7.995.75-11.02-1.709-1.637-1.3-2.874-3.073-3.63-5.018-.847-2.128-1.074-4.475-.798-6.74.414-3.755 2.395-7.388 5.549-9.516C67.3.78 69.524.125 71.755 0zm-2.073 1.322c-1.567.303-2.81 1.49-3.599 2.83-.53.937-.987 1.947-1.141 3.019 1.228-.132 2.463-.077 3.692-.178a527.75 527.75 0 006.997-.298c-.377-1.64-1.026-3.317-2.323-4.449a4.147 4.147 0 00-3.626-.924zM124.75 0h.948c2.001.13 4.035.676 5.678 1.854.064 1.647.099 3.3.187 4.947-.411.086-.826.153-1.237.24-.507-1.666-1.122-3.401-2.408-4.632-1.366-1.305-3.732-1.47-5.186-.228-.916.793-1.324 2.051-1.251 3.241-.01 1.272.778 2.387 1.712 3.18 1.554 1.298 3.431 2.107 5.163 3.131 1.405.83 2.819 1.775 3.732 3.165.784 1.182 1.045 2.661.85 4.058-.177 1.636-1 3.171-2.206 4.278-1.788 1.667-4.241 2.486-6.654 2.569-2.501.06-5.058-.582-7.112-2.047-.132-1.474-.195-2.954-.335-4.429-.071-.588-.026-1.187-.143-1.77.44-.092.882-.195 1.333-.216.388 1.942 1.199 3.857 2.566 5.313 1.036 1.076 2.51 1.734 4.01 1.703 1.119.03 2.254-.394 3.051-1.187 1.555-1.548 1.715-4.31.293-5.995-.809-.991-1.931-1.659-3.043-2.256-1.76-.954-3.65-1.729-5.19-3.04-1.026-.849-1.823-2.003-2.133-3.31-.338-1.472-.254-3.078.417-4.447.628-1.31 1.729-2.348 2.999-3.028C122.006.43 123.375.103 124.75 0z" fill="#E8F1FB"/><path d="M78.277.547c3.922.006 7.845.006 11.768 0-.005.278-.005.557-.002.835-.73.047-1.487.077-2.173.368-.443.158-.833.505-.954.972-.093.532-.018 1.082.152 1.592.376 1.169.858 2.298 1.296 3.443 1.536 3.952 3.1 7.891 4.621 11.849 1.748-4.062 3.444-8.15 5.174-12.219.116-.254-.057-.506-.135-.742-.547-1.3-.921-2.707-1.765-3.858-.715-.974-1.981-1.208-3.095-1.405.003-.278.003-.555.005-.833 3.968 0 7.94.013 11.91-.007 0 .278 0 .558.002.838-.858.066-1.741.124-2.532.497-.508.244-.911.763-.883 1.348.022.771.338 1.496.601 2.209 1.76 4.725 3.565 9.433 5.306 14.163.724-1.486 1.362-3.013 2.04-4.522 1.123-2.583 2.231-5.178 3.172-7.834.377-1.146.77-2.299.927-3.499.103-.644-.085-1.387-.647-1.767-.728-.466-1.616-.466-2.439-.59.003-.28.001-.558 0-.838 3.137.011 6.274-.003 9.411.006-.003.274-.003.547-.002.82-.945.099-1.909.35-2.658.966-1.162.926-1.75 2.336-2.366 3.647-2.97 6.609-5.905 13.234-8.881 19.838a7.384 7.384 0 00-.709.013h-.045c-2.208-5.668-4.431-11.331-6.631-17.003-2.353 5.657-4.653 11.338-6.987 17.003h-.043c-.26-.02-.52-.023-.779-.02-2.783-6.921-5.56-13.844-8.357-20.76-.411-.958-.834-1.96-1.62-2.677-.727-.672-1.724-.93-2.687-1.004.005-.277.005-.552.005-.829z" fill="#E8F1FB"/><path d="M24.912 19.884c3.847 0 6.966-3.127 6.966-6.985 0-3.857-3.119-6.985-6.966-6.985s-6.966 3.128-6.966 6.985c0 3.858 3.119 6.985 6.966 6.985z" fill="#fff"/><path d="M20.352 7.6c1.096-.901 2.44-1.518 3.86-1.645 2.06-.228 4.202.547 5.655 2.026 1.285 1.294 2.037 3.108 2.01 4.937a6.906 6.906 0 01-1.53 4.37c-1.051 1.315-2.594 2.233-4.253 2.502-1.645.273-3.392-.031-4.811-.92-1.795-1.086-3.05-3.025-3.277-5.113-.263-1.942.372-3.957 1.64-5.439-.382.61-.596 1.325-.499 2.05.135 1.261 1.2 2.354 2.454 2.52 1.482.258 3.007-.832 3.275-2.307.118-.664.036-1.379-.304-1.97-.51-.946-1.573-1.572-2.651-1.506-.565-.008-1.083.235-1.569.495z" fill="url(#paint0_radial_1_716)"/><path d="M20.352 7.6c1.096-.901 2.44-1.518 3.86-1.645 2.06-.228 4.202.547 5.655 2.026 1.285 1.294 2.037 3.108 2.01 4.937a6.906 6.906 0 01-1.53 4.37c-1.051 1.315-2.594 2.233-4.253 2.502-1.645.273-3.392-.031-4.811-.92-1.795-1.086-3.05-3.025-3.277-5.113-.263-1.942.372-3.957 1.64-5.439-.382.61-.596 1.325-.499 2.05.135 1.261 1.2 2.354 2.454 2.52 1.482.258 3.007-.832 3.275-2.307.118-.664.036-1.379-.304-1.97-.51-.946-1.573-1.572-2.651-1.506-.565-.008-1.083.235-1.569.495z" fill="url(#paint1_radial_1_716)"/></symbol><symbol id="logo-orion-2" viewBox="0 0 87 54"><path fill-rule="evenodd" clip-rule="evenodd" d="M20.622 3.851L23.844 0h5.8L34.8 4.814v4.172l-2.95 3.427 2.95 2.35v4.493h-3.867V14.12H23.2v5.135h-3.867V5.135l1.29-1.284zM23.2 10.27h7.733V3.85H23.2v6.419zM5.156 0h5.8l5.155 5.135v8.344l-5.155 5.135h-5.8L0 13.479V5.135L5.156 0zm-1.29 14.763h8.378V3.85H3.867v10.912zm31.578 8.344h5.8L46.4 28.24v8.345l-5.156 5.134h-5.8l-5.155-5.134V28.24l5.155-5.134zm-1.288 14.762h8.377V26.958h-8.377v10.911zM57.356 0h5.8l5.155 5.135v8.344l-5.155 5.135h-5.8L52.2 13.479V5.135L57.356 0zm-1.29 14.763h8.378V3.85h-8.377v10.912z" fill="#E8F1FB"/><path d="M75.4 3.851h-3.867v15.405H75.4V3.85zM81.844 0H75.4v3.851h7.733v15.405H87V5.135L81.844 0zM61.867 23.107h-6.445l-5.155 5.134v12.837h3.866v-7.06h6.445v-3.851h-6.445v-3.21h7.734v-3.85zm-49.623 6.418v-2.567l4.512-3.851h9.666v3.85h-10.31v3.21H23.2l4.511 4.493v2.567L23.2 41.72h-9.667v-3.85h10.311v-3.852h-7.088l-4.512-4.493zM87 51.348H0v2.568h87v-2.568zM42.533 0h-3.222v3.851h3.222v11.553h-3.222v3.852h10.311v-3.852H46.4V5.134L42.533 0zm21.911 23.107v3.85H69.6V41.72h3.867V30.04l-2.578-3.081h7.089v-3.851H64.444z" fill="#E8F1FB"/></symbol><symbol id="logo-orion" viewBox="0 0 60 40"><path d="M11.85 4L8.434.337H4.16L1.8 2.905.742 3.958v6.105L4.12 13.98h4.354l3.337-3.831V4h.04zm-8.585 7.453V2.82h6.144v8.632H3.265zm21.077-7.369L21.21.337h-4.028l-2.197 2.61L14.088 4v9.895h2.401V9.937h5.412v3.958h2.4v-2.61l-1.83-1.853 1.871-1.684V4.084zM16.49 3.032h5.412v4.673H16.49V3.032zM55.836.38h-4.598v2.525h-2.441v11.032h2.441V2.905h5.656v11.032h2.441V4.169L55.836.379zm-8.952 3.578L43.466.295h-4.231l-2.36 2.568-1.058 1.053v6.105l3.377 3.916h4.354l3.336-3.832V3.958zM38.3 11.453V2.82h6.144v8.632H38.3zm-6.145-.084V2.905L29.754.38h-2.36v2.442h2.36v8.548h-2.36v2.526h7.12V11.37h-2.36zM.824 37.769v1.894h58.552V37.77H.824zM31.219 21.39l-3.459-3.621h-4.232l-2.36 2.568-1.058 1.053v6.105l3.378 3.916h4.354l3.336-3.832v-6.19h.04zm-8.627 7.494v-8.631h6.145v8.631h-6.144zm20.752-11.157v2.526h3.5v11.073h2.482v-9.01l-1.75-2.021h5.208v-2.569h-9.44zm-2.36 2.442v-2.442h-4.598l-3.051 3.536v10.021h2.36V25.39h5.29v-2.485h-5.29V20.17h5.29zM14.658 23.2H9.775v-2.99h7.487v-2.483h-6.51L7.375 20.8v1.81l2.36 2.148.936.926h4.964v3.158H8.148v2.485h6.51l3.337-3.116V26.4" fill="#E8F1FB"/><path d="M43.344 17.769v2.526h3.5v11.074h2.482v-9.01l-1.75-2.022h5.208v-2.568h-9.44z" fill="#E8F1FB"/></symbol><symbol id="logo-zvirt" viewBox="0 0 301 67"><path fill-rule="evenodd" clip-rule="evenodd" d="M243.269 18.363L227.656 0h-20.285l-10.924 12.934-4.456 5.209v48.78h12.038V47.425h27.201v19.496h12.039V54.003l-9.284-9.3 9.284-8.386V18.363zm-39.24-5.208h27.201v23.13h-27.201v-23.13z" fill="#E8F1FB"/><path d="M300.954.03h-47.07v12.59h17.485v54.365h12.378V22.58l-8.742-10.023H301L300.954.031zM165.655 12.493V54.38l11.868.032V67h-35.666V54.412h11.822V12.068h-11.822V.031h11.822l11.976 12.462zM88.49 66.921L74.131 47.457V.03H86.51v54.727h25.561V.031h12.379v47.426L110.106 66.92H88.49zM56.198 54.333v12.588L0 66.968V46.293l17.933-18.237H49.02V12.62H3.589V.03h57.39v20.676L41.856 40.17h-29.91v14.162h44.253z" fill="#E8F1FB"/></symbol><symbol id="socials-habr" viewBox="0 0 27 28"><g clip-path="url(#clip0_10_387)"><path d="M3.46 11.973l.179.264c-.357-.01-.733-.045-.806-.196l.005-.023c.2-.052.373-.055.622-.045zm1.906.802l.086.26-.202.009.048-.266.068-.003zm.69 1.9c-.18.164-.318.273-.425.52-.148-.12-.224-.358-.272-.624-.052-.289-.07-.611-.109-.852l.013-.123.207-.015.53.99.056.105zm-.269-2.438a59.844 59.844 0 01.082-.534c.023 0 .046-.002.068-.003l-.15.537zm-.144-2.42l.95.256-.004.042c-.443.321-.851.464-1.07 1.047l.083-1.3.041-.044zm.887-1.343c-.062.604.025.871.131 1.246.17.12.236.19.181.367-.285-.14-.586-.286-1.022-.263a3.596 3.596 0 01-.033-.036c.123-.476.361-.769.546-1.147l.197-.167zm1.364-.804c.014 0 .028-.002.041-.003-.13.446-.183 1.474-.413 1.882-.54-.253-.53-1.35.076-1.783l.296-.096zm-.504 3.302l.455.489c-.178.544-.518.954-.66 1.583l-.27-.02c-.23-.635.346-1.668.443-2.13l.422.047.155.391-.545-.36zm1.247-3.305c-.046.528.071.801.104 1.211l-.806.402a5.426 5.426 0 01.393-1.59l.309-.023zm.313-.802l.06-.004-.091.257-.178.012.137-.16.072-.105zm.06 2.463l-.806.49c.016-.297.398-.696.718-.807l.073.04.014.277zm.536-1.853l-.145.818-.15.094-.08.087c-.146-.203-.182-.7-.151-1.075l.526.076zm.537-.613c0 .009-.002.017-.003.026l-.206.195c-.136.052-.154.05-.328.044l.073-.266h.464zm.537-1.076l-.24.537-.834-.06.004-.043c.344-.157.644-.342 1.07-.434zm-.433 1.395l.088-.051.077.269-.269-.052.104-.166zm.702.795c-.32.123-.762.09-1.018.229a64.04 64.04 0 00-.056-.323l.167-.215.812.315c.032-.001.063-.004.095-.006zm-.687.484l-.365.014-.022-.114c.256-.103.687-.113 1.074-.155l-.408.222-.279.033zm.955 0c-.307.075-.602.343-.803.551-.04-.242.435-.672.662-.806.1.088.11.08.141.255zm.537-3.212c0 .014-.002.028-.004.043l-.322.191-.48.035.006-.042.8-.227zm-.434.806l-.103-.15c.242-.202.778-.09 1.075-.061l-.972.211zm2.403-.791c.45.036.86.141 1.17.333l.084-.005-.05.07-.43.125-.774-.11-1.7-.24.004-.034a5.742 5.742 0 011.696-.14zm1.787-.142l-.096.127a1.307 1.307 0 01-.706-.269l.806.102-.005.04zm1.43.994l.222-.084c.078.065.154.131.231.197-.03.223-.25.407-.417.625l-.13.008c-.35-.572-.792-1.2-1.567-1.42l-.034-.068.313-.125c.527.181.966.457 1.455.616.063.15.043.1-.073.25zm.648 1.274l-.061-.06-.134.01.223-.21-.028.26zm.237 2.966c.363.311.456.76.304 1.345-.156-.347-.31-.693-.467-1.04.052-.076.102-.153.153-.23l.01-.075zm.105-2.416l-.004.05-.19.216-.074-.143c.114-.203.032-.094.182-.115l.086-.008zm.224-.003l.85.311c-.001.028-.005.056-.007.084l-.215.143-.852-.311.008-.085.216-.142zm1.656 1.075l-.471-.309-.066-.125c.205-.124.175-.118.392-.077.047.17.096.34.145.511zm.269-.102l-.095.102c-.115-.058-.135-.132-.174-.268l.246.105.023.061zm-.201-.769l-.068.005.224-.209c-.053.068-.106.136-.156.204zm1.275 1.353l-.131.056-.72-.399-.223-.3c.372-.273.385.042.736.213l.338.43zm.268.236l-.268-.096.162-.084.106.18zm-.326.434c.096.193.096.138.326.11l-.413.351-.392-.74c0-.016.003-.032.005-.047.29-.062.383.042.666.083l.11.173-.302.07zm.058.482l.537-.29c-.108.24-.248.363-.414.538-.04-.083-.082-.166-.123-.248zm1.074 1.026c-.146.124-.24.164-.516.186l.222.025a1.314 1.314 0 00-.005.038l-.756.317-.02-.959c.174-.203.349-.406.522-.61.033-.014.064-.029.095-.044l.458 1.047zm-.269-1.47c1.483-.41 1.196.368.535.961l-.535-.961zm1.343.154c-.546 2.536-.652 2.675-2.584 3.764l-.101-.151.068-.283c1.26-.355 1.976-1.006 1.902-2.483l.631-.8.084-.046zm.066 0a28.815 28.815 0 00-.066-.262l.2-.006-.134.268zm-3.288 2.466a43.857 43.857 0 01.035-.52l.186-.06.027-.004c.052.317 0 .553-.107.807-.09-.057-.108-.081-.141-.223zm-1.074 2.352l.004-.046.352-.833.074-.175.62.041c.01.046.016.09.02.134.027.317-.084.57-.199.9l-.871-.02zm.268 1.08l.008-.416.01-.105.453.033.066-.005-.31.51-.227-.017zm-.266-1.74l.027-.014.215-.109.024-.002-.032.111-.125.426c-.037-.126-.075-.253-.111-.38 0-.01 0-.021.002-.032zm-.419 1.338l-.12-.12c.118.082.04.003.12.12zm-.658-.32c.151-.094.314-.065.537-.061-.022.071-.043.143-.066.214-.183.073-.21.046-.418.025-.017-.059-.034-.118-.053-.177zm.33 1.007l.207.485-.482.322c-.144-.194.013-.74.274-.807zm-.53-1.687l-.068.005.088-.2-.02.195zm.772.074l-.035-.022.119-.245.038-.001.112.258-.234.01zm1.86-3.494l-.015-.091c.07-.085.116-.138.237-.178l.032.159-.157.103-.097.007zm-.015.656c-.048.063-.134.1-.196.15l-.072-1.344.268 1.194zm-.493 1.802c.178-.098.203-.008.225.23l-.537-.001.008-.083.304-.146zm-.263-.743l.121-.102.098.173-.046.095-.222-.025.049-.141zm-.05.713l-.28.26-.182-.03-.074.007.13-.246.407.009zm-1.013-.153c-.112-.077-.03-.067-.052-.125l.052.125zm.847-1.2l-.908-.465c.043-.614.119-1.32.057-1.954.7.25 1.327 1.374.85 2.419zm-.639 0c.223.116.21.223.52.316.054.2-.028.278-.157.49l-.329-.013c-.068-.354.006-.557-.034-.793zm.061 1.738c-.112-.077-.031-.067-.052-.125l.052.125zm1.819-2.588l.002-.049.242-.176c.043.275.027.733-.037 1.075-.143-.111-.169-.578-.207-.85zm0 .85l.162-.269a15.93 15.93 0 00-.095.264l-.067.005zm1.565-.804l.046-.002c.012 1.03-.631 1.217-1.477 1.604l-.134.008c.175-.359.35-.719.527-1.078l1.038-.532zM20.53 9.69l.026.08-.068.048-.2-.269.242.141zm-.243.447c.004-.015.005-.031.007-.046l.06-.004.202.268c-.156-.073-.181-.09-.269-.218zm.269.688l-.363.337c-.26-.371-.518-.743-.777-1.115l-1.009-.864.223-.172c.487.209 1.341.606 1.513 1.102.056.161-.137.294-.005.43.155.159.311.045.418.282zm-2.267 1.681l.082.032.036.774-.125-.028c-.118-.086-.2-.487-.093-.66l.1-.118zm-.595 1.348l.087-.004.09.21-.139.054-.13.005.093-.265zm-.245 4.297l-.116-.392.497-.143a.27.27 0 00.04-.003.583.583 0 00-.004.037l-.417.501zm-.384-1.075c.049-.157.085-.182.173-.269.025.01.05.02.075.028l.02.07-.165.16-.103.011zm.126.269a40.953 40.953 0 00-.126-.137l.268-.132-.07.264-.072.005zm-.283 1.22l-.112-.091.083-.005.414-.318.04.324-.317.214-.108-.124zm.02 3.078c-.646.027-1.032-.136-1.56-.182l-.604-1.18-.116-.118c1.015-.119 1.653-.602 2.404-.937.266.25.869 1.523.338 2.087-.126.193-.269.212-.461.33zm-2.775-1.326l.243-.015c.366.242.615.676.79 1.075l-1.075-.307c.08-.268.113-.541.042-.753zm-.772-1.015l1.21-.344 1.902.183.035.095c-.567.252-1.211.464-1.861.79-.704.055-.874-.205-1.361-.376l.075-.348zm-.075 1.267l.024-.233.463-.034c.038.203.078.316.021.537l-.508-.27zm-.537.421l.18-.098c.22-.145.386.048.625.124l-.095.092-.71-.118zm.52-.42a12.955 12.955 0 01-.174-.078l-.078-.19.269.016-.016.252zm-.789 0l.268.228c0 .14-.012.125-.044.31l-.224-.538zm-.696-1.007c.252-.076.588-.06.964-.068l-.35.27-.723-.071.109-.131zM11.157 6.09c.499-.47 1.75-.33 2.064-.031l.085-.007c-.418.384-1.064.428-1.46.808-.311-.205-.568-.336-.689-.77zm2.743.77l.211.237c-.188.01-.386.022-.583.038-.444.037-.883.103-1.19.26l-.04.003a54.575 54.575 0 01-.066-.103 3.88 3.88 0 011.629-.432l.04-.003zm1.046-1.344c.347.344.866.548 1.045 1.075-.73-.334-1.849-.33-2.417-.862.501.106.927.067 1.372-.213zm.24 1.882l.995.134c.027-.001.053-.004.078-.006l-.798.678c-.126-.25-.156-.587-.276-.806zm1.279 1.15l-.206-.032.269-.043-.063.074zm-.206-.643l.246-.239.023.27-.178-.04-.09.009zm.488 8.896l-.118.005c-.035-.031-.068-.063-.101-.094.026-.034.051-.068.078-.101l.19-.074-.05.264zm-.215.49l.1-.112.008-.104.156.246-.268.023.005-.052zm-.106.86a10.29 10.29 0 00-.167-.198l.537-.072-.255.261-.115.008zm.102.806l-.537-.064.378-.205.159.269zm-.377-.759l.108.102-.389.099-.416.02.58-.269.117.048zM14.648 6.592c.314.008.645.087.806.269-.217-.021-.606.013-.704-.151-.033-.04-.068-.079-.102-.118zm.273 1.075c.153.133.207.289.179.538-.236-.08-.175-.336-.18-.538zm.264 1.695l.009-.046c.534-.115.65.069.406.233-.21-.028-.306-.107-.415-.187zm.688 6.908l.118.028a1.176 1.176 0 00-.005.038l-.264.202.11-.266.041-.002zm-.148-6.557l.2-.164.066.269-.269-.058.003-.047zm.803 7.188l-.649.167-.157.008.005-.027c.243-.047.399-.127.542-.242l.228.042.03.052zm-.463-.631l-.074-.15.185-.12.083.045-.106.217-.088.008zm-1.685 1.858l.32-.246.989.084.033.073-.668.381c-.248-.04-.462-.149-.59-.298l-.084.006zm-.498.023l.498.269-.806-.14.308-.129zm-.04.549c0 .022-.002.043-.003.065l-.153.084-.112.014.004-.064c.117-.154.097-.103.265-.099zM12.577 7.76a6 6 0 00-.076-.08c.266-.145.687-.212 1.101-.246.341-.027.677-.031.917-.035l.13.806c-.35-.038-.686-.083-1.047-.1a5.544 5.544 0 00-.936.034 40.504 40.504 0 00-.088-.38zm.395 10.787l.066.113-.063.242-.742.056c.08-.24.198-.356.325-.538l.414.127zm-.915-.934c-.337-.018-.8-.262-.899-.537l1.075.27-.176.267zm.377-.014l-.201.014.007-.063.223-.205-.029.254zm-.739-9.83l.327-.102.21.26-.22.01c-.105-.057-.211-.112-.316-.168zm-.004 11.542l-.05.176a2.01 2.01 0 00-.079.008c-.044-.09-.09-.18-.135-.269l.268.028c0 .019-.003.038-.004.057zm.15-1.16l.626.125.034.084-.486.598-.588-.086.414-.72zm4.688-8.424l.121-.176.044-.002.337.084.035.047-.378.138-.16-.091zm.726-.87l-.19-.114c.194.07.083-.009.19.115zm-.06 1.23l-.13-.108.27-.161-.14.269zm-.13 1.881l.418.103c.113.043.11.055.12.166-.18-.068-.48-.114-.537-.269zm.042-.732l.057-.074.17.269-.268-.052.04-.143zm-5.44 8.845c.01.023.02.047.028.07l-.361.137-.176.014.004-.037.124-.19c.17-.08.175-.028.382.006zM10.89 6.592c.235.171.295.384.259 1.075-.155-.195-.248-.608-.26-1.075zm.155-.538l-.02.195-.135.01c.05-.068.103-.136.155-.205zm-.155.27l-.02.194-.249-.046.205-.144.064-.005zm0 15.59l.133-1.368.941-.244-.99 1.563a4.603 4.603 0 01-.084.05zm.066-3.678l.145-.085c.131.155.013.377-.11.538-.104-.096-.116-.156-.088-.374l.053-.079zm-.872-.131l.31-.492.496.288c-.17.263-.341.525-.513.788-.154-.135-.248-.335-.293-.584zm0 2.105l.495-.446.234.02c.026.043.05.085.077.126l-.06.392-.746-.092zm-.805-.365l.59-.35.45.07.034.061-.473.407c-.237-.024-.394-.086-.517-.193l-.084.005zm-.079-.52l.216-.099.093.02.038.044-.625.205-.18-.062.458-.107zm-.727-.252l.158-.378c.294-.038.363.106.584.196.02.032.042.064.064.096l-.329.222-.267.017-.21-.153zm-.537 1.103l.39-.68c.26-.001.292.02.399.156.047.078.006.036-.098.054l-.024.234c.136.021.272.041.407.063-.08.196-.092.17-.213.295-.4.021-.581-.054-.86-.122zm-.452-.95l.683.203.038.08-.439.524-.635-.206.353-.6zm-2.63-.726l.008-.08.381.29.033.076c-.793.604.42 2.574 1.799 1.298l.593.235c-.229.402-.62.56-1.033.786-.986.081-2.366-1.508-1.781-2.605zm.92.275l.014.183a86.777 86.777 0 01-.219-.164l-.05-.105.254.086zm1.357 1.142l-.492.375c-.965.1-1.356-.56-1.388-1.372l.188-.225.083-.006c.486.378.916.955 1.576 1.146.01.028.022.055.033.082zM6.194 16c-.088-.064-.094-.094-.138-.2l.184-.69.214-.186.139.2-.4.876zm-.138.232c.14-.33.282-.66.424-.989l.086-.05c.195.34.478.494.564.955l-.638.658a1.275 1.275 0 01-.436-.574zm.805.822l.539-.517.267.538-.806-.02zm1.343-5.432c-.255.537-.593.902-.796 1.42-.088-.471.445-1.15.617-1.566l.082-.046.097.192zm0-1.478c.399-.122.667-.346.953-.596l.12.36-.338.446-.735-.21zm1.342.027l-.145.183-.123-.02.003-.03.244-.218.021.085zm-.211-1.158l.042-.003.17.352-.065.186c-.245-.127-.235-.277-.147-.535zm-.05 7.793l.248.175-.255-.11.007-.065zm-.004.269l.265.114-.004.032-.57.391c-.163-.071-.183-.216-.231-.375l.004-.033.536-.129zm-.795-.538l.255.102-.137.078-.132.015.014-.195zm-.014-5.376c.323.09.22.03.235.269-.149-.085-.159-.126-.235-.269zm0 4.802l.023-.232A.687.687 0 018.74 16l-.269-.037zm.537-3.357c-.1.128-.096.093-.268.168l.118-.269.15.1zm0-1.081l-.168.174c-.17-.095-.09-.057-.013-.231l.1-.038.081.095zm-.021-.458l-.247-.175c.19.072.146.028.247.175zM8.472 16l.269.21c-.138-.003-.21-.032-.269-.21zm.806-.01l-.11.01c-.03-.058-.062-.114-.093-.172a8.947 8.947 0 01-.066-.084l.146-.013.123.259zm-.148-4.978l-.12-.12c.117.082.039.002.12.12zm.016 4.427l-.137-.281c.02-.078.04-.154.058-.231l.034-.003.177.538-.132-.023zm-.703 3.128l.03.036-.097.354a.728.728 0 01-.44-.538l.507.148zm-.776.39l.268.235c-.172-.075-.182-.071-.268-.235zm.463-2.383l.033.232-.228-.269.195.037zm-.265 1.257l-.198-.487c.234.089.418.355.537.537l-.34-.05zm.21-4.786l.068-.002c-.066.09-.13.179-.197.268-.032-.066.007-.13.116-.207l.014-.06zm-.14 2.31l-.054.107-.154-.118-.06-.128.21-.023.058.162zm-1.88 2.257c.539.346 1.453.667 1.612 1.345a4.453 4.453 0 01-1.611-1.345zm1.396-.26l.216.26-.537-.268.321.009zm1.966.798l-.408-.405.714-.67.092.737-.398.338zm.398.45l.071-.176.095-.005.102.269-.268-.088zm.362-.988l-.094-.268.195.035-.101.233zm-.362-9.051l.003-.024.265-.064-.185.269-.083-.181zm-2.707 5.557l-.247-.538c.316.069.265.29.247.538zm-.658.269c-.23-.158-.376-.47-.394-.807.47.11.445.294.537.718l-.143.089zm-.278-1.403c-.342-.32.157-1.6.376-1.894.116-.144.262-.142.455-.198l.127.033c-.323.564-.541 1.332-.618 2.118l-.34-.059zm-.5 4.36l.163.272c-.048.113-.097.226-.147.338l-.084.089c.12.017.147-.086.327-.23.348.558.88 1.09 1.467 1.394l-.32.556-.97-.617c-.111-.203.042-.436-.137-.56-.16-.113-.37.05-.534.001l-.455-.413c.133-.295.262-.585.527-.736l.162-.094zm-.93-2.964c.035-.265.093-.538.158-.796l.037-.004.14.8.073.417.637 1.74c-.51-.275-.826-.912-.78-1.768-.123.277-.02.711.02.954-.314-.262-.355-.783-.284-1.343zm-.465.276a.97.97 0 01-.091-.324 2.087 2.087 0 01.005-.452l.046-.097c.07-.067.138-.135.207-.203l-.117.752-.05.324zm18.695 2.688l-.537-.205.521-.064.016.269zM8.762 21.72l.141-.074-.162.268.021-.194zm-4.049-9.214l-.229-.022c-.284-.092-.552-.42-.577-.784.437.038.584.242.8.491l.006.315zm-.032-.022c.032-.58-.417-.943-1-.927.1-.815.818-1.232 1.458-1.506l.122-.009c-.107 1.023-.025 1.904-.413 2.79-.286.652-1.3.64-1.244 1.644l.007.085c.145 1.338 1.618 1.61 1.821 2.786-2.183 1.096.479 5.705 2.206 2.998.309.044.585.182.97.049.178-.098.213-.177.283-.38l.617.314.033.078c-.566.433-.965 1.027-1.572 1.434l.058-.165-.16-.028-.086.047c-.027.121-.052.244-.08.365.347.35 1.399-.916 1.707-1.164-.175.602-.604.91-.843 1.46l.073.076c.454-.321 1.01-1.229 1.094-1.92l.68.111c-.852 1.137-3.039 3.637-4.188 4.304.174-.543.454-.957.594-1.402l-.082.005a8.03 8.03 0 00-.074-.075c-.28.545-.74.926-.823 1.66a.69.69 0 00.183.186c1.368-.225 3.65-3.618 4.741-4.544-.295 2.926-1.883 3.383-3.26 5.156 1.25-.616 2.01-2.19 3.082-3.064-.119 1.224-.413 3.958-1.155 4.443l.123-.009c.83-.51.88-2.61 1.156-3.683l.119-1.128 1.187-1.646.086-.046c.133.411.734.858 1.386.738l.466-.194 1.174.434c.154 1.666.095 2.6-.974 3.87 1.092-.551 1.493-2.675 1.13-3.801 2.537.29 2.436-.556 1.954-2.382l.447.008c-.082-.123-.305-.032-.475-.126-.077-.049-.062-.04-.11-.112.604-.672 2.056-.004 1.752 1.112.417-.926-.505-1.748-1.395-1.418.38-.444.84-.81 1.08-1.398l.087-.046 2.089 2.166.123-.009.094-.127-1.99-2.333.213-.096a.436.436 0 01.368-.127 22.49 22.49 0 01-.106-.052c1.068.106 2.43.984 3.543.701.103-.176.107-.272.046-.443 1.185.03 3.318-.362 3.997-.931-1.824.378-3.88.506-5.555.285l-1.484-.172-.083.006.4-.708c1.224-.023 4.432-.053 5.08-.811l-.142-.19-.56-.079c-.048.07-.055.138-.063.205l.443.047c-.962.24-3.641.745-4.516.45-.092-.11-.024-.493-.02-.77a.988.988 0 00-.006-.148c1.257-.37 2.19-1.205 2.573-2.467.22-.72.074-1.669.547-2.119.302.026.363.152.585.238-.118-.161-.285-.25-.495-.324l-.393.268c-.36.138-.737-.222-1.347.059-.496-.419-.776-1.081-1.445-1.334l-.07-.115.814-.78c-.267.22-.538.48-.809.74l-.544-.24-.032-.078c.62-.434 1.17-.595 1.876-.457l.102.192c-.033.056-.062.071-.09.087-.08-.02-.16-.042-.238-.063.102.06.209.079.315.097l.09-.086.013-.121c-.154-.136-.2-.233-.503-.243l.144-.21c-.346.234-1.048.297-1.393.5l.796-.617.095-.127-1.472.867c-.314-.021-.649-.166-.818-.34l-.082.006 1.747-1.167-.028-.118-1.988 1.145-.634-.154.058-.564 4.554-3.53.082-.007a12.892 12.892 0 01-.065-.155c-.17-.08-.862.475-1.124.642-1.008.638-1.9 1.433-2.891 2.01.41-.513 1.16-1.025 1.282-1.773l-.2-.025a95.68 95.68 0 01-.312.262l.34-.145c-.22.659-1.214 1.836-1.774 2.21a51.219 51.219 0 01-.065-.156c.364-.607.724-1.422.555-2.2l-.307-.177-.327.024c.21.082.352.102.506.203.1.754-.277 1.264-.48 1.874l-.086.046c-.135-.246-.127-.365-.404-.41l-.024-.158.19-.254.13-.09c.045.082.047.054.061.196a.4.4 0 00.061-.205l-.154-.068-.41.43c-.344-.227-.72-.465-1.202-.552.272-.56 1.103-1.46.673-2.169-.522-.862-2.308.132-2.962.816a1.282 1.282 0 00-.196.254 7.75 7.75 0 01.196-.15c.645-.475 2.364-1.612 2.736-.703.391.507-.357 1.483-.562 1.88-.696-.07-1.424-.136-2.173-.12a7.92 7.92 0 00-2.321.368c-.38.124-2 1.082-2.062 1.07l-.739-.706L6.85 4.57c-.004.026-.006.053-.009.08l-.09.087L8.73 6.39c-.101.06-.202.12-.303.182-.814-.61-1.376-.98-2.588-1.291l-.204.015c.708.481 1.42.922 2.132 1.364l.143.19c-.508.211-.723.65-1.153.923-.671-.317-1.292-.603-2.105-.846l-.058.164 1.524.969a1.13 1.13 0 01.082-.006l-.262.179c-.122.403-.36.87-.558 1.44-.759.61-1.743.574-1.896 1.817-.242.066-.414.087-.635.247-.006.053-.01.107-.017.16.139.193 1.372.708 1.668.759l.18-.173zm9.01-8.6l.111.02-.15-.018-.078.003c.119-.219.469-.273.806-.248l-.024.157-.658.033-.008.053zm.47.289l.316-.103c.137-.225.215-.463.145-.681-.325-.064-.513.015-.819.141l-.165.269-.064.103a.591.591 0 00.064.062c.103.085.228.114.457.095.062.106-.01.06-.123.089l.189.025zm7.809 2.42l-.34.062.21-.014.238.101c-.12.22-.242.438-.363.657.187-.218.373-.372.452-.703l-.197-.104zm-1.951 10.483c-.085-.148-.178-.246-.269-.269.082.076.176.165.269.269zm-1.074 3.226l-.269.153.206-.019.063-.134zm1.074-3.226c.272.305.478.888.418 1.344.31-.662-.044-1.074-.418-1.344z" fill="#E8F1FB"/></g></symbol><symbol id="socials-rutube" viewBox="0 0 28 28"><path d="M15.708 13.83H7.487v-3.39h8.22c.481 0 .815.088.983.24.167.152.271.434.271.847v1.216c0 .435-.104.717-.271.87-.168.152-.502.217-.982.217v-.002zm.564-6.583H4v14.489h3.487v-4.714h6.425l3.049 4.714h3.904L17.504 17c1.239-.191 1.795-.587 2.255-1.239.458-.651.689-1.693.689-3.084V11.59c0-.825-.084-1.476-.23-1.976a3.325 3.325 0 00-.752-1.325 3.373 3.373 0 00-1.294-.804c-.502-.152-1.128-.239-1.9-.239v.001zm7.272-.001c1.48 0 2.678-1.233 2.678-2.755 0-1.522-1.199-2.755-2.678-2.755-1.48 0-2.679 1.233-2.679 2.755 0 1.522 1.2 2.755 2.679 2.755z" fill="#E8F1FB"/></symbol><symbol id="socials-telegram" viewBox="0 0 27 28"><path d="M18.238 10.948c.613-.613 1.222-2.044-1.334-.307-3.63 2.506-7.21 4.858-7.21 4.858a3 3 0 01-2.352.051c-1.533-.46-3.323-1.073-3.323-1.073s-1.223-.768.87-1.586c0 0 8.845-3.63 11.913-4.909 1.175-.51 5.163-2.146 5.163-2.146s1.841-.717 1.688 1.022c-.051.716-.46 3.222-.869 5.931-.614 3.835-1.279 8.028-1.279 8.028s-.102 1.175-.97 1.38a4.208 4.208 0 01-2.556-.92c-.205-.154-3.835-2.455-5.165-3.579a.969.969 0 01.051-1.637 187.983 187.983 0 005.373-5.113z" fill="#E8F1FB"/></symbol><symbol id="socials-youtube" viewBox="0 0 27 28"><path d="M24.44 11.662a8.521 8.521 0 00-.92-4.153 2.95 2.95 0 00-1.736-1.006 79.4 79.4 0 00-8.449-.312c-2.81-.048-5.62.053-8.419.302-.553.1-1.065.359-1.474.744-.908.835-1.009 2.263-1.11 3.47a48.377 48.377 0 000 6.516c.03.68.13 1.353.303 2.011.122.508.368.978.717 1.368.41.405.935.679 1.504.784a45.67 45.67 0 006.561.332c3.533.05 6.632 0 10.297-.282a2.912 2.912 0 001.544-.784c.283-.282.494-.626.616-1.006a10.61 10.61 0 00.525-3.419c.04-.563.04-3.962.04-4.565zm-13.386 5.169v-6.225l5.976 3.127c-1.676.926-3.887 1.971-5.976 3.098z" fill="#E8F1FB"/></symbol></svg>